<svg width="180" height="77" viewBox="0 0 180 77" fill="none" xmlns="http://www.w3.org/2000/svg">
<path fill-rule="evenodd" clip-rule="evenodd" d="M11.9193 76.25C6.17925 76.25 1.94925 71.58 1.52925 65.86C-0.0407498 44.65 -0.93075 21.42 1.52925 6.37C2.09925 2.9 4.37925 0 7.89925 0H171.639C175.159 0 177.449 2.9 178.009 6.37C180.469 21.42 179.579 44.64 178.009 65.86C177.589 71.58 173.359 76.25 167.619 76.25H164.849V58.86C164.849 52.73 159.849 47.73 153.719 47.73H25.8093C19.6793 47.73 14.6793 52.73 14.6793 58.86V76.25H11.9093H11.9193Z" fill="#5175FF"/>
<path fill-rule="evenodd" clip-rule="evenodd" d="M159.619 76.2497V58.8597C159.619 55.6197 156.969 52.9697 153.729 52.9697H25.8092C22.5692 52.9697 19.9193 55.6197 19.9193 58.8597V76.2497H159.619Z" fill="#549CFE"/>
<path fill-rule="evenodd" clip-rule="evenodd" d="M53.2192 20.7302H126.319C127.769 20.7302 128.939 19.5602 128.939 18.1102C128.939 16.6602 127.769 15.4902 126.319 15.4902H53.2192C51.7692 15.4902 50.5992 16.6602 50.5992 18.1102C50.5992 19.5602 51.7692 20.7302 53.2192 20.7302Z" fill="#F4E71D"/>
</svg>
