<svg width="528" height="83" viewBox="0 0 528 83" fill="none" xmlns="http://www.w3.org/2000/svg">
<path d="M40.797 81.5062C41.1206 81.4056 42.4181 81.6564 42.9809 81.6155C42.3399 82.6863 39.6304 81.8713 40.797 81.5062ZM99.4127 3.96621C98.9406 4.2277 98.4688 4.48917 97.9971 4.75065C99.3297 4.93391 101.127 4.75375 102.367 5.01556C102.57 5.05948 102.037 5.82339 102.517 5.86155C102.998 5.89949 102.913 4.84902 103.614 4.74233C104.397 4.62589 107.968 5.38546 109.212 5.37723C113.851 5.34219 118.532 4.77689 123.167 5.24339C118.369 5.9879 123.191 6.81098 124.54 6.48288C124.84 6.40664 124.803 4.45584 129.6 4.97581C132.65 5.30498 129.83 8.07998 134.917 6.70925C131.022 4.73667 134.856 4.89463 137.93 4.84412C138.466 4.83545 142.722 5.14742 144.611 5.06745C145.257 5.03975 146.245 4.02094 147.104 3.99688C147.691 3.98106 148.132 4.54133 149.004 4.51541C153.078 4.4012 157.074 4.36496 161.16 4.55612C158.768 7.18167 163.036 5.67674 163.219 5.80193C164.191 6.51554 159.797 6.71704 161.536 7.16382C163.962 7.08354 166.381 7.00141 168.819 6.91726C166.824 6.59701 171.451 4.70209 172.299 5.55934C171.92 3.24208 183.352 7.54855 185.101 6.75996C185.463 6.59391 183.088 5.46078 188.579 5.95455C189.175 6.00928 188.954 6.71097 189.266 6.64377C189.453 6.60336 190.571 4.37042 191.79 5.59213C192.228 6.0375 189.442 7.52121 195.602 6.8874C193.123 4.6434 204.161 5.58816 206.202 6.12885C205.792 5.82892 205.382 5.52892 204.973 5.22884C206.991 6.02855 207.348 5.25373 207.802 5.29066C209.62 5.4388 212.125 6.18438 213.826 6.09101C215.816 5.98301 215.807 4.57417 218.118 5.08931C217.566 4.78637 217.015 4.48327 216.464 4.18003C218.055 4.23273 219.65 4.28421 221.251 4.33442C217.578 6.25548 222.049 4.41156 222.348 4.36615C222.821 4.29079 222.152 5.06507 222.943 4.95741C223.025 4.94041 222.895 4.22352 224.116 4.12293C226.644 3.91497 226.262 4.82506 227.327 4.79662C227.425 4.79018 227.07 4.14883 228.913 3.96295C234.782 3.36791 228.89 4.46052 228.669 4.55334C228.377 4.67614 230.429 7.34944 225.44 6.47454C227.112 6.75208 227.303 7.94654 227.491 7.97309C227.657 7.99499 230.558 7.77443 230.719 7.72987C232.142 7.2967 230.868 6.5015 231.144 6.34967C231.218 6.30985 231.64 6.3889 232.204 6.42835C233.373 6.51028 235.155 6.42197 235.68 4.74995C237.353 6.91413 234.918 6.83928 232.218 7.19517C232.126 7.2074 232.032 7.22013 231.939 7.23348C231.834 7.35711 231.968 7.4754 232.226 7.58259C232.955 7.88616 234.682 8.1007 234.803 8.09746C238.806 8.01699 236.554 6.19136 237.407 4.98066C237.855 4.34713 239.516 5.58996 237.974 3.94417C241.615 3.69717 239.424 4.71025 239.662 4.84937C240.024 5.05349 241.283 4.5489 241.442 4.60976C241.677 4.69989 240.879 5.29549 241.801 5.4819C241.954 5.50863 243.415 4.48199 241.497 4.04216C244.051 4.13441 243.826 3.28748 244.726 4.98524C246.425 1.70662 246.043 6.87761 246.742 7.0457C248.602 7.48831 248.015 4.95189 248.11 4.82577C248.772 4.01663 253.877 4.78996 255.143 4.397C254.679 6.24168 251.092 4.49847 250.31 4.86999C247.694 6.10665 254.051 5.71283 252.179 8.05609C252.971 7.40693 253.765 6.75771 254.559 6.10841C256.068 7.56051 253.985 8.24928 257.954 7.62698C258.581 6.3346 255.143 7.8861 255.818 6.86443C256.22 6.26478 258.521 6.09098 258.559 5.7783C258.597 5.40212 256.527 5.8891 256.841 5.30526C257.531 4.04545 265.146 5.07578 259.381 5.87387C260.991 5.8197 261.874 8.28014 263.26 7.47932C264.155 6.9595 258.987 3.64323 266.648 4.11249C266.839 5.27897 263.598 4.52131 263.516 4.61199C263.401 4.74402 264.039 7.37197 264.142 7.50019C264.523 7.92187 272.266 6.34624 273.96 7.63698C273.281 6.12504 279.837 7.23992 280.548 6.75931C280.736 6.62688 280.005 5.7075 280.206 5.60422C281.465 4.98828 284.923 6.58295 286.51 6.5917C288.289 6.6021 288.047 5.79974 288.146 5.79912C288.93 5.8271 288.316 6.38794 288.795 6.37597C289.522 6.35764 294.488 6.36073 294.733 6.24098C294.806 6.20379 293.975 5.29955 295.053 5.1008C295.24 5.06631 295.142 6.16241 298.343 5.61905C302.2 4.96519 295.626 4.31911 297.209 3.13858C299.729 4.71366 299.614 3.09995 300.291 3.21181C300.526 3.2528 302.282 4.58781 304.162 4.45876C302.816 4.71196 301.476 4.96492 300.13 5.21791C301.463 5.42923 304.028 5.07366 305.13 5.32109C305.667 5.44153 305.252 6.57969 306.412 6.52312C306.659 6.50493 307.573 3.73431 304.562 5.0359C304.297 4.05984 305.757 4.66658 306.422 4.37383C306.523 4.32828 306.886 2.67958 307.768 3.67929C307.976 3.92536 305.855 8.75909 311.542 5.16668C311.725 5.05089 311.066 4.4665 311.245 4.33821C311.367 4.25132 312.845 4.46021 313.006 4.37151C313.17 4.27654 312.444 3.63874 312.639 3.50556C313.64 2.8194 315.033 5.38274 312.933 5.23279C313.64 5.53745 314.349 5.84206 315.057 6.14664C314.262 4.20895 316.146 5.57153 317.117 5.48906C323.319 4.96195 319.131 3.7859 320.183 3.10362C321.875 2.00798 320.64 5.38345 323.167 4.31947C323.402 4.21996 320.28 2.87151 326.329 3.53323C325.439 3.60921 324.55 3.68513 323.662 3.761C324.218 5.63992 326.873 3.55693 327.081 3.52555C329.434 3.21113 327.853 3.92994 331.338 2.87454C331.65 2.77981 332.344 3.23048 333.009 2.98202C335.768 1.95806 329.326 2.48592 329.136 1.72433C329.04 1.35147 335.979 1.28374 336.225 1.45599C337.257 2.22168 333.083 1.8776 333.9 2.83906C334.208 3.18039 344.057 2.23314 346.056 2.56682C348.349 2.95634 349.442 5.49508 349.387 2.61446C350.1 5.42632 350.625 3.48369 350.918 3.49615C354.468 3.67308 354.475 3.70142 357.498 3.35781C358.166 3.28284 358.752 4.12703 358.986 3.97646C359.121 3.88565 358.841 2.97386 359.51 2.67431C360.441 2.26426 366.107 3.07172 366.535 3.56898C366.966 4.06629 364.162 3.84681 364.684 4.66898C366.709 4.70423 368.648 4.45048 370.695 4.48853C371.545 4.50683 371.123 5.10144 371.49 5.1041C371.649 5.10743 374.562 4.52164 374.432 4.30927C374.139 3.81549 365.089 4.37291 367.45 3.29276C367.904 3.08413 369.56 4.39027 369.262 2.76019C377.351 2.93429 385.432 3.10631 393.524 3.27624C388.912 4.61564 383.671 3.65008 378.803 3.88455C378.136 3.91513 375.88 3.81255 376.174 4.6329C380.316 4.74562 385.439 4.18803 389.427 4.62843C389.554 4.6431 389.106 5.39777 389.585 5.50371C390.484 5.70136 393.347 4.43103 393.841 4.72882C393.925 4.79895 392.304 5.81949 392.82 6.42959C394.144 7.99525 394.383 4.44869 395.49 4.46308C396.343 4.47583 402.145 6.04286 403.543 4.92615C405.034 3.73595 399.296 4.36316 399.694 3.41058C403.564 2.3666 407.535 3.27846 411.216 3.06775C411.281 3.06311 410.7 2.33908 411.518 2.21513C412.941 1.99942 413.343 3.03704 414.042 3.18702C414.797 3.34643 417.448 3.12929 417.814 3.50206C417.86 3.55098 417.348 4.60318 417.267 4.63444C416.121 5.09174 415.676 3.75411 415.571 3.73947C415.174 3.69834 414.799 4.22446 414.437 4.2028C413.843 4.1665 413.504 3.69706 412.72 3.67463C412.179 3.65737 412.723 4.56154 412.202 4.53271C412.01 4.51844 409.9 2.47563 409.758 4.61866C409.712 5.29491 426.602 5.73411 428.281 5.15136C426.826 4.93112 425.372 4.71081 423.919 4.49041C426.872 5.04173 430.363 3.24336 430.674 5.76454C441.579 5.69365 452.47 5.62084 463.372 5.5463C465.324 5.7114 464.298 7.36314 467.491 6.80766C466.649 6.31164 465.807 5.8156 464.966 5.31955C466.623 5.64006 473.9 6.16149 475.072 5.79584C475.224 5.74798 475.397 4.27257 477.213 4.09917C478.82 3.94596 479.107 5.0406 479.974 5.22925C480.701 5.38458 481.506 5.07495 481.722 5.13018C481.889 5.17459 481.971 5.84637 482.371 5.95353C483.632 6.28416 482.568 4.41423 483.868 6.55948C483.567 6.65031 483.267 6.74115 482.966 6.83198C484.485 7.10795 486.577 8.0429 484.362 8.58842C483.982 8.68255 484.294 8.02246 484.008 8.03099C472.841 8.44166 481.79 9.47718 485.684 8.36363C486.719 9.30288 492.331 8.56727 492.526 8.75258C492.793 9.02137 491.849 9.81802 493.131 10.4514C493.401 10.5855 500.922 9.84898 498.243 11.2026C497.692 11.4818 494.068 11.2977 493.198 11.3582C495.303 13.3511 500.029 10.2946 500.571 10.3556C502.757 10.6179 496.432 12.2378 501.346 12.3479C505.126 12.4322 501.546 11.1581 502.983 10.5371C503.79 10.1886 508.104 11.5826 507.935 9.63643C509.395 9.39013 508.565 10.4445 508.747 10.5141C508.926 10.5747 511.793 9.91618 512.74 10.3026C512.855 10.3508 512.524 11.3732 512.643 11.4531C512.875 11.589 515.652 11.3141 515.762 11.2253C515.832 11.1638 515.145 10.2941 515.412 10.0719C515.725 9.81549 518.403 9.95461 518.544 9.69719C518.742 9.3084 515.449 9.64692 515.972 8.64071C517.5 8.85083 519.962 8.12444 520.947 7.29974C520.706 7.53447 519.231 7.6057 518.717 7.53856C518.92 6.07957 522.09 6.01679 521.036 7.19482C521.709 6.55938 521.23 6.24403 521.603 5.65116C521.701 5.50089 522.679 5.44498 522.861 5.18853C522.885 5.13778 521.86 4.61599 522.055 4.31566C522.407 3.77293 525.379 3.81553 525.626 3.94907C526.32 4.32766 523.911 4.87039 523.726 5.48841C523.699 5.58326 525.79 6.73039 525.824 6.83563C525.974 7.97033 523.661 7.21005 523.95 8.22774C524.522 8.42939 525.094 8.63103 525.667 8.83267C523.507 9.92712 519.452 9.4989 518.442 10.7061C521.669 10.2706 525.062 10.2238 525.125 12.8815C525.151 14.0008 523.771 14.6933 523.832 14.9765C524.065 15.9894 525.977 14.8326 526.05 14.8845C526.11 14.9451 526.139 15.0048 526.14 15.0636C526.14 15.0636 526.14 15.0636 526.14 15.0637C526.156 15.6599 523.4 16.1612 523.269 16.437C523.049 16.9267 524.332 18.8849 524.341 19.3252C524.301 19.4148 522.343 19.9371 523.028 20.6881C523.721 21.4466 525.445 21.4188 525.508 21.4978C525.849 21.9535 522.844 22.4554 522.762 22.7319C522.718 22.8718 524.359 23.6811 524.413 23.9247C524.46 24.1693 523.243 24.7375 522.778 25.5255C522.432 26.111 523.496 26.5253 523.313 26.6204C523.182 26.6837 520.334 26.7481 520.196 26.853C519.992 27.0082 520.677 27.6794 520.584 27.854C520.453 28.1052 519.527 27.8807 519.653 28.1323C519.748 28.3198 523.375 30.6004 523.369 31.2349C523.356 32.3173 519.515 29.9277 523.14 34.1033C523.166 34.1307 524.013 33.8051 524.038 33.8308C524.586 34.6021 521.875 35.8813 525.223 35.5828C519.02 37.109 524.489 37.2286 523.613 39.0733C523.275 39.7824 520.865 40.134 520.857 40.2393C521.115 41.121 521.867 40.4124 522.14 40.8409C522.29 41.0804 520.152 42.0754 520.655 42.6722C520.914 42.9798 523.208 42.8082 523.304 42.867C524.228 43.4212 523.13 44.0727 523.34 44.478C523.48 44.7498 524.867 44.7354 524.904 44.7841C524.965 44.8856 523.112 46.0466 522.73 46.4477C522.44 46.7563 523.571 47.1983 523.366 47.3348C522.134 48.1515 519.418 46.2213 522.058 48.9564C522.219 49.1242 523.189 49.0295 523.218 49.063C523.84 49.8417 522.053 49.9569 521.75 50.6155C521.23 51.7503 523.784 51.0586 521.667 51.9023C523.289 52.5933 524.182 52.5394 526.055 52.2862C520.871 52.9915 519.114 55.9398 524.881 55.7165C523.044 55.7191 523.291 57.3509 522.744 57.3939C522.404 57.4187 519.702 55.8604 521.016 59.4807C521.181 59.9329 522.782 59.3112 522.3 60.2581C518.416 60.1208 522.233 60.8544 522.241 60.9777C522.247 63.1302 512.721 61.6152 511.1 61.9029C509.218 62.2366 507.585 63.9754 507.173 63.9883C505.82 64.0242 506.92 63.1343 506.609 62.8257C506.294 62.5202 502.492 64.2691 502.298 64.1835C501.544 63.8391 502.273 62.7996 502.195 62.7501C501.257 62.1491 496.117 63.0819 494.664 62.8824C494.726 63.5429 497.631 63.5199 495.845 64.6297C493.767 65.9235 493.571 63.0099 493.512 62.883C483.849 63.1618 474.183 63.44 464.516 63.7171C464.675 65.2658 470.97 63.9322 471.116 64.1328C471.996 65.3205 461.31 65.5742 459.993 65.0597C460.995 65.3693 461.997 65.6789 463.001 65.9884C461.35 67.8162 457.529 65.5953 455.091 66.4461C454.303 66.7219 455.846 67.3713 455.815 67.4191C454.94 68.1349 453.495 67.6379 454.542 66.6801C452.387 67.6274 452.68 66.6357 451.009 66.6048C450.922 66.6039 451.658 67.3054 450.345 67.6378C449.73 67.793 446.419 67.8802 445.994 68.5212C445.818 68.791 447.568 71.5398 447.713 69.1316C451.342 70.2106 448.836 68.0072 450.234 68.0265C450.449 68.0336 449.989 69.3875 453.488 68.6659C452.88 71.1018 448.789 69.397 448.098 69.7079C446.682 70.3468 452.614 71.4444 453.646 69.5313C453.189 71.4317 454.071 69.7749 455.388 69.8186C456.83 69.8657 456.217 70.4439 456.997 70.4269C459.129 70.3861 458.213 69.0765 459.999 70.2324C458.194 66.5582 462.989 69.6644 464.39 70.6028C462.156 70.8493 459.933 71.0954 457.694 71.3419C457.827 71.5339 457.96 71.7258 458.094 71.9178C457.503 71.9053 456.912 71.8928 456.322 71.8804C456.412 71.6908 456.501 71.5013 456.591 71.3117C453.582 72.6065 452.808 71.2581 452.56 71.2493C449.375 71.1724 445.676 71.279 442.457 71.3569C441.973 71.3686 442.342 72.577 438.786 71.7145C437.652 71.4399 438.691 70.466 437.419 70.6406C435.888 73.254 435.866 71.2012 435.392 71.2101C434.031 71.2451 433.217 71.9036 433.091 71.9135C431.417 72.0556 428.947 72.012 427.101 72.1537C427.067 72.1643 428.048 72.9303 426.842 72.7269C426.416 72.6542 422.563 69.3758 419.28 70.5593C420.145 70.7654 421.015 70.9713 421.877 71.1774C420.858 70.8848 413.796 71.9139 415.551 72.7734C416.625 73.2986 419.162 71.0584 419.5 73.1425C417.126 72.5766 404.135 73.84 403.116 73.3788C402.974 73.313 403.818 72.6129 403.623 72.5309C403.474 72.4685 400.493 72.7039 400.09 72.4531C399.85 72.3042 401.159 71.8554 401.046 71.6136C400.947 71.4417 397.214 71.244 397.024 72.0998C397.929 71.7356 400.508 71.9696 399.177 72.7202C399.006 72.8135 398.094 72.2873 397.886 72.4056C395.957 73.4964 401.793 73.1006 402.699 73.0864C399.047 74.2621 393.361 73.1255 389.117 73.9373C387.381 73.272 391.637 72.7913 389.679 72.2529C385.617 71.137 388.63 73.2584 388.507 73.3516C387.523 74.0907 384.023 70.3471 384.094 73.2604C382.622 72.8579 383.084 72.479 381.029 72.9109C381.305 73.106 381.582 73.3011 381.859 73.4962C379.605 75.2403 374.662 71.1012 375.017 70.7676C375.97 69.8746 378.525 71.1685 378.74 71.1306C379.058 71.0745 379.865 68.0967 383.428 70.6538C384.811 68.6359 377.854 69.4519 380.993 68.0224C378.857 68.2972 370.022 67.1322 368.775 68.0331C368.627 68.1504 369.378 70.1089 367.181 69.1562C366.139 68.7024 368.625 68.619 368.142 68.1804C366.661 66.8354 346.906 68.1945 343.148 68.355C342.904 68.363 342.979 67.7477 342.739 67.759C342.003 67.7935 339.344 68.7711 338.025 68.5197C340.777 69.5906 335.48 69.8035 334.125 69.7101C332.074 69.5678 332.176 68.4857 331.287 68.2768C327.875 67.4714 322.627 70.1558 319.941 67.8211C320.143 70.1947 315.323 66.7607 313.181 66.7883C311.501 66.8094 309.097 68.4375 311.388 69.3443C308.477 69.3007 305.421 69.813 302.707 70.0179C302.258 70.0522 302.861 69.3355 302.096 69.4161C302.027 69.4285 301.947 70.1195 301.286 70.2059C295.837 70.9275 298.464 69.4046 297.433 68.9969C296.857 68.7686 296.434 68.658 296.124 68.6253C299.294 68.4208 302.966 68.0683 303.937 68.027C303.079 66.5245 296.893 68.476 295.076 68.1062C295.013 68.0927 295.214 67.2495 295.15 67.245C295.148 67.245 295.147 67.2451 295.146 67.2451C294.469 67.1958 290.131 67.6002 291.047 68.5803C291.293 68.8422 293.297 68.798 295.655 68.6552C295.019 68.8568 295.517 69.7855 295.405 69.828C294.052 70.3223 290.662 69.4794 289.467 69.3816C289.194 69.3604 289.227 69.9617 289.182 69.9641C288.095 69.851 288.502 68.1232 287.43 69.9191C285.421 67.8204 291.101 69.5214 290.675 68.1391C290.343 67.076 277.823 67.9208 277.9 69.6059C277.853 69.4264 277.676 69.2062 277.318 68.9589C276.53 68.4094 273.034 68.6604 272.439 68.9838C272.339 69.0471 272.414 70.6835 272.288 70.7012C271.969 70.7457 267.694 69.5507 266.114 70.5515C266.985 70.763 267.844 70.9747 268.707 71.1863C263.517 71.3083 264.32 71.7788 266.068 72.2325C266.155 72.2351 266.241 72.2956 266.324 72.3005C267.68 72.6346 269.394 72.9476 269.425 73.0762C269.544 73.5672 260.719 74.0236 262.388 72.4695C262.618 72.2572 266.717 72.8493 264.672 71.8071C264.313 71.6246 261.7 71.9877 261.561 71.871C260.623 71.0958 266.323 69.923 265.602 68.8087C264.233 69.912 262.438 69.3827 260.856 69.6925C260.135 69.8326 259.975 70.6571 259.886 70.6744C258.559 70.9158 259.289 70.0399 258.845 70.0704C258.609 70.0901 256.003 71.9753 256.452 69.44C247.819 71.4715 254.083 71.3449 259.411 71.0943C257.754 72.0482 254.434 71.6701 252.965 71.913C252.437 72.0011 252.767 72.8374 251.876 73.0238C250.04 73.4078 241.225 72.6122 238.908 72.4278C240.315 72.1029 239.884 71.193 238.795 71.2773C237.707 71.3621 238.646 72.5697 238.436 72.7054C238.263 72.813 235.236 72.5577 233.45 72.5086C232.888 72.4936 232.445 72.4983 232.243 72.5395C232.712 72.4771 233.112 72.409 233.446 72.3376C235.36 71.9216 235.081 71.3905 233.425 71.1804C233.007 71.1284 232.504 71.096 231.927 71.0899C232.399 70.8175 232.871 70.545 233.344 70.2724C231.411 70.6801 227.341 69.3544 226.243 69.7878C226.071 69.8574 226.708 70.6167 226.611 70.6558C225.654 70.9995 222.301 70.2675 222.153 70.5321C222.025 70.7528 223.455 71.3759 222.933 71.7018C222.824 71.7704 221.439 70.7514 220.1 71.0269C219.603 71.1284 219.914 71.8518 219.789 71.8959C218.748 72.2612 219.346 71.0268 217.442 71.2507C216.045 71.4159 215.003 72.6286 213.06 72.2564C219.463 73.7 214.081 73.1345 211.431 73.6293C211.006 73.7082 211.385 75.0259 208.838 74.4119C214.216 71.9589 207.281 73.168 205.841 73.1557C205.763 73.1484 205.726 72.2773 205.027 72.2706C204.968 72.272 205.059 72.8601 204.409 72.9118C198.265 73.3976 202.191 72.6937 201.018 72.1243C200.517 71.8817 197.517 72.7407 196.712 72.7669C196.527 72.7705 196.607 72.1579 195.89 72.1875C194.622 72.2414 193.497 72.901 192.658 72.9585C192.56 72.9621 192.548 71.9968 190.957 72.3205C190.51 72.4109 190.01 72.7569 190.647 73.0305C192.776 73.9304 196.726 72.3206 199.126 73.2106C201.306 74.0223 194.454 74.1582 194.107 74.164C193.977 74.168 195.305 73.6787 193.951 73.5938C192.806 73.5233 190.675 75.2057 188.949 74.8527C188.817 74.8266 187.431 73.4204 187.494 73.3376C187.551 73.2772 189.667 72.9577 189.357 72.5503C189.319 72.5039 187.974 72.5214 187.797 72.2176C187.58 71.848 186.981 68.2117 186.694 68.122C185.958 67.9005 186.441 68.728 185.966 68.6727C184.953 68.5568 181.383 67.4963 181.278 68.7579C181.864 68.8304 182.451 68.9028 183.038 68.975C179.775 69.1188 181.17 69.6496 180.708 69.8882C180.212 70.146 180.347 69.0367 179.251 68.9365C179.018 68.9151 174.417 69.16 174.501 69.6245C177.045 68.8775 176.106 70.2501 176.223 70.2743C176.67 70.3624 177.242 69.592 177.835 69.6054C182.025 69.7113 177.803 70.9392 178.793 71.2478C179.134 71.3516 179.811 70.693 179.956 70.726C180.427 70.833 180.438 71.6922 180.751 71.6215C181.484 71.4573 180.623 70.2448 180.681 70.1813C181.331 69.418 183.908 70.3534 182.312 71.6834C183.276 72.156 183.381 70.5476 184.148 71.1868C185.673 72.4523 183.395 72.1365 182.781 72.3504C180.577 73.1222 179.926 72.508 176.813 72.7288C175.686 72.8067 174.356 73.591 173.835 73.635C173.504 73.663 170.408 70.9511 170.325 75.2041C169.126 74.7944 167.219 71.9935 165.982 72.1223C164.869 72.2397 165.223 73.7441 165.119 73.8024C164.96 73.8939 163.615 73.7756 163.162 73.9881C162.63 74.2392 162.895 74.8136 162.051 75.0475C159.936 75.6275 159.994 74.0913 159.777 73.9914C157.261 72.8354 158.362 75.0209 157.803 75.1956C157.289 75.3572 150.006 74.5021 148.482 75.0491C149.104 74.7433 149.727 74.4374 150.35 74.1314C149.238 73.1705 148.056 74.7295 148.041 73.0116C147.81 75.7845 145.51 73.9231 144.818 73.9922C144.545 74.0207 144.565 74.4934 144.224 74.5125C142.888 74.5907 139.901 74.202 139.176 74.4382C136.049 75.4562 144.017 77.2073 144.65 77.312C143.388 77.2779 136.273 77.8676 139.542 79.2154C140.045 79.4234 140.944 78.186 141.228 78.1386C143.15 77.8269 141.635 78.933 141.785 79.0394C142.04 79.2112 143.31 78.141 143.644 78.2703C143.756 78.3117 143.032 79.3163 144.87 79.3441C143.955 80.3178 138.823 79.5011 138.134 79.7267C137.893 79.8072 139.39 81.9013 134.988 79.853C135.038 80.0469 135.088 80.2409 135.139 80.4348C132.69 80.5022 130.225 80.5682 127.772 80.6332C128.041 80.1886 129.424 79.3005 127.688 79.4803C126.689 79.5843 127.421 80.5827 127.33 80.611C126.437 80.8824 110.577 80.4411 107.511 80.5254C106.466 80.5533 103.557 81.3291 103.336 81.3421C102.004 81.4116 97.3163 80.8536 96.3851 80.9587C95.8008 81.0263 96.3494 81.8617 95.8269 81.8185C95.341 81.7771 95.8512 80.9782 95.7071 80.9434C94.5084 80.6426 85.4433 81.6215 83.3053 80.8471C84.6102 81.0849 91.1914 79.5341 91.0597 78.9667C91.0315 78.8889 89.4454 78.2649 89.1145 78.5602C88.5752 77.8604 86.6899 79.9621 85.6796 79.5381C85.5656 79.49 86.0259 78.3061 84.2193 78.076C83.5968 77.9973 81.9615 78.9098 80.3236 77.8592C77.9391 78.3374 65.4718 76.7055 64.6068 77.9774C64.5809 78.0446 66.3344 78.4958 65.1441 79.0114C63.5627 79.6968 64.994 77.3618 63.1585 77.1475C62.8845 77.1145 57.7669 77.3201 57.6005 77.4647C56.0456 78.7713 60.5067 79.331 60.4445 79.4839C60.2851 79.8678 56.5744 80.0788 56.4254 79.9874C56.2824 79.892 59.3148 78.1659 55.6795 78.8064C56.0942 79.017 56.5089 79.2277 56.9238 79.4384C55.2137 79.8344 55.0584 78.6276 54.6454 78.5517C53.3582 78.3115 51.9561 80.1362 49.9075 77.8638C49.3658 77.2607 50.2729 76.598 50.2052 76.5077C49.5544 75.6963 48.7104 77.8548 47.7346 76.2378C47.6599 76.1173 49.9572 75.1605 45.9507 75.1416C46.2257 75.2974 46.5008 75.4531 46.7759 75.6088C46.2084 75.9513 42.157 76.142 41.614 76.0592C40.0246 75.8159 41.4149 74.7099 39.814 74.8381C40.8353 76.3617 35.9721 76.5486 36.255 75.2402C35.5743 76.8832 31.4468 75.6087 29.5082 75.5699C28.2851 75.5459 25.7903 76.265 25.4017 76.1815C24.9283 76.0791 25.071 74.9569 24.2159 74.7081C23.9712 74.6371 21.431 75.4629 19.195 74.3076C18.7619 74.085 17.8471 72.1845 18.6504 71.7065C20.0265 70.8883 22.6354 72.4167 22.6002 71.2923C22.5592 70.089 19.049 70.8118 18.1038 70.6582C13.7397 69.9466 16.2533 68.6595 16.1399 68.272C15.8454 67.3321 13.4611 67.3711 13.361 67.2872C12.9467 66.9133 14.6337 66.1613 14.657 65.5872C14.6852 64.8393 12.3779 63.5004 12.8998 63.2461C13.6477 62.8846 15.767 64.0006 15.9009 63.9466C17.6442 63.2151 15.2448 61.4964 14.581 60.6508C14.3798 60.3905 15.1754 59.9583 15.0092 59.8824C12.4714 58.7312 14.4855 62.3117 12.8006 62.0795C11.2972 61.8731 13.2248 60.7289 13.1674 60.6666C13.0928 60.5981 11.2956 60.5449 11.0122 60.145C10.8715 59.9438 15.5347 57.715 15.3365 56.7267C13.8456 56.9505 12.3542 57.1754 10.8638 57.4015C10.74 56.1113 12.891 57.0506 13.1123 56.9167C13.558 56.6476 12.3087 56.0003 12.3602 55.5921C12.3875 55.3323 13.8469 54.3994 12.5227 54.0238C12.0674 53.8942 11.1187 54.8035 9.45859 53.8886C15.2131 52.6773 11.2179 51.9729 11.0448 51.5164C10.8757 51.0602 13.6238 49.9699 10.2825 50.1777C10.1237 47.6669 10.3502 49.3833 11.2979 48.9369C12.4592 48.3886 9.76432 47.5739 14.0227 48.1818C13.7758 47.0064 10.3543 47.1064 10.1729 47.0141C10.016 46.9299 10.7734 46.3473 10.5011 46.1528C7.27951 43.8989 9.48929 44.9239 8.55104 43.4784C8.46773 43.3489 5.42879 42.8308 7.73835 42.6045C11.9471 42.1941 13.7143 43.8551 14.407 40.2892C11.2825 38.754 7.51728 41.077 6.5715 41.1228C5.12206 41.1888 6.61895 40.452 6.43897 40.2496C6.37645 40.1842 5.12711 40.253 5.1099 40.1955C4.19903 37.4837 10.6745 40.1124 12.7035 39.6326C12.1568 39.2282 11.6098 38.824 11.0626 38.42C11.802 38.3998 12.5414 38.38 13.2809 38.3604C9.75383 37.5592 13.1546 38.0508 14.0245 35.8472C14.2199 35.352 11.9069 36.2098 14.5435 34.8245C12.5932 34.5156 13.2122 34.0633 11.4499 34.6922C11.4908 33.8096 15.4594 32.7966 17.0256 32.3397C11.4841 31.3696 14.6565 34.5907 9.86107 32.9037C8.97963 34.0006 11.2629 33.7754 11.0776 33.9568C10.4131 34.6083 8.83946 33.5876 6.9648 35.8708C6.65983 36.2457 7.96829 37.3844 6.04292 37.342C5.83007 37.3355 4.59611 36.3638 4.61248 36.2926C4.76945 35.5233 5.98615 35.8024 6.03404 35.4816C6.079 35.1777 4.72507 35.3699 4.71977 35.2859C4.671 34.324 5.84801 34.91 5.67553 34.61C5.30402 33.9574 0.408104 31.9226 6.78117 32.4831C1.5 33.6088 6.11145 33.5489 8.16771 33.1188C8.69219 33.0108 8.82173 32.4353 9.56908 32.2315C10.5304 31.9677 11.6588 32.2378 12.1565 32.13C12.692 32.0113 9.63987 30.6667 14.0464 31.052C11.7984 29.7096 7.84554 31.1725 5.63661 30.2399C1.17605 28.355 8.72109 27.8884 9.50688 27.7004C9.71616 27.6488 9.00914 26.8767 9.14853 26.8284C9.37672 26.7533 13.6639 27.0904 14.0834 26.4471C14.5022 25.8035 12.5139 26.4835 12.3783 25.8151C12.2865 25.3641 17.4544 24.5443 14.6539 24.2474C12.7227 24.0435 9.17453 25.8737 8.56364 23.9313C11.4025 23.753 14.2413 23.5789 17.0789 23.4084C15.5227 22.6729 13.9663 21.9386 12.407 21.2054C15.5956 20.9555 18.3537 21.7828 21.3785 20.7164C14.0953 18.3608 23.7378 18.8163 23.8429 18.5296C23.8785 18.3566 21.0102 16.4351 20.5479 16.0842C23.085 15.3353 30.8074 14.9711 26.2881 12.5945C27.1096 13.1309 29.0933 11.805 29.0674 11.7051C28.8166 10.6537 24.4822 11.3374 25.1883 10.3882C26.0066 9.28613 27.1576 10.7795 28.4157 10.6601C34.8775 10.0407 33.1137 4.5532 39.5944 5.43527C39.4659 5.23962 39.3375 5.04397 39.209 4.84833C46.2501 5.17685 53.2893 5.52139 60.3033 5.87528C63.0623 4.21623 70.3741 3.2464 73.9565 3.45929C74.6816 3.50071 78.2124 4.40703 78.4783 4.56333C78.9702 4.86253 76.2513 4.95417 77.4752 5.51751C77.7305 5.63294 83.7294 6.04987 83.3041 5.10938C82.6369 4.99533 80.5252 5.44967 80.184 5.22616C77.7908 3.62988 96.2265 5.03905 97.1486 4.41167C96.7452 4.10399 96.3361 3.79626 95.9301 3.48855C97.0981 3.64786 98.2506 3.80702 99.4127 3.96621ZM45.487 78.8656C44.7895 79.8033 43.0546 79.0908 42.0282 79.3516C40.6111 79.7166 38.1892 83.3319 39.2367 79.705C41.3225 79.4238 43.4002 79.1441 45.487 78.8656ZM76.0046 80.4526C74.6076 79.9368 75.7091 77.9181 76.8521 78.7696C76.979 78.8664 77.896 81.1471 76.0046 80.4526ZM61.3122 79.3867C61.3718 79.3602 62.5797 79.4216 62.622 79.4537C63.7014 80.2745 60.0557 80.0849 61.3122 79.3867ZM132.614 78.8737C131.056 78.9527 132.177 80.8017 133.145 80.0485C133.206 80.0007 132.716 78.87 132.614 78.8737ZM131.506 78.8188C130.301 77.162 127.845 80.492 129.785 80.1665C129.973 80.1337 131.561 78.8995 131.506 78.8188ZM71.0069 79.6094C71.1691 78.9781 72.614 79.2941 73.2318 79.4501C73.2104 80.0273 71.6128 79.5431 71.0069 79.6094ZM107.792 79.7267C107.853 79.2301 102.812 79.2178 102.457 79.8702C103.261 79.5987 107.726 80.1732 107.792 79.7267ZM120.77 79.1234C120.642 79.0366 118.895 79.1553 118.943 79.5943C119.791 80.1758 121.346 79.5164 120.77 79.1234ZM146.619 79.2866C146.711 79.1766 145.418 76.381 148.513 78.228C148.967 78.4985 147.338 79.223 147.5 79.3236C147.838 79.5201 148.106 79.6119 148.321 79.6289C146.879 79.856 145.362 79.9596 145.219 79.7897C144.536 78.9875 146.576 79.3326 146.619 79.2866ZM160.21 77.2341C160.509 76.779 162.426 77.0234 162.855 77.2108C162.929 77.2461 162.605 78.443 163.462 78.3535C164.151 78.2796 163.122 77.0539 164.463 77.2499C165.821 77.4465 164.008 78.3205 164.126 78.3828C164.284 78.4646 166.386 77.9134 166.321 78.6262C166.272 79.1544 164.02 78.7982 163.466 78.9102C162.755 79.0543 163.617 79.9342 162.429 79.745C161.683 79.6268 162.097 78.0799 161.939 78.0016C161.805 77.9388 159.181 78.8273 160.214 77.239C160.213 77.2373 160.211 77.2357 160.21 77.2341ZM148.712 79.5617C148.603 79.6136 148.476 79.641 148.321 79.6289C148.452 79.6083 148.583 79.5843 148.712 79.5617ZM49.5289 78.2038C50.2526 78.6843 48.0958 79.2863 47.2808 78.6579C47.2702 78.1537 49.4131 78.1289 49.5289 78.2038ZM150.058 78.3056C152.211 78.6986 150.624 79.2279 148.712 79.5617C149.32 79.2722 149.336 78.1742 150.058 78.3056ZM89.1145 78.5602C89.2041 78.6763 89.2594 78.8566 89.2642 79.1522C89.0301 78.8271 89.0096 78.6533 89.1145 78.5602ZM94.0975 79.1284C95.8184 78.2421 92.337 78.2499 92.3549 78.8943C92.363 79.1376 94.0283 79.1636 94.0975 79.1284ZM134.607 78.9721C134.451 78.8832 136.905 76.1773 133.352 78.1989C135.24 78.5292 133.245 78.8148 133.273 79.053C133.345 79.7379 136.527 79.0964 137.233 79.3953C137.79 78.1737 135.124 79.2652 134.611 78.9721C134.61 78.9721 134.609 78.9721 134.607 78.9721ZM184.743 77.8444C184.312 78.564 182.933 78.3396 182.006 78.3013C182.436 77.5821 183.812 77.8068 184.743 77.8444ZM425.683 72.9859C419.413 73.8084 418.526 70.9083 424.305 71.917C424.418 71.9384 426.057 72.6802 425.683 72.9859ZM371.65 73.5753C371.025 72.3169 372.985 72.0643 374.29 72.5584C374.586 72.6695 375.692 73.9326 374.47 74.2147C374.471 72.6708 372.548 72.1281 371.65 73.5753ZM151.278 77.4933C151.905 76.6457 153.843 77.2544 154.858 77.3836C154.24 78.0818 152.175 77.7613 151.278 77.4933ZM404.966 71.9844C404.301 71.9046 403.882 73.0233 403.998 73.1125C404.521 73.5224 405.737 72.5959 404.966 71.9844ZM145.051 77.3427C144.964 76.8351 147.53 76.3552 147.698 77.6103C147.159 77.518 145.112 77.6615 145.051 77.3427ZM182.989 77.4718C182.588 77.2156 184.654 76.7442 185.279 76.997C185.234 77.5374 183.249 77.6384 182.989 77.4718ZM394.297 72.6268C393.703 72.5453 392.217 72.5528 392.063 73.0046C391.873 73.5693 394.046 73.3245 394.297 72.6268ZM504.771 68.8328C504.851 69.032 502.591 70.5413 501.561 70.201C499.604 69.5496 504.685 68.6929 504.771 68.8328ZM411.234 71.2556C413.136 72.2616 411.028 71.294 411.137 72.401C412.402 72.4091 415.531 72.385 413.352 71.3488C412.927 71.1484 411.826 71.3125 411.234 71.2556ZM409.494 70.9281C409.302 71.2924 407.979 72.459 409.145 72.3485C409.684 72.2957 410.523 71.0153 409.494 70.9281ZM490.551 69.6959C488.847 68.7576 496.552 69.0846 496.78 69.2507C496.899 69.3385 496.978 69.4221 497.024 69.4935C497.299 69.175 498.751 69.0811 498.939 69.8638C498.503 69.8101 497.314 69.9103 497.173 69.8266C497.113 69.7911 497.067 69.7574 497.036 69.7228C496.539 70.4194 490.876 69.8737 490.551 69.6959ZM477.777 69.016C479.664 67.5178 480.063 69.9716 479.901 70.0552C477.839 71.1171 479.154 69.2658 479.087 69.1824C478.939 69.0446 477.473 69.9258 477.784 69.0158C477.781 69.0159 477.78 69.0159 477.777 69.016ZM487.929 69.3585C488.008 69.3244 489.62 69.3587 489.688 69.3959C491.03 70.1892 486.463 70.0957 487.929 69.3585ZM170.462 75.5066C171.622 75.7497 170.486 76.6579 169.716 76.3329C169.652 76.3009 169.44 75.2918 170.462 75.5066ZM408.577 71.1953C408.301 71.0311 401.447 70.5567 401.889 71.9149C402.467 71.739 410.264 72.2482 408.577 71.1953ZM357.38 72.1234C358.587 72.105 357.303 73.4272 356.648 72.9615C356.405 72.7885 357.076 72.1288 357.38 72.1234ZM141.611 76.1577C140.351 76.8617 140.621 74.4835 141.708 75.3035C141.75 75.3356 141.661 76.1302 141.611 76.1577ZM367.049 72.6322C362.907 73.5152 363.794 69.3999 369.237 70.6497C369.072 70.8361 368.907 71.0224 368.742 71.2088C375.01 71.6703 369.174 71.4869 367.652 71.753C367.073 71.8542 367.577 72.5254 367.053 72.637C367.052 72.6354 367.05 72.6338 367.049 72.6322ZM351.022 72.1975C346.941 69.3891 354.648 71.0976 356.838 70.6662C354.74 71.9165 351.951 71.8017 355.761 72.9389C350.242 73.3087 352.516 72.0968 352.292 72.006C352.029 71.9044 351.196 72.3181 351.022 72.1975ZM361.606 71.9239C361.836 71.8336 363.6 72.3825 364.228 72.2708C363.369 73.2843 360.079 72.5372 361.606 71.9239ZM464.427 70.0352C464.552 69.2542 464.896 68.6724 466.283 68.9273C465.867 69.3289 464.995 69.6875 464.427 70.0352ZM44.185 74.7688C43.2418 74.7096 41.3667 74.4107 41.9395 75.2301C42.0019 75.2998 44.1802 75.2275 44.185 74.7688ZM388.667 71.0617C388.461 70.9713 383.244 71.0359 385.066 71.8492C385.615 72.0946 390.364 71.8671 388.667 71.0617ZM415.716 70.4832C415.279 70.4861 413.509 70.6773 413.476 70.8621C413.372 71.5006 415.54 71.0964 415.716 70.4832ZM39.431 73.9582C39.3066 73.877 36.427 74.0134 36.743 74.3915C37.3415 75.1059 39.8558 74.2371 39.431 73.9582ZM174.685 73.677C174.93 73.6476 175.255 74.4914 175.34 74.5005C175.544 74.5126 180.008 74.1735 178.307 75.2633C178.034 75.4471 171.575 75.0469 170.752 74.9398C170.427 73.781 173.169 74.8792 173.839 74.7581C173.957 74.7352 174.03 73.7651 174.683 73.6819C174.684 73.6802 174.685 73.6786 174.685 73.677ZM471.588 69.0296C471.764 68.2877 476.967 67.6648 476.931 68.5592C475.148 68.7161 473.367 68.8729 471.588 69.0296ZM468.938 68.976C467.811 68.4835 470.413 68.2437 471.186 68.4539C471.206 68.9494 469.103 69.048 468.938 68.976ZM405.752 67.9789C405.232 68.1723 406.871 69.2071 406.515 69.4251C406.288 69.5611 405.107 69.1874 404.742 69.5331C404.639 69.6426 405.858 70.6234 406.203 70.5711C406.692 70.5005 406.196 69.717 406.731 69.6981C408.509 69.6364 410.102 70.164 411.773 70.1088C411.923 70.1022 410.74 69.57 412.026 69.5456C412.224 69.5407 413.435 70.3474 414.967 70.1846C418.291 67.5082 420.858 69.9889 425.132 68.9457C424.963 68.7059 421.73 68.133 421.541 68.1135C417.921 67.7789 411.487 67.8943 407.708 67.9836C406.74 68.0056 407.224 68.5422 406.808 68.5728C406.479 68.5959 406.845 67.5706 405.752 67.9789ZM44.6881 74.2091C44.242 73.1928 42.6627 73.8295 41.6569 73.774C42.0081 74.6902 43.704 73.9806 44.6881 74.2091ZM445.496 68.7928C444.989 68.845 443.406 68.5798 443.284 68.8885C443.126 69.2916 445.406 69.4849 445.496 68.7928ZM199.908 73.8239C199.957 73.7959 201.196 73.8389 201.24 73.8704C202.35 74.6746 198.643 74.5414 199.908 73.8239ZM229.413 73.6307C230.347 73.4891 231.287 73.1549 231.618 73.9721C231.017 73.8572 229.313 74.206 229.413 73.6307ZM269.854 72.8084C269.639 71.7347 272.446 72.3742 272.977 72.4597C272.791 72.9428 270.009 73.5821 269.854 72.8084ZM464.139 66.6576C465.846 66.6773 465.444 65.0543 466.547 65.765C466.727 65.8853 467.386 69.2696 465.478 68.0445C465.134 67.8242 466.433 66.9824 464.139 66.6576ZM370.12 70.6624C370.536 69.9389 371.899 70.1174 372.819 70.1521C372.625 70.6868 370.771 70.5957 370.12 70.6624ZM34.2341 73.1323C33.4402 72.1239 29.7705 72.8682 30.6782 73.5341C30.8067 73.6207 33.7187 73.0932 34.2341 73.1323ZM155.651 74.2501C157.177 73.4597 154.023 73.2092 153.012 73.9815C153.468 73.9318 155.55 74.3022 155.651 74.2501ZM260.14 72.4226C260.212 72.3886 261.826 72.4322 261.899 72.4697C263.237 73.2704 258.672 73.1516 260.14 72.4226ZM219.688 72.4785C220.261 71.8182 224.128 72.2853 225.01 72.9238C224.185 73.8925 218.97 73.3046 219.688 72.4785ZM457.134 67.3021C458.35 67.237 459.514 67.4081 460.636 67.6613C460.417 68.2164 457.273 67.709 457.134 67.3021ZM266.068 72.2325C266.155 72.2351 266.241 72.2956 266.324 72.3005C266.237 72.279 266.152 72.2542 266.068 72.2325ZM429.888 67.6135C428.861 67.4226 429.099 68.4234 429.162 68.4526C429.939 68.7589 431.051 67.8289 429.888 67.6135ZM43.5356 72.7108C43.1869 71.8012 41.4823 72.5001 40.502 72.2813C40.786 72.9994 42.7449 72.8032 43.5356 72.7108ZM346.686 70.4398C345.385 69.4856 350.56 68.2183 351.677 68.8263C351.771 69.4328 346.876 70.5702 346.686 70.4398ZM150.901 72.8779C150.799 72.166 148.599 73.0189 149.065 73.3564C149.36 73.5712 150.961 73.3203 150.901 72.8779ZM354.313 69.1784C354.798 68.9495 355.96 69.6242 355.567 70.0617C355.063 70.6226 354.187 69.2436 354.313 69.1784ZM398.255 67.5314C398.038 67.428 395.177 68.23 396.384 68.9261C397.222 69.4099 397.328 68.3781 397.522 68.3703C397.738 68.3682 402.398 69.5113 398.255 67.5314ZM317.451 70.5009C318.533 70.2024 319.862 70.4898 320.994 70.4442C320.545 70.8948 317.928 71.0748 317.451 70.5009ZM159.391 72.702C159.119 72.415 151.911 72.2299 156.004 73.1227C156.24 73.1735 160.197 73.5746 159.391 72.702ZM464.139 66.6576C463.924 66.6551 463.675 66.6275 463.385 66.5647C463.672 66.585 463.922 66.6268 464.139 66.6576ZM444.764 67.0482C445.143 66.5202 443.162 66.4324 442.586 66.723C442.422 67.3604 444.712 67.122 444.764 67.0482ZM321.064 69.7197C321.711 69.4083 322.906 69.6973 323.717 69.644C323.591 70.1287 321.357 70.2024 321.064 69.7197ZM274.999 70.1948C276.313 70.4534 277.902 70.288 277.916 69.6984C277.945 69.7899 278.01 69.8863 278.117 69.9823C278.224 70.0773 279.612 69.7737 280.223 69.9618C283.879 71.0794 266.219 70.96 276.42 69.0805C275.948 69.4519 275.475 69.8234 274.999 70.1948ZM214.456 71.1641C213.7 70.4569 211.627 71.3815 212.171 71.6571C212.549 71.8462 215.212 71.8764 214.456 71.1641ZM243.046 70.2527C242.825 70.129 240.814 70.6703 240.766 71.0489C241.948 71.4242 244.059 70.8277 243.046 70.2527ZM208.731 70.3942C208.26 70.2914 207.675 71.4544 207.73 71.5042C208.213 71.9211 209.524 71.029 208.731 70.3942ZM460.528 63.6343C459.833 63.3209 457.652 64.2144 457.193 64.9902C457.1 64.8449 456.855 64.6585 456.408 64.4389C456.41 64.4388 456.411 64.4388 456.412 64.4388C455.811 64.146 438.029 64.2648 449.993 65.4292C450.367 65.4668 449.84 64.7946 451.36 64.8764C451.46 64.8826 451.524 65.4408 451.834 65.4601C452.548 65.501 456.355 65.7554 457.108 65.2854C457.117 65.389 457.169 65.4864 457.276 65.5742C458.235 66.357 461.07 63.8758 460.528 63.6343ZM247.05 70.0718C246.638 69.8725 245.353 70.0947 245.23 70.591C245.872 70.8206 248.005 70.5369 247.05 70.0718ZM159.169 70.6754C158.335 70.2685 156.227 71.025 156.863 71.4295C157.252 71.6786 160.129 71.1427 159.169 70.6754ZM234.157 70.5842C238.91 71.078 235.287 70.5156 236 69.7777C235.385 70.0466 234.77 70.3154 234.157 70.5842ZM482.544 64.9359C481.783 64.789 482.635 63.3372 483.488 64.0908C483.756 64.3302 482.969 65.0155 482.544 64.9359ZM516.71 63.6032C516.031 62.3531 519.205 63.0153 517.999 63.9164C517.943 63.9472 516.757 63.6502 516.71 63.6032ZM492.814 63.7071C492.323 64.5831 491.991 64.6941 490.539 64.5184C492.674 64.2198 490.668 63.5085 492.814 63.7071ZM277.9 69.6059C277.909 69.6406 277.917 69.6662 277.916 69.6984C277.906 69.6669 277.901 69.6369 277.9 69.6059ZM204.225 70.6673C203.618 69.9426 201.945 70.0126 202.451 70.7435C202.499 70.8112 203.984 71.21 204.225 70.6673ZM457.193 64.9902C457.275 65.119 457.237 65.2047 457.108 65.2854C457.099 65.188 457.131 65.0949 457.193 64.9902ZM213.232 69.9688C213.178 70.5151 215.742 70.6937 215.845 70.628C217.305 69.6623 214.285 69.9229 213.232 69.9688ZM142.326 69.8663C142.195 69.9227 143.035 71.3338 143.557 70.7842C143.961 70.3578 142.818 69.6517 142.326 69.8663ZM497.722 63.2279C498.525 63.208 499.653 63.178 499.879 63.841C499.339 63.7524 497.719 63.7188 497.722 63.2279ZM515.45 62.7177C514.521 63.5282 512.354 63.5824 510.968 63.4889C510.916 62.4552 514.565 62.9841 515.45 62.7177ZM462.713 63.9638C462.646 63.9235 460.627 63.6667 460.92 64.352C461.347 65.357 463.291 64.3258 462.713 63.9638ZM146.255 70.6278C147.163 70.1539 145.08 68.681 144.122 69.8098C143.629 70.3879 146.1 70.7074 146.255 70.6278ZM198.978 69.7595C197.78 70.1708 200.767 70.8588 201.171 70.1305C200.623 70.0775 199.402 69.614 198.978 69.7595ZM239.664 68.4378C235.87 66.4213 237.988 70.192 238.647 69.8443C238.74 69.7947 239.757 68.4851 239.664 68.4378ZM25.0145 68.9551C24.4888 69.2458 26.4508 70.2954 26.7044 69.6032C26.861 69.17 25.3507 68.7697 25.0145 68.9551ZM296.124 68.6253C295.966 68.6355 295.809 68.6458 295.655 68.6552C295.77 68.6185 295.923 68.6041 296.124 68.6253ZM188.099 67.0399C190.767 69.9733 190.478 67.7014 190.708 67.7124C191.206 67.741 192.379 68.5306 193.313 68.393C192.243 68.7327 191.16 69.072 190.087 69.4108C190.949 69.6202 198.321 70.6504 198.48 70.1691C198.696 69.4864 196.372 69.7193 196.305 69.6596C196.207 69.5749 195.83 67.6845 195.614 67.6141C195.266 67.503 189.086 67.5062 188.099 67.0399ZM231.82 68.9137C232.434 69.1275 232.621 69.8743 232.901 69.6897C232.996 69.6266 232.999 68.9109 233.325 68.7197C232.823 68.7845 232.321 68.8491 231.82 68.9137ZM183.366 69.7158C182.608 68.8451 185.988 69.161 186.09 69.2581C186.669 69.8478 183.988 70.4275 183.366 69.7158ZM211.949 69.35C211.824 69.3008 209.241 69.0586 209.268 69.5432C209.952 69.9057 213.41 69.9708 211.949 69.35ZM233.725 68.6633C234.626 68.7297 236.345 69.4177 236.129 68.3442C236.128 68.3442 236.127 68.3443 236.125 68.3443C235.324 68.4507 234.524 68.557 233.725 68.6633ZM149.353 68.3619C147.682 66.6411 148.469 68.8117 149.953 69.3694C150.406 68.6002 149.627 68.6419 149.353 68.3619ZM143.983 67.065C143.513 66.7549 138.713 67.0731 139.44 67.984C139.7 68.3089 142.463 67.5043 142.591 67.5675C142.784 67.6613 141.897 68.6623 143.374 68.469C143.289 68.1283 144.142 67.1687 143.983 67.065ZM147.969 67.2591C146.313 65.949 145.921 68.3545 147.18 68.3651C147.668 68.3709 148.206 67.4481 147.969 67.2591ZM154.789 67.4808C154.192 67.2515 152.583 66.9153 151.479 67.7131C152.955 67.785 154.443 67.8563 155.909 67.927C156.08 67.4738 155.313 67.6823 154.785 67.4808C154.787 67.4808 154.788 67.4808 154.789 67.4808ZM525.272 56.2925C523.934 55.6446 526.97 55.3038 527.103 55.4681C527.5 56.0147 525.871 56.5818 525.272 56.2925ZM14.6959 47.1145C14.3286 46.8439 14.0856 45.9497 13.281 46.4223C14.0953 47.0795 14.9083 47.737 15.7213 48.3948C16.3457 46.8783 15.0973 47.4129 14.6959 47.1145ZM11.5714 41.5962C11.686 41.559 11.0473 39.2337 12.5381 40.7809C13.544 41.825 8.10426 42.8761 7.11482 41.8516C8.1981 41.3645 10.5852 41.8999 11.5714 41.5962ZM1.94574 31.5819C1.8811 31.3966 3.95633 31.1075 4.19774 31.2368C5.465 31.9171 2.29518 32.5734 1.94574 31.5819ZM8.57389 31.9785C7.5973 31.5323 9.75303 31.2277 10.3974 31.4847C10.4621 31.9176 8.7247 32.0434 8.57389 31.9785ZM511.027 22.9301C509.937 21.3755 509.087 24.8053 510.683 24.0772C510.76 24.0429 511.074 23.0064 511.027 22.9301ZM3.95841 29.217C4.93658 29.6617 2.77965 29.9696 2.1339 29.715C2.07041 29.2825 3.8095 29.1519 3.95841 29.217ZM510.19 19.181C508.767 18.0789 509.357 21.8866 509.536 22.036C510.268 22.6253 512.69 21.0618 513.183 20.6759C509.515 21.3451 510.861 19.7003 510.19 19.181ZM503.82 21.6425C502.537 22.0838 505.864 22.7772 506.468 21.6958C505.826 21.7635 504.185 21.5152 503.82 21.6425ZM495.94 20.6215C495.241 20.5027 493.163 20.2289 492.832 20.839C493.588 20.7105 495.663 21.2476 495.94 20.6215ZM494.318 18.8612C493.209 18.0726 493.01 20.4593 494.246 19.7179C494.294 19.6892 494.359 18.9056 494.318 18.8612ZM488.187 18.1608C487.45 17.2328 486.697 19.5587 487.853 19.5909C488.196 19.5962 488.265 18.2673 488.187 18.1608ZM508.339 15.1163C507.308 14.7364 506.037 16.4211 508.22 16.5457C507.461 16.8178 506.704 17.0899 505.943 17.3621C508.823 18.2129 508.552 15.9295 509.374 16.0027C510.523 16.1074 510.482 17.9986 510.268 18.5977C511.175 17.4161 515.17 17.2935 517.47 17.0131C515.432 16.5802 512.115 15.8241 510.108 15.5684C509.535 15.4942 508.995 16.0267 508.506 15.9814C507.724 15.906 508.397 15.1421 508.343 15.1162C508.342 15.1162 508.341 15.1162 508.339 15.1163ZM480.153 18.335C478.031 17.3171 479.415 19.5976 480.588 19.1541C480.637 19.121 480.205 18.3598 480.153 18.335ZM1.10398 22.2037C3.93422 23.1486 1.89212 24.4444 7.77817 22.4565C5.30886 23.8516 7.64752 23.449 7.16738 24.0084C6.78236 24.4509 5.32656 24.0965 6.17743 24.977C5.0609 24.0187 0.2394 24.3251 0.0227334 24.1714C0.024756 24.1714 0.0267787 24.1714 0.0288014 24.1714C-0.101287 24.0798 0.200533 21.9037 1.10398 22.2037ZM495.773 14.5688C495 11.7784 494.842 16.2434 493.406 13.9514C491.663 17.3792 498.464 13.8204 499.369 16.6539C491.89 16.5164 504.378 19.3546 499.052 15.2163C503.39 16.6557 500.446 14.6503 501.096 14.0885C501.79 13.4899 504.239 14.0571 504.088 13.0142C504.087 13.0142 504.086 13.0142 504.084 13.0143C502.598 13.1262 501.113 13.2381 499.628 13.35C501.142 15.5688 498.086 14.9712 497.009 13.1592C496.598 13.6291 496.185 14.099 495.773 14.5688ZM504.245 16.4684C504.096 16.4206 500.869 16.8211 501.09 17.2686C501.529 17.5462 506.113 17.0803 504.245 16.4684ZM518.469 15.6047C517.309 15.6294 515.501 15.2359 514.89 16.1034C516.053 16.0788 517.859 16.4725 518.469 15.6047ZM458.66 16.9952C457.199 17.7316 461.757 17.8211 460.419 17.0281C460.353 16.9908 458.732 16.9608 458.66 16.9952ZM492.415 15.0811C490.887 14.2619 491.67 16.9754 492.766 16.2345C492.83 16.1909 492.485 15.1184 492.415 15.0811ZM3.38802 21.8528C3.48445 21.1817 7.58188 21.6228 8.30692 21.6134C7.89846 22.2373 3.278 22.6204 3.38802 21.8528ZM520.448 13.0473C518.074 10.7007 515.012 13.5623 514.665 13.5106C514.321 13.4576 514.831 12.3915 514.752 12.3653C514.572 12.3109 510.932 12.4941 510.758 12.5719C510.633 12.6323 511.33 14.0936 510.591 14.5789C512.034 13.7007 518.71 14.0527 519.049 13.88C519.313 13.7422 517.256 12.2421 520.443 13.0474C520.445 13.0474 520.446 13.0474 520.448 13.0473ZM513.797 13.2108C514.723 13.8068 512.173 13.9509 511.549 13.7383C510.164 13.2622 513.678 13.1404 513.797 13.2108ZM507.646 12.7994C507.353 12.668 504.718 12.6102 504.512 13.306C505.782 14.1686 508.316 13.1061 507.646 12.7994ZM478.389 13.6524C477.711 13.7584 475.816 13.2769 475.724 13.8826C476.407 13.7769 478.298 14.2581 478.389 13.6524ZM17.3317 16.5128C16.1859 16.0118 18.8363 15.7972 19.6103 16.0375C19.6532 16.4396 17.4292 16.5556 17.3317 16.5128ZM492.01 9.32283C491.601 9.15003 483.365 9.82165 482.214 10.134C483.359 10.5606 491.534 10.3834 491.899 10.1512C492.006 10.0818 492.062 9.35034 492.01 9.32283ZM509.844 8.5805C510.577 7.67299 511.098 8.72496 511.194 8.73585C512.133 8.84735 514.068 8.59663 513.665 9.46281C512.004 9.16084 508.385 10.3828 509.844 8.5805ZM477.7 9.65016C474.908 10.0522 480.309 10.8482 479.58 9.93849C479.533 9.88356 477.988 9.60808 477.7 9.65016ZM492.925 9.04017C493.526 8.30669 501.791 8.71091 503.117 8.67744C501.965 10.0315 500.982 9.05137 499.391 9.16028C498.961 9.19122 499.09 9.73872 499.044 9.74079C498.301 9.78565 498.841 9.13537 498.382 9.13766C498.095 9.14079 492.081 10.0736 492.925 9.04017ZM510.26 7.95421C510.707 7.43329 515.856 7.08208 516.068 7.21191C517.646 8.17741 510.663 8.12101 510.26 7.95421ZM492.137 7.88344C492.984 6.32258 497.112 7.24585 494.325 8.08546C494.059 8.16217 492.907 7.52504 492.137 7.88344ZM477.96 8.17801C477.824 8.1363 474.891 7.90464 474.852 8.39528C475.28 8.57448 479.541 8.63482 477.96 8.17801ZM479.43 6.48404C479.36 6.4976 480.068 7.42227 478.697 7.3383C478.583 7.33003 478.344 6.2752 476.633 6.70794C476.285 6.79693 475.761 7.51238 475.802 7.55496C477.641 9.17242 482.948 5.84582 479.43 6.48404ZM510.332 7.09264C510.042 6.65233 510.677 5.30655 511.299 5.96353C511.565 6.24726 511.103 7.05702 510.332 7.09264ZM468.689 7.98808C470.365 7.13863 465.033 7.12401 464.765 7.33721C464.949 7.83462 468.524 8.0711 468.689 7.98808ZM19.9955 10.2844C19.9941 10.2844 19.9928 10.2844 19.9914 10.2844C21.4341 10.4637 20.5421 11.1362 20.6099 11.1571C23.6809 12.1356 22.8642 10.6193 23.3441 10.4392C24.3731 10.0503 24.2093 11.8968 25.9448 11.1298C23.0759 12.2629 25.6878 11.7865 25.7695 12.4435C26.0934 15.1237 21.9486 11.192 20.518 11.7579C20.3189 11.8361 21.7922 12.6886 21.282 12.9331C19.6256 13.7245 14.4577 9.60162 19.9955 10.2844ZM511.762 5.83424C512.403 5.02983 517.453 5.66232 516.136 6.34555C515.923 6.45514 510.817 7.00699 511.762 5.83424ZM277.097 10.4179C278.287 9.71099 275.479 8.96941 274.974 9.51056C274.723 9.7802 276.574 10.7282 277.097 10.4179ZM257.445 7.91084C256.011 8.07832 254.553 10.9501 256.332 10.4731C256.521 10.421 257.619 8.30159 257.445 7.91084ZM351.605 7.27001C350.082 6.29056 350.217 8.17484 351.316 8.12193C351.704 8.10354 351.653 7.30101 351.605 7.27001ZM294.468 8.83056C294.316 8.76803 292.592 8.92643 292.665 9.3586C293.308 9.60478 295.445 9.2613 294.468 8.83056ZM352.075 6.99013C351.194 7.35139 352.756 8.6792 353.813 7.3197C353.263 7.44233 352.165 6.95321 352.075 6.99013ZM488.934 3.79516C488.211 4.58902 486.101 4.40959 484.894 4.57412C484.738 3.574 488.077 3.99948 488.934 3.79516ZM263.545 8.92889C262.2 9.66426 265.125 10.1833 264.839 9.25382C264.8 9.20382 263.597 8.89764 263.545 8.92889ZM399.918 5.71534C398.945 6.33866 402.102 7.06526 401.213 6.03467C401.17 5.9928 399.972 5.68069 399.918 5.71534ZM413.61 5.71834C412.856 5.53533 409.67 5.67773 410.925 6.2305C411.12 6.31541 413.568 6.26807 413.61 5.71834ZM23.4282 9.71639C23.0191 8.68565 25.3855 8.92822 25.7244 9.10841C25.8572 9.18317 23.9613 11.0571 23.4282 9.71639ZM341.875 7.34031C341.103 7.48765 339.089 7.28994 338.749 7.83907C339.692 7.70486 342.156 8.41163 341.875 7.34031ZM269.729 8.79556C268.524 7.70003 266.514 7.85243 267.042 9.30582C269.264 9.1614 266.737 7.99603 269.729 8.79556ZM357.036 5.6646C356.413 5.59408 355.972 7.01111 356.043 7.07565C356.73 7.68952 357.666 6.19664 357.036 5.6646ZM310.447 7.91202C310.399 7.31212 308.415 7.62973 308.688 8.01038C308.781 8.13817 310.487 8.3975 310.447 7.91202ZM462.823 4.12927C461.896 3.60459 464.671 2.99664 465.513 3.61534C465.938 4.52724 462.94 4.18929 462.823 4.12927ZM374.277 5.59767C374.349 4.70397 371.248 5.28408 372.494 5.99297C372.808 6.17029 374.251 5.89656 374.277 5.59767ZM404.056 3.78984C401.993 4.90533 410.787 5.43973 408.448 4.17294C408.279 4.08276 404.235 3.69557 404.056 3.78984ZM418.4 4.09293C418.036 3.98492 418.14 0.985001 419.663 2.10225C419.863 2.24708 418.966 3.06213 419.131 3.23918C419.231 3.33994 422.477 3.67868 422.626 3.60492C422.784 3.52144 422.571 2.56619 422.731 2.45437C422.911 2.32938 424.928 3.1221 425.975 3.10472C427.947 3.07045 428.141 2.26591 428.302 2.25916C428.774 2.24186 429.579 2.78911 430.532 2.76416C435.337 2.6355 442.676 1.77001 446.536 3.36624C443.118 2.7731 439.917 3.57733 436.539 3.88585C437.485 2.19267 431.603 5.29781 435.038 3.28428C433.445 3.74299 419.59 4.42911 418.404 4.09282C418.403 4.09286 418.401 4.09289 418.4 4.09293ZM251.765 7.18526C252.62 6.14498 248.129 6.46469 247.758 7.65567C248.367 7.80799 251.656 7.30349 251.765 7.18526ZM272.553 4.26246C272.967 4.07709 273.337 2.06921 275.547 3.03677C275.549 3.03673 275.551 3.03669 275.553 3.03665C276.201 3.31915 275.48 3.82181 275.601 3.99291C275.645 4.0629 277.669 5.01491 276.009 5.21016C273.481 5.50924 275.739 3.7279 274.388 3.73532C274.223 3.73722 271.674 4.87363 271.829 5.10798C271.845 5.13534 272.613 4.89014 272.743 4.98618C273.234 5.34717 273.012 5.97645 273.081 6.00473C273.312 6.07611 277.331 4.92686 277.942 5.84307C278.14 6.13874 271.504 6.97055 271.237 6.8201C271.07 6.72541 271.103 4.99094 270.93 4.82407C270.84 4.74107 268.178 5.44645 267.828 5.29429C267.727 5.2503 267.649 5.20223 267.592 5.16247C268.006 5.69026 265.59 5.70186 265.65 5.09535C265.689 4.85669 267.353 4.95981 267.414 5.0001C267.441 5.01716 267.464 5.04094 267.485 5.05723C267.124 4.41122 272.773 4.32241 271.534 3.37547C273.163 2.80825 271.331 4.80692 272.553 4.26246ZM280.4 3.02613C280.235 3.21202 280.069 3.3979 279.904 3.58378C282.775 3.07605 286.081 3.88244 289.392 3.80366C290.232 3.78499 289.241 2.69145 290.349 2.97199C291.238 3.19678 292.234 4.2093 291.762 4.45029C291.647 4.51036 289.834 3.87633 288.938 3.96498C286.292 4.22726 286.984 5.16848 286.829 5.19769C286.658 5.22859 284.979 4.59245 284.073 4.64194C281.795 4.76846 280.746 5.37821 277.608 4.67799C279.398 4.00956 278.38 2.66209 280.4 3.02613ZM387.358 2.56959C387.452 1.96529 389.344 2.4525 390.026 2.34716C389.933 2.95293 388.038 2.46429 387.358 2.56959ZM108.488 5.60601C107.902 6.58914 112.227 6.86683 111.093 6.03622C110.843 5.85193 109.03 5.61728 108.488 5.60601ZM127.859 6.34247C128.436 6.07297 126.123 5.34779 126.123 6.11204C126.125 6.35719 127.784 6.37757 127.859 6.34247ZM317.491 3.17514C317.602 3.14167 319.194 3.3252 319.244 3.37428C320.323 4.39843 315.072 3.91248 317.491 3.17514ZM151.36 5.22976C149.352 5.8724 155.393 6.16666 153.548 5.33724C153.456 5.29695 151.456 5.19863 151.36 5.22976ZM159.741 5.06298C159.259 5.09741 157.129 4.77353 157.101 5.07475C157.057 5.56098 159.497 5.89594 159.741 5.06298ZM357.365 1.92498C357.105 0.818233 359.953 1.5925 360.935 1.42857C361.195 2.53609 358.343 1.76091 357.365 1.92498ZM339.492 1.53049C351.402 0.37096 348.832 2.81022 338.795 2.08908C338.764 1.37578 338.742 1.60345 339.492 1.53049ZM354.769 1.29871C354.357 2.02165 352.99 1.843 352.073 1.80782C352.225 1.30845 354.115 1.44257 354.769 1.29871ZM103.36 4.03712C104.118 3.14276 107.41 4.2789 106.821 4.64567C106.682 4.72486 103.086 4.5302 103.36 4.03712ZM318.469 2.2003C318.166 1.12486 321.749 1.48409 322.029 1.71796C323.155 2.65896 318.75 1.95502 318.469 2.2003ZM374.27 0.561966C374.88 -0.300846 376.685 0.091011 377.841 0.0738602C377.333 0.811363 375.248 0.553276 374.27 0.561966ZM365.914 0.101479C365.985 0.0672073 367.597 0.104572 367.67 0.141815C369.009 0.937386 364.45 0.836132 365.914 0.101479ZM17.9712 2.14986C18.0255 2.12233 19.2621 2.17294 19.3052 2.20475C20.4107 3.01548 16.7001 2.8596 17.9712 2.14986Z" fill="#141B4D"/>
</svg>
