<svg width="65" height="16" viewBox="0 0 65 16" fill="none" xmlns="http://www.w3.org/2000/svg">
<path d="M39.8794 3.67438L37.0331 0.358125C36.9393 0.24599 36.8219 0.155806 36.6894 0.09393C36.5569 0.0320536 36.4125 -9.607e-06 36.2662 2.15922e-09H26C25.7348 2.15922e-09 25.4804 0.105357 25.2929 0.292893C25.1054 0.48043 25 0.734784 25 1V8C25 8.26522 25.1054 8.51957 25.2929 8.70711C25.4804 8.89464 25.7348 9 26 9H27.0625C27.1727 9.43021 27.4229 9.81152 27.7737 10.0838C28.1245 10.3561 28.5559 10.5039 29 10.5039C29.4441 10.5039 29.8755 10.3561 30.2263 10.0838C30.5771 9.81152 30.8273 9.43021 30.9375 9H34.0625C34.1727 9.43021 34.4229 9.81152 34.7737 10.0838C35.1245 10.3561 35.5559 10.5039 36 10.5039C36.4441 10.5039 36.8755 10.3561 37.2263 10.0838C37.5771 9.81152 37.8273 9.43021 37.9375 9H39C39.2652 9 39.5196 8.89464 39.7071 8.70711C39.8946 8.51957 40 8.26522 40 8V4C40 3.88053 39.9572 3.76502 39.8794 3.67438ZM38.4119 3.5H35V1H36.2662L38.4119 3.5ZM30.5 3.5V1H34V3.5H30.5ZM29.5 1V3.5H26V1H29.5ZM29 9.5C28.8022 9.5 28.6089 9.44135 28.4444 9.33147C28.28 9.22159 28.1518 9.06541 28.0761 8.88268C28.0004 8.69996 27.9806 8.49889 28.0192 8.30491C28.0578 8.11093 28.153 7.93275 28.2929 7.79289C28.4327 7.65304 28.6109 7.5578 28.8049 7.51921C28.9989 7.48063 29.2 7.50043 29.3827 7.57612C29.5654 7.65181 29.7216 7.77998 29.8315 7.94443C29.9414 8.10888 30 8.30222 30 8.5C30 8.76522 29.8946 9.01957 29.7071 9.20711C29.5196 9.39464 29.2652 9.5 29 9.5ZM36 9.5C35.8022 9.5 35.6089 9.44135 35.4444 9.33147C35.28 9.22159 35.1518 9.06541 35.0761 8.88268C35.0004 8.69996 34.9806 8.49889 35.0192 8.30491C35.0578 8.11093 35.153 7.93275 35.2929 7.79289C35.4327 7.65304 35.6109 7.5578 35.8049 7.51921C35.9989 7.48063 36.2 7.50043 36.3827 7.57612C36.5654 7.65181 36.7216 7.77998 36.8315 7.94443C36.9414 8.10888 37 8.30222 37 8.5C37 8.76522 36.8946 9.01957 36.7071 9.20711C36.5196 9.39464 36.2652 9.5 36 9.5ZM37.9375 8C37.8273 7.56979 37.5771 7.18848 37.2263 6.91618C36.8755 6.64388 36.4441 6.49608 36 6.49608C35.5559 6.49608 35.1245 6.64388 34.7737 6.91618C34.4229 7.18848 34.1727 7.56979 34.0625 8H30.9375C30.8273 7.56979 30.5771 7.18848 30.2263 6.91618C29.8755 6.64388 29.4441 6.49608 29 6.49608C28.5559 6.49608 28.1245 6.64388 27.7737 6.91618C27.4229 7.18848 27.1727 7.56979 27.0625 8H26V4.5H39V8H37.9375Z" fill="#66A3FF"/>
<line x1="4.5" y1="12.8359" x2="60.5" y2="12.8359" stroke="#D1D5DB" stroke-dasharray="5 5"/>
<path d="M62.3906 11.0039C63.5761 11.0039 64.5 11.9193 64.5 13.0039C64.5 14.0885 63.5761 15.0039 62.3906 15.0039C61.2052 15.0038 60.2812 14.0884 60.2812 13.0039C60.2812 11.9194 61.2052 11.004 62.3906 11.0039Z" stroke="#66A3FF"/>
<path d="M2.58984 11.1699C3.76037 11.1701 4.67871 12.0819 4.67871 13.1699C4.67871 14.258 3.76037 15.1697 2.58984 15.1699C1.41914 15.1699 0.5 14.2581 0.5 13.1699C0.5 12.0818 1.41914 11.1699 2.58984 11.1699Z" stroke="#66A3FF"/>
</svg>
