<svg width="130" height="116" viewBox="0 0 130 116" fill="none" xmlns="http://www.w3.org/2000/svg">
<path d="M128.99 105.245V81.3552C128.99 81.2952 128.99 81.2352 128.98 81.1752V81.1452C128.79 78.4452 126.69 76.4152 123.94 76.3252H5.10049C2.43049 76.3952 0.28049 78.3652 0.06049 81.0552C-0.06951 82.7852 0.0504879 84.5752 0.0504879 86.3152V105.325C0.0504879 105.835 0.0404879 106.355 0.0504879 106.855C0.200488 109.575 2.40049 111.595 5.09049 111.675C5.63049 111.685 6.18049 111.675 6.70049 111.675H12.1805V113.055C12.1805 114.595 13.5305 116.065 15.1205 115.995C16.7105 115.925 18.0605 114.705 18.0605 113.055V111.675H110.96V113.055C110.96 114.595 112.31 116.065 113.9 115.995C115.49 115.925 116.84 114.705 116.84 113.055V111.675H122.36C122.89 111.675 123.42 111.685 123.95 111.675C126.75 111.605 128.9 109.455 128.99 106.655C129.03 106.185 129.02 105.715 129.02 105.245H128.99ZM71.1205 98.2752C71.1205 98.4952 71.0505 98.6552 70.9105 98.7752H70.9005C70.9005 98.7752 70.9005 98.8052 70.8905 98.8052C70.7705 98.9252 70.6105 99.0152 70.3905 99.0152H70.3005C69.6005 99.0552 68.8605 99.0152 68.1405 99.0152H15.4705C15.0705 99.0152 14.7405 98.6752 14.7405 98.2852V89.7252C14.7405 89.3252 15.0805 88.9952 15.4705 88.9952H15.5605C16.2605 88.9552 17.0005 88.9952 17.7205 88.9952H70.3905C70.7905 88.9952 71.1205 89.3352 71.1205 89.7252V98.2852V98.2752ZM98.3105 94.1052C98.2105 96.4252 96.5805 98.4952 94.2305 98.9052C92.1905 99.2552 90.1005 98.3452 89.0305 96.5552C87.9605 94.7652 88.1605 92.4452 89.4705 90.8452C90.8105 89.2152 93.1105 88.5952 95.0805 89.3452C96.9905 90.0752 98.2205 91.8752 98.3005 93.8952V93.9952C98.3005 93.9952 98.3105 94.0652 98.3105 94.0952V94.1052ZM115.27 94.1052C115.17 96.4252 113.54 98.4952 111.19 98.9052C109.15 99.2552 107.06 98.3452 105.99 96.5552C104.92 94.7652 105.12 92.4452 106.43 90.8452C107.77 89.2152 110.07 88.5952 112.04 89.3452C113.95 90.0752 115.17 91.8752 115.27 93.8952V94.1052Z" fill="#5175FF"/>
<path d="M95.0404 14.3154C88.4904 6.82537 79.2105 1.77536 69.3605 0.415365C59.1405 -1.00464 48.5704 1.22537 39.9505 6.96537C31.6105 12.5154 25.3705 20.9254 22.6005 30.5554C19.3805 41.7154 20.9705 54.0454 26.9505 63.9954C27.6805 65.2254 28.4905 66.4154 29.3605 67.5654C30.2305 68.7154 31.1505 70.3654 32.7205 70.4554C32.9805 70.4654 33.2505 70.4554 33.5005 70.4554H92.2505C92.7104 70.4554 93.1604 70.4654 93.6204 70.4554H93.8505C95.4205 70.3854 96.3605 68.6954 97.2105 67.5654C100.81 62.8054 103.38 57.2054 104.62 51.3554C105.27 48.3754 105.59 45.3354 105.6 42.2854C105.57 32.0054 101.8 22.0554 95.0304 14.3154H95.0404ZM75.2205 42.3154V42.4354C75.1005 47.9254 71.1705 52.9654 65.6805 54.0054C60.7205 54.9454 55.6205 52.7854 53.0105 48.4154C50.3805 44.0254 50.9805 38.4654 54.1805 34.5754C57.2605 30.8354 62.7505 29.3754 67.2905 31.0654C71.9705 32.8154 75.1105 37.1854 75.2205 42.1954V42.3154Z" fill="#549CFE"/>
<path d="M72.5105 87.8457H13.5005V99.2457H72.5105V87.8457Z" fill="#F4E71D"/>
</svg>
