<svg width="60" height="60" viewBox="0 0 60 60" fill="none" xmlns="http://www.w3.org/2000/svg">
<path d="M26.5385 49.4922H7.98047V52.3992H26.5385V49.4922Z" fill="#8E8E8E"/>
<path d="M8.70338 45.0664H7.31738V57.4834H8.70338V45.0664Z" fill="#CCCCCC"/>
<path d="M27.4622 45.0664H26.0762V57.4834H27.4622V45.0664Z" fill="#CCCCCC"/>
<path d="M9.30316 56.959H6.66016V57.865H9.30316V56.959Z" fill="#8E8E8E"/>
<path d="M28.0561 56.959H25.4131V57.865H28.0561V56.959Z" fill="#8E8E8E"/>
<path d="M52.8905 49.4922H34.3325V52.3992H52.8905V49.4922Z" fill="#8E8E8E"/>
<path d="M35.0584 45.0664H33.6724V57.4834H35.0584V45.0664Z" fill="#CCCCCC"/>
<path d="M53.8142 45.0664H52.4282V57.4834H53.8142V45.0664Z" fill="#CCCCCC"/>
<path d="M35.6552 56.959H33.0122V57.865H35.6552V56.959Z" fill="#8E8E8E"/>
<path d="M54.4111 56.959H51.7681V57.865H54.4111V56.959Z" fill="#8E8E8E"/>
<path d="M51.4319 4.20972C51.3929 3.05772 50.4509 2.13672 49.2899 2.13672H38.0609C36.8999 2.13672 35.9579 3.05772 35.9189 4.20972C33.7529 4.76472 32.1509 6.73272 32.1509 9.07272V37.2727H55.1999V9.07272C55.1999 6.73272 53.5979 4.76772 51.4319 4.20972Z" fill="#263ADC"/>
<mask id="mask0_4807_13023" style="mask-type:luminance" maskUnits="userSpaceOnUse" x="32" y="2" width="24" height="36">
<path d="M51.4319 4.20972C51.3929 3.05772 50.4509 2.13672 49.2899 2.13672H38.0609C36.8999 2.13672 35.9579 3.05772 35.9189 4.20972C33.7529 4.76472 32.1509 6.73272 32.1509 9.07272V37.2727H55.1999V9.07272C55.1999 6.73272 53.5979 4.76772 51.4319 4.20972Z" fill="white"/>
</mask>
<g mask="url(#mask0_4807_13023)">
<path d="M48.6511 0.425781H38.5681C37.5044 0.425781 36.6421 1.28808 36.6421 2.35178V6.47678C36.6421 7.54048 37.5044 8.40278 38.5681 8.40278H48.6511C49.7148 8.40278 50.5771 7.54048 50.5771 6.47678V2.35178C50.5771 1.28808 49.7148 0.425781 48.6511 0.425781Z" fill="white"/>
</g>
<path d="M55.2656 32.1397H58.5236V43.3147C58.5236 44.4397 57.6086 45.3547 56.4836 45.3547H55.2656V32.1367V32.1397Z" fill="#CCCCCC"/>
<path d="M58.6407 32.5911H54.3657V29.8671C54.3657 29.1561 54.9417 28.5801 55.6527 28.5801H58.1307C58.8417 28.5801 58.6407 29.1561 58.6407 29.8671V32.5911Z" fill="#8E8E8E"/>
<mask id="mask1_4807_13023" style="mask-type:luminance" maskUnits="userSpaceOnUse" x="54" y="28" width="5" height="5">
<path d="M55.6557 28.5762H58.6407V32.5872H54.3657V29.8632C54.3657 29.1522 54.9417 28.5762 55.6527 28.5762H55.6557Z" fill="white"/>
</mask>
<g mask="url(#mask1_4807_13023)">
<path d="M58.848 28.2461H54.252V30.6821H58.848V28.2461Z" fill="#002C2B"/>
</g>
<path d="M24.948 4.20972C24.909 3.05772 23.967 2.13672 22.806 2.13672H11.577C10.416 2.13672 9.47399 3.05772 9.43499 4.20972C7.26899 4.76472 5.66699 6.73272 5.66699 9.07272V37.2727H28.716V9.07272C28.716 6.73272 27.114 4.76772 24.948 4.20972Z" fill="#263ADC"/>
<mask id="mask2_4807_13023" style="mask-type:luminance" maskUnits="userSpaceOnUse" x="5" y="2" width="24" height="36">
<path d="M24.948 4.20972C24.909 3.05772 23.967 2.13672 22.806 2.13672H11.577C10.416 2.13672 9.47399 3.05772 9.43499 4.20972C7.26899 4.76472 5.66699 6.73272 5.66699 9.07272V37.2727H28.716V9.07272C28.716 6.73272 27.114 4.76772 24.948 4.20972Z" fill="white"/>
</mask>
<g mask="url(#mask2_4807_13023)">
<path d="M22.1672 0.425781H12.0842C11.0205 0.425781 10.1582 1.28808 10.1582 2.35178V6.47678C10.1582 7.54048 11.0205 8.40278 12.0842 8.40278H22.1672C23.2309 8.40278 24.0932 7.54048 24.0932 6.47678V2.35178C24.0932 1.28808 23.2309 0.425781 22.1672 0.425781Z" fill="white"/>
</g>
<path d="M32.0368 32.1406H28.7788V45.3586H32.0368V32.1406Z" fill="#CCCCCC"/>
<path d="M32.9338 32.5911H27.8818V29.8671C27.8818 29.1561 28.4578 28.5801 29.1688 28.5801H31.6468C32.3578 28.5801 32.9338 29.1561 32.9338 29.8671V32.5911Z" fill="#8E8E8E"/>
<mask id="mask3_4807_13023" style="mask-type:luminance" maskUnits="userSpaceOnUse" x="27" y="28" width="6" height="5">
<path d="M29.1718 28.5762H31.6498C32.3608 28.5762 32.9368 29.1522 32.9368 29.8632V32.5872H27.8848V29.8632C27.8848 29.1522 28.4608 28.5762 29.1718 28.5762Z" fill="white"/>
</mask>
<g mask="url(#mask3_4807_13023)">
<path d="M33.1436 28.2461H27.7676V30.6821H33.1436V28.2461Z" fill="#002C2B"/>
</g>
<path d="M5.487 32.1406H2.229V45.3586H5.487V32.1406Z" fill="#CCCCCC"/>
<path d="M6.38403 32.5911H1.33203V29.8671C1.33203 29.1561 1.90803 28.5801 2.61903 28.5801H5.09703C5.80803 28.5801 6.38403 29.1561 6.38403 29.8671V32.5911Z" fill="#8E8E8E"/>
<mask id="mask4_4807_13023" style="mask-type:luminance" maskUnits="userSpaceOnUse" x="1" y="28" width="6" height="5">
<path d="M2.61903 28.5762H5.09703C5.80803 28.5762 6.38403 29.1522 6.38403 29.8632V32.5872H1.33203V29.8632C1.33203 29.1522 1.90803 28.5762 2.61903 28.5762Z" fill="white"/>
</mask>
<g mask="url(#mask4_4807_13023)">
<path d="M6.59084 28.2461H1.21484V30.6821H6.59084V28.2461Z" fill="#002C2B"/>
</g>
<path d="M27.1082 36.7832H7.27521C5.31184 36.7832 3.72021 38.3748 3.72021 40.3382V42.2762C3.72021 44.2396 5.31184 45.8312 7.27521 45.8312H27.1082C29.0716 45.8312 30.6632 44.2396 30.6632 42.2762V40.3382C30.6632 38.3748 29.0716 36.7832 27.1082 36.7832Z" fill="#569BFF"/>
<path d="M53.595 36.7832H33.762C31.7987 36.7832 30.207 38.3748 30.207 40.3382V42.2762C30.207 44.2396 31.7987 45.8312 33.762 45.8312H53.595C55.5584 45.8312 57.15 44.2396 57.15 42.2762V40.3382C57.15 38.3748 55.5584 36.7832 53.595 36.7832Z" fill="#569BFF"/>
</svg>
