<svg width="60" height="60" viewBox="0 0 60 60" fill="none" xmlns="http://www.w3.org/2000/svg">
<path opacity="0.53" d="M31.2121 43.5169C45.37 43.5169 56.8471 42.609 56.8471 41.4889C56.8471 40.3689 45.37 39.4609 31.2121 39.4609C17.0543 39.4609 5.57715 40.3689 5.57715 41.4889C5.57715 42.609 17.0543 43.5169 31.2121 43.5169Z" fill="#A386D1"/>
<path d="M48.7619 31.4297H9.9209V39.8687H48.7619V31.4297Z" fill="#383838"/>
<path d="M41.148 20.8431V28.8711C41.055 28.7991 40.914 28.7601 40.725 28.7601H7.28704V22.4541H7.13404V38.8641C7.05304 38.8851 6.97804 38.9121 6.90604 38.9451C6.37204 38.6721 5.97904 38.4051 5.75704 38.2581C5.21704 37.9011 5.09704 37.7871 5.09704 37.0251C5.09704 36.6231 5.05504 26.3511 5.04004 22.3101C5.04004 21.6561 5.42704 21.0921 5.98804 20.8431C6.18904 20.7531 6.41104 20.7051 6.64504 20.7051L41.148 20.8431Z" fill="#334DFA"/>
<path d="M55.8058 37.1544C55.8058 38.0184 55.7398 38.7144 55.5538 39.1854C55.5538 39.1914 55.5508 39.1944 55.5478 39.1974C55.5358 39.2274 55.5238 39.2604 55.5088 39.2874C55.5028 39.2994 55.4968 39.3144 55.4908 39.3234C55.3078 39.6894 55.0288 39.8874 54.6208 39.8874H47.8768V39.2544C47.8768 39.1524 47.8738 39.0504 47.8648 38.9514C47.8618 38.9004 47.8558 38.8494 47.8498 38.7984C47.6248 36.7434 45.8848 35.1444 43.7698 35.1444C42.8428 35.1444 41.9878 35.4534 41.3008 35.9694C41.2738 35.9904 41.2498 36.0084 41.2258 36.0324C41.2018 36.0474 41.1808 36.0654 41.1598 36.0834C40.3558 36.7464 39.8068 37.7064 39.6898 38.7984C39.6838 38.8494 39.6778 38.9004 39.6748 38.9514C39.6658 39.0504 39.6628 39.1524 39.6628 39.2544C39.6628 39.2664 39.6628 39.2754 39.6628 39.2874V39.8874H20.2018V39.2544C20.2018 39.1524 20.1988 39.0504 20.1898 38.9514C20.1868 38.9004 20.1808 38.8494 20.1748 38.7984C19.9498 36.7434 18.2098 35.1444 16.0948 35.1444C13.9798 35.1444 12.2368 36.7434 12.0118 38.7984V38.8044C12.0118 38.8164 12.0088 38.8284 12.0088 38.8404C12.0058 38.8674 12.0028 38.8944 12.0028 38.9214C12.0028 38.9304 11.9998 38.9394 11.9998 38.9484C11.9908 39.0474 11.9878 39.1494 11.9878 39.2514V39.8844H10.6708C9.20383 39.8844 7.97683 39.4614 7.09183 39.0324C7.02883 39.0024 6.96283 38.9694 6.90283 38.9394C6.97483 38.9064 7.04983 38.8824 7.13083 38.8584V22.4484H7.28383V28.7544H40.7218C40.9078 28.7544 41.0488 28.7904 41.1448 28.8654V20.8374L51.1588 20.6934C51.4468 20.6934 51.7258 20.7444 51.9808 20.8374C52.2808 20.9454 52.5538 21.1134 52.7848 21.3264C52.8388 21.3744 52.8868 21.4254 52.9348 21.4764C53.3248 21.9024 53.5618 22.4694 53.5618 23.0934V23.1174C53.8348 25.4034 54.6928 27.3714 54.9388 28.6014C55.6498 32.1504 55.8058 35.4474 55.8058 37.1454V37.1544Z" fill="#334DFA"/>
<path d="M55.8062 37.155C55.8062 37.959 55.7492 38.613 55.5932 39.084C55.4162 39.606 55.1132 39.894 54.6212 39.894H47.8772V39.261C47.8772 36.993 46.0382 35.154 43.7702 35.154C41.5022 35.154 39.6632 36.993 39.6632 39.261C39.6632 39.273 39.6632 39.282 39.6632 39.294V39.894H20.2052V39.261C20.2052 36.993 18.3662 35.154 16.0982 35.154C13.8302 35.154 11.9912 36.993 11.9912 39.261V39.894H10.6742C8.16316 39.894 6.35416 38.658 5.75716 38.262C5.22016 37.905 5.09716 37.791 5.09716 37.029C5.09716 36.99 5.09716 36.918 5.09716 36.813C5.08516 36.117 5.04616 34.029 5.07016 31.623H55.4312C55.7282 33.951 55.8092 35.955 55.8092 37.155H55.8062Z" fill="#334DFA"/>
<path d="M40.3023 29.5977H39.6993C39.5943 29.5977 39.5103 29.6817 39.5103 29.7867C39.5103 29.8917 39.5943 29.9757 39.6993 29.9757H40.3023C40.4073 29.9757 40.4913 29.8917 40.4913 29.7867C40.4913 29.6817 40.4073 29.5977 40.3023 29.5977Z" fill="url(#paint0_linear_4823_9144)"/>
<path d="M28.7642 29.9718H29.3672C29.4722 29.9718 29.5562 29.8877 29.5562 29.7827C29.5562 29.6777 29.4722 29.5938 29.3672 29.5938H28.7642C28.6592 29.5938 28.5752 29.6777 28.5752 29.7827C28.5752 29.8877 28.6592 29.9718 28.7642 29.9718Z" fill="url(#paint1_linear_4823_9144)"/>
<path d="M20.5264 29.7867C20.5264 29.6817 20.4424 29.5977 20.3374 29.5977H19.7344C19.6294 29.5977 19.5454 29.6817 19.5454 29.7867C19.5454 29.8917 19.6294 29.9757 19.7344 29.9757H20.3374C20.4424 29.9757 20.5264 29.8917 20.5264 29.7867Z" fill="url(#paint2_linear_4823_9144)"/>
<path d="M8.80518 29.9718C8.91018 29.9718 8.99418 29.8877 8.99418 29.7827C8.99418 29.6777 8.91018 29.5938 8.80518 29.5938H8.20218C8.09718 29.5938 8.01318 29.6777 8.01318 29.7827C8.01318 29.8877 8.09718 29.9718 8.20218 29.9718H8.80518Z" fill="url(#paint3_linear_4823_9144)"/>
<path d="M45.3903 21.6742V29.7262C45.3903 30.0142 45.5043 30.3082 45.5643 30.4492C45.5643 30.4552 45.5673 30.4582 45.5703 30.4642C45.9603 31.3762 46.1103 32.3362 47.0373 32.9452C49.2423 34.3912 55.7463 35.1472 55.7463 35.1502C55.7103 33.4312 55.4763 31.0912 54.9873 28.6432C54.5073 26.2342 54.0303 24.2842 53.5593 23.1262C51.4833 21.7642 48.1893 21.3262 47.1363 21.3262H45.7833C45.5853 21.3262 45.3843 21.3922 45.3843 21.6772L45.3903 21.6742Z" fill="url(#paint4_linear_4823_9144)"/>
<path d="M45.8638 21.3262V31.2322C46.1068 31.8862 46.3708 32.5102 47.0398 32.9452C48.2698 33.7492 50.8318 34.3432 52.8598 34.7092V22.7212C50.8078 21.6772 48.0808 21.3262 47.1388 21.3262H45.8608H45.8638Z" fill="#363636"/>
<path d="M52.8603 24.416H45.8643V25.085H52.8603V24.416Z" fill="#474747"/>
<path d="M45.8643 24.416H52.8603" stroke="#242424" stroke-width="0.41" stroke-miterlimit="10"/>
<path d="M45.8643 25.0859H52.8603" stroke="#242424" stroke-width="0.41" stroke-miterlimit="10"/>
<path d="M40.3198 39.2575C40.3198 41.1625 41.8648 42.7045 43.7668 42.7045C45.6688 42.7045 47.2138 41.1595 47.2138 39.2575C47.2138 37.3555 45.6688 35.8105 43.7668 35.8105C41.8648 35.8105 40.3198 37.3555 40.3198 39.2575Z" fill="#474747"/>
<path d="M41.8921 39.2578C41.8921 40.2928 42.7321 41.1328 43.7671 41.1328C44.8021 41.1328 45.6421 40.2928 45.6421 39.2578C45.6421 38.2228 44.8021 37.3828 43.7671 37.3828C42.7321 37.3828 41.8921 38.2228 41.8921 39.2578Z" fill="#828282"/>
<path d="M43.7672 39.9689C44.1598 39.9689 44.4781 39.6505 44.4781 39.2579C44.4781 38.8652 44.1598 38.5469 43.7672 38.5469C43.3745 38.5469 43.0562 38.8652 43.0562 39.2579C43.0562 39.6505 43.3745 39.9689 43.7672 39.9689Z" fill="#C9C9C9"/>
<path d="M43.9051 38.265L44.0431 38.028L43.9051 37.791H43.6321L43.4941 38.028L43.6321 38.265H43.9051Z" fill="#C9C9C9"/>
<path d="M44.6971 38.8803H44.9701L45.1081 38.6432L44.9701 38.4062H44.6971L44.5591 38.6432L44.6971 38.8803Z" fill="#C9C9C9"/>
<path d="M44.5591 39.8737L44.6971 40.1107H44.9701L45.1051 39.8737L44.9701 39.6367H44.6971L44.5591 39.8737Z" fill="#C9C9C9"/>
<path d="M43.6321 40.252L43.4941 40.489L43.6321 40.726H43.9051L44.0431 40.489L43.9051 40.252H43.6321Z" fill="#C9C9C9"/>
<path d="M42.8402 39.6367H42.5672L42.4292 39.8737L42.5672 40.1107H42.8402L42.9782 39.8737L42.8402 39.6367Z" fill="#C9C9C9"/>
<path d="M42.9781 38.6432L42.8401 38.4062H42.5671L42.4321 38.6432L42.5671 38.8803H42.8401L42.9781 38.6432Z" fill="#C9C9C9"/>
<path d="M12.6479 39.2575C12.6479 41.1625 14.1929 42.7045 16.0949 42.7045C17.9969 42.7045 19.5419 41.1595 19.5419 39.2575C19.5419 37.3555 17.9969 35.8105 16.0949 35.8105C14.1929 35.8105 12.6479 37.3555 12.6479 39.2575Z" fill="#474747"/>
<path d="M14.2197 39.2578C14.2197 40.2928 15.0597 41.1328 16.0947 41.1328C17.1297 41.1328 17.9697 40.2928 17.9697 39.2578C17.9697 38.2228 17.1297 37.3828 16.0947 37.3828C15.0597 37.3828 14.2197 38.2228 14.2197 39.2578Z" fill="#828282"/>
<path d="M15.3867 39.2579C15.3867 39.6509 15.7047 39.9689 16.0977 39.9689C16.4907 39.9689 16.8087 39.6509 16.8087 39.2579C16.8087 38.8649 16.4907 38.5469 16.0977 38.5469C15.7047 38.5469 15.3867 38.8649 15.3867 39.2579Z" fill="#C9C9C9"/>
<path d="M16.2328 38.265L16.3708 38.028L16.2328 37.791H15.9598L15.8218 38.028L15.9598 38.265H16.2328Z" fill="#C9C9C9"/>
<path d="M17.0247 38.8803H17.2977L17.4357 38.6432L17.2977 38.4062H17.0247L16.8867 38.6432L17.0247 38.8803Z" fill="#C9C9C9"/>
<path d="M16.8867 39.8737L17.0247 40.1107H17.2977L17.4357 39.8737L17.2977 39.6367H17.0247L16.8867 39.8737Z" fill="#C9C9C9"/>
<path d="M15.9598 40.252L15.8218 40.489L15.9598 40.726H16.2328L16.3708 40.489L16.2328 40.252H15.9598Z" fill="#C9C9C9"/>
<path d="M15.1678 39.6367H14.8948L14.7568 39.8737L14.8948 40.1107H15.1678L15.3058 39.8737L15.1678 39.6367Z" fill="#C9C9C9"/>
<path d="M15.3058 38.6432L15.1678 38.4062H14.8948L14.7598 38.6432L14.8948 38.8803H15.1678L15.3058 38.6432Z" fill="#C9C9C9"/>
<path d="M55.7669 35.6487C55.7669 35.6487 54.0089 35.3097 53.9399 35.4117C53.8739 35.5137 54.3389 37.2357 54.7259 37.5417C55.0499 37.7967 55.8059 38.0307 55.8059 38.0307C55.8059 38.0307 55.8599 36.4407 55.7669 35.6487Z" fill="#FFC72E"/>
<path d="M45.7861 31.0232C45.8371 31.1612 45.8851 31.2962 45.9391 31.4312V21.3242H45.7861V31.0232Z" fill="#242424"/>
<path d="M52.7852 22.6836V34.6956C52.8362 34.7046 52.8872 34.7136 52.9382 34.7226V22.7616C52.8872 22.7346 52.8362 22.7106 52.7852 22.6836Z" fill="#242424"/>
<path d="M5.72697 32.7773H5.07297C5.05197 35.0153 5.09697 36.7733 5.09697 37.0283C5.09697 37.1423 5.09997 37.2443 5.10597 37.3313H5.72997C5.88297 37.3313 5.93997 37.1963 5.93997 37.0523V33.1523C5.93997 32.8973 5.90097 32.7773 5.72397 32.7773H5.72697Z" fill="url(#paint5_linear_4823_9144)"/>
<path d="M44.628 34.2956C44.628 34.4246 44.523 34.5326 44.391 34.5326H43.446C43.314 34.5326 43.209 34.4276 43.209 34.2956C43.209 34.1636 43.314 34.0586 43.446 34.0586H44.391C44.523 34.0586 44.628 34.1636 44.628 34.2956Z" fill="#FFC72E"/>
<path d="M55.5932 39.0812C55.4162 39.6032 55.1132 39.8912 54.6212 39.8912H47.8772V39.2582C47.8772 36.9902 46.0382 35.1512 43.7702 35.1512C41.5022 35.1512 39.6632 36.9902 39.6632 39.2582C39.6632 39.2702 39.6632 39.2792 39.6632 39.2912V39.8912H20.2052V39.2582C20.2052 36.9902 18.3662 35.1512 16.0982 35.1512C13.8302 35.1512 11.9912 36.9902 11.9912 39.2582V39.8912H10.6742C8.16317 39.8912 6.35417 38.6552 5.75717 38.2592C5.22017 37.9022 5.09717 37.7882 5.09717 37.0262C5.09717 36.9872 5.09717 36.9152 5.09717 36.8102C6.36017 37.6172 8.37017 38.5862 10.8512 38.6942C10.8512 38.6942 11.3552 34.0742 16.2062 34.0742C21.0572 34.0742 21.3872 39.0812 21.3872 39.0812H38.7092C38.7092 39.0812 39.3422 34.2962 43.9172 34.2962C48.4922 34.2962 48.7622 39.0812 48.7622 39.0812H55.5902H55.5932Z" fill="#1E39BC"/>
<path d="M5.94294 23.1016V29.4886C5.94294 30.1606 6.51894 30.7066 7.22994 30.7066H23.3399V23.2726L5.93994 23.1016H5.94294Z" fill="#1A2E35"/>
<path d="M6.53418 23.6035V27.1975L7.47018 27.7735H14.4512V23.6095L6.53418 23.6035Z" fill="#385A65"/>
<path d="M15.084 28.3915V23.6035H22.911V30.1585L21.555 28.8775C21.222 28.5625 20.769 28.3855 20.298 28.3855L15.084 28.3945V28.3915Z" fill="#385A65"/>
<path d="M22.9742 24.082H6.53418V24.217H22.9742V24.082Z" fill="#1A2E35"/>
<path opacity="0.2" d="M14.4512 23.6035H6.53418V23.8135H14.4512V23.6035Z" fill="black"/>
<path opacity="0.2" d="M22.911 23.6035H15.084V23.8135H22.911V23.6035Z" fill="black"/>
<path d="M33.4411 23.2676H23.9941V38.2646H33.4411V23.2676Z" fill="#1A2E35"/>
<path d="M28.11 24.293H24.519V36.026H28.11V24.293Z" fill="#385A65"/>
<path d="M32.841 24.293H29.25V36.026H32.841V24.293Z" fill="#385A65"/>
<path d="M28.7012 23.2676C28.7012 23.2676 28.7252 26.6006 28.7252 30.7106C28.7252 34.8206 28.7132 38.1536 28.7012 38.1536C28.6892 38.1536 28.6772 34.8206 28.6772 30.7106C28.6772 26.6006 28.6892 23.2676 28.7012 23.2676Z" fill="#385A65"/>
<path opacity="0.2" d="M32.841 24.293H24.519V24.539H32.841V24.293Z" fill="black"/>
<path d="M44.6309 23.1895H34.0049V30.6205H44.6309V23.1895Z" fill="#1A2E35"/>
<path d="M39.0808 23.5371H34.2568V30.1851H39.0808V23.5371Z" fill="#385A65"/>
<path d="M44.322 23.5371H39.498V30.1851H44.322V23.5371Z" fill="#385A65"/>
<path d="M44.5441 24.1465H34.1641V24.2785H44.5441V24.1465Z" fill="#1A2E35"/>
<path opacity="0.2" d="M44.3218 23.5371H34.2568V23.7441H44.3218V23.5371Z" fill="black"/>
<path opacity="0.07" d="M6.53418 27.1975L14.4512 23.6035H6.53418V27.1975Z" fill="white"/>
<path opacity="0.07" d="M15.084 28.3915L22.911 23.6035H15.084V28.3915Z" fill="white"/>
<path opacity="0.07" d="M34.248 27.7221L39.081 23.5371H34.257L34.248 27.7221Z" fill="white"/>
<path opacity="0.07" d="M39.5998 23.6992L39.5908 27.8842L44.4238 23.6992" fill="white"/>
<path opacity="0.07" d="M24.519 24.2949H28.113L24.519 36.0279V24.2949Z" fill="white"/>
<path opacity="0.07" d="M29.271 35.8795V24.1465H32.862" fill="white"/>
<defs>
<linearGradient id="paint0_linear_4823_9144" x1="39.5073" y1="29.7867" x2="40.4883" y2="29.7867" gradientUnits="userSpaceOnUse">
<stop stop-color="#545454"/>
<stop offset="1" stop-color="#404040"/>
</linearGradient>
<linearGradient id="paint1_linear_4823_9144" x1="28.5752" y1="29.7858" x2="29.5562" y2="29.7858" gradientUnits="userSpaceOnUse">
<stop stop-color="#545454"/>
<stop offset="1" stop-color="#404040"/>
</linearGradient>
<linearGradient id="paint2_linear_4823_9144" x1="19.5454" y1="29.7867" x2="20.5264" y2="29.7867" gradientUnits="userSpaceOnUse">
<stop stop-color="#545454"/>
<stop offset="1" stop-color="#404040"/>
</linearGradient>
<linearGradient id="paint3_linear_4823_9144" x1="8.01318" y1="29.7858" x2="8.99118" y2="29.7858" gradientUnits="userSpaceOnUse">
<stop stop-color="#545454"/>
<stop offset="1" stop-color="#404040"/>
</linearGradient>
<linearGradient id="paint4_linear_4823_9144" x1="45.7053" y1="28.2352" x2="52.6083" y2="28.2352" gradientUnits="userSpaceOnUse">
<stop stop-color="#545454"/>
<stop offset="1" stop-color="#404040"/>
</linearGradient>
<linearGradient id="paint5_linear_4823_9144" x1="5.50497" y1="32.8703" x2="5.50497" y2="37.4183" gradientUnits="userSpaceOnUse">
<stop stop-color="#F7EB40"/>
<stop offset="1" stop-color="#F79102"/>
</linearGradient>
</defs>
</svg>
