<svg width="60" height="60" viewBox="0 0 60 60" fill="none" xmlns="http://www.w3.org/2000/svg">
<path d="M21.1231 14.5316C21.0841 14.1206 21.3721 13.7576 21.7591 13.7186C21.7621 13.7186 21.7681 13.7186 21.7711 13.7186L21.3481 9.09559C21.2341 7.83559 20.1691 6.90859 18.9721 7.02559L3.54607 8.54959C2.34907 8.66659 1.47307 9.78559 1.59007 11.0456L2.01307 15.6686C2.39707 15.6386 2.73607 15.9386 2.77207 16.3436C2.80807 16.7486 2.53207 17.1086 2.14807 17.1536L4.77907 45.9446C4.89307 47.2046 5.95807 48.1316 7.15507 48.0146L22.5871 46.4936C23.7841 46.3766 24.6601 45.2576 24.5431 43.9976L21.9121 15.2066C21.9121 15.2066 21.9031 15.2066 21.9001 15.2066C21.5101 15.2456 21.1651 14.9426 21.1261 14.5346L21.1231 14.5316Z" fill="#549CFE"/>
<path d="M3.72323 16.3895L3.04523 16.4555C2.98823 16.4615 2.93723 16.4165 2.93123 16.3565C2.92523 16.2965 2.96723 16.2425 3.02423 16.2365L3.70223 16.1705C3.75923 16.1645 3.81023 16.2095 3.81623 16.2695C3.82223 16.3295 3.78023 16.3835 3.72323 16.3895Z" fill="white"/>
<path d="M5.05234 16.2566L4.37434 16.3226C4.31734 16.3286 4.26634 16.2836 4.26034 16.2236C4.25434 16.1636 4.29634 16.1096 4.35334 16.1036L5.03134 16.0376C5.08834 16.0316 5.13934 16.0766 5.14534 16.1366C5.15134 16.1966 5.10934 16.2506 5.05234 16.2566Z" fill="white"/>
<path d="M6.38437 16.1258L5.70637 16.1918C5.64937 16.1978 5.59837 16.1528 5.59237 16.0928C5.58637 16.0328 5.62837 15.9788 5.68537 15.9728L6.36337 15.9068C6.42037 15.9008 6.47137 15.9458 6.47737 16.0058C6.48337 16.0658 6.44137 16.1198 6.38437 16.1258Z" fill="white"/>
<path d="M7.7164 15.9969L7.0384 16.0629C6.9814 16.0689 6.9304 16.0239 6.9244 15.9639C6.9184 15.9039 6.9604 15.8499 7.0174 15.8439L7.6954 15.7779C7.7524 15.7719 7.8034 15.8169 7.8094 15.8769C7.8154 15.9369 7.7734 15.9909 7.7164 15.9969Z" fill="white"/>
<path d="M8.99716 15.868L8.31916 15.934C8.26216 15.94 8.21116 15.895 8.20516 15.835C8.19916 15.775 8.24116 15.721 8.29816 15.715L8.97616 15.649C9.03316 15.643 9.08416 15.688 9.09016 15.748C9.09616 15.808 9.05416 15.862 8.99716 15.868Z" fill="white"/>
<path d="M10.3263 15.7391L9.64826 15.8051C9.59126 15.8111 9.54026 15.7661 9.53426 15.7061C9.52826 15.6461 9.57026 15.5921 9.62726 15.5861L10.3053 15.5201C10.3623 15.5141 10.4133 15.5591 10.4193 15.6191C10.4253 15.6791 10.3833 15.7331 10.3263 15.7391Z" fill="white"/>
<path d="M11.6344 15.6082L10.9564 15.6742C10.8994 15.6802 10.8484 15.6352 10.8424 15.5752C10.8364 15.5152 10.8784 15.4612 10.9354 15.4552L11.6134 15.3892C11.6704 15.3832 11.7214 15.4282 11.7274 15.4882C11.7334 15.5482 11.6914 15.6022 11.6344 15.6082Z" fill="white"/>
<path d="M12.9635 15.4773L12.2855 15.5433C12.2285 15.5493 12.1775 15.5043 12.1715 15.4443C12.1655 15.3843 12.2075 15.3303 12.2645 15.3243L12.9425 15.2583C12.9995 15.2523 13.0505 15.2973 13.0565 15.3573C13.0625 15.4173 13.0205 15.4713 12.9635 15.4773Z" fill="white"/>
<path d="M14.2682 15.3484L13.5902 15.4144C13.5332 15.4204 13.4822 15.3754 13.4762 15.3154C13.4702 15.2554 13.5122 15.2014 13.5692 15.1954L14.2472 15.1294C14.3042 15.1234 14.3552 15.1684 14.3612 15.2284C14.3672 15.2884 14.3252 15.3424 14.2682 15.3484Z" fill="white"/>
<path d="M15.6002 15.2156L14.9222 15.2816C14.8652 15.2876 14.8142 15.2426 14.8082 15.1826C14.8022 15.1226 14.8442 15.0686 14.9012 15.0626L15.5792 14.9966C15.6362 14.9906 15.6872 15.0356 15.6932 15.0956C15.6992 15.1556 15.6572 15.2096 15.6002 15.2156Z" fill="white"/>
<path d="M16.9591 15.0848L16.2811 15.1508C16.2241 15.1568 16.1731 15.1118 16.1671 15.0518C16.1611 14.9918 16.2031 14.9378 16.2601 14.9318L16.9381 14.8658C16.9951 14.8598 17.0461 14.9048 17.0521 14.9648C17.0581 15.0248 17.0161 15.0788 16.9591 15.0848Z" fill="white"/>
<path d="M18.2911 14.952L17.6131 15.018C17.5561 15.024 17.5051 14.979 17.4991 14.919C17.4931 14.859 17.5351 14.805 17.5921 14.799L18.2701 14.733C18.3271 14.727 18.3781 14.772 18.3841 14.832C18.3901 14.892 18.3481 14.946 18.2911 14.952Z" fill="white"/>
<path d="M19.5694 14.827L18.8914 14.893C18.8344 14.899 18.7834 14.854 18.7774 14.794C18.7714 14.734 18.8134 14.68 18.8704 14.674L19.5484 14.608C19.6054 14.602 19.6564 14.647 19.6624 14.707C19.6684 14.767 19.6264 14.821 19.5694 14.827Z" fill="white"/>
<path d="M20.9015 14.6941L20.2235 14.7601C20.1665 14.7661 20.1155 14.7211 20.1095 14.6611C20.1035 14.6011 20.1455 14.5471 20.2025 14.5411L20.8805 14.4751C20.9375 14.4691 20.9885 14.5141 20.9945 14.5741C21.0005 14.6341 20.9585 14.6881 20.9015 14.6941Z" fill="white"/>
<path d="M9.68722 30.3599L9.30622 30.3989C8.94922 30.4349 8.63422 30.1619 8.60122 29.7899L8.55322 29.2529L10.2242 29.0879L10.2722 29.6249C10.3052 29.9969 10.0442 30.3269 9.68722 30.3629V30.3599Z" fill="white"/>
<path d="M17.1692 29.6353L16.7882 29.6743C16.4312 29.7103 16.1162 29.4373 16.0832 29.0653L16.0352 28.5283L17.7062 28.3633L17.7542 28.9003C17.7872 29.2723 17.5262 29.6023 17.1692 29.6383V29.6353Z" fill="white"/>
<path d="M15.6033 17.0479L8.63428 17.7349C7.61728 17.8339 6.87328 18.7849 6.96928 19.8559L7.77027 28.6309C7.79728 28.9129 8.03128 29.1169 8.29828 29.0929L17.8833 28.1479C18.2043 28.1149 18.4413 27.8149 18.4113 27.4759L17.6193 18.8059C17.5203 17.7349 16.6173 16.9459 15.6003 17.0479H15.6033ZM9.96028 18.4099L14.4513 17.9659C14.6613 17.9449 14.8473 18.1069 14.8653 18.3289C14.8863 18.5479 14.7333 18.7459 14.5233 18.7639L10.0323 19.2079C9.82227 19.2289 9.63628 19.0669 9.61828 18.8449C9.59728 18.6259 9.75028 18.4279 9.96028 18.4099ZM10.3743 27.4129C10.3743 27.4129 10.3743 27.4189 10.3683 27.4189L8.95228 27.5599C8.58328 27.5959 8.25928 27.3109 8.22328 26.9239L8.17228 26.3719C8.16628 26.2909 8.22028 26.2159 8.29828 26.2099L9.57928 26.0839C9.94828 26.0479 10.2723 26.3329 10.3083 26.7199L10.3713 27.4159L10.3743 27.4129ZM14.8983 26.8339L11.0853 27.2089C10.9923 27.2179 10.9083 27.1459 10.8993 27.0469C10.8903 26.9479 10.9593 26.8609 11.0523 26.8519L14.8653 26.4769C14.9583 26.4679 15.0423 26.5399 15.0513 26.6389C15.0603 26.7379 14.9913 26.8249 14.8983 26.8339ZM15.0933 26.0929L10.7583 26.5219C10.6563 26.5309 10.5663 26.4529 10.5573 26.3479C10.5483 26.2429 10.6203 26.1469 10.7223 26.1379L15.0573 25.7089C15.1593 25.6999 15.2493 25.7779 15.2583 25.8829C15.2673 25.9879 15.1953 26.0839 15.0933 26.0929ZM17.6193 25.9969C17.6553 26.3839 17.3853 26.7289 17.0163 26.7649L15.7293 26.8909C15.7293 26.8909 15.7233 26.8909 15.7233 26.8849L15.6603 26.1889C15.6243 25.8019 15.8943 25.4569 16.2633 25.4209L17.4153 25.3069C17.4933 25.2979 17.5623 25.3609 17.5683 25.4419L17.6193 25.9939V25.9969ZM17.3703 23.2729C17.4093 23.6899 17.1183 24.0619 16.7223 24.1009L8.76028 24.8869C8.36428 24.9259 8.01028 24.6199 7.97428 24.1999L7.65928 20.7619C7.62028 20.3449 7.91128 19.9729 8.30728 19.9339L16.2693 19.1479C16.6653 19.1089 17.0193 19.4149 17.0553 19.8349L17.3703 23.2729Z" fill="white"/>
<path d="M6.85508 20.8941L6.82208 20.5371L6.00008 20.6181C5.93408 20.6241 5.88908 20.6841 5.89508 20.7531L5.91608 20.9871L5.95208 21.3711L5.80808 21.3861C5.70008 21.3981 5.62208 21.4971 5.63108 21.6111L5.80208 23.4831C5.81108 23.5971 5.90708 23.6811 6.01508 23.6691L6.74708 23.5971C6.85508 23.5851 6.93308 23.4861 6.92408 23.3721L6.75308 21.5001C6.74408 21.3861 6.64808 21.3021 6.54008 21.3141L6.29108 21.3381L6.26408 21.0351C6.26108 20.9901 6.29108 20.9511 6.33308 20.9451L6.85508 20.8941Z" fill="white"/>
<path d="M17.8772 19.8078L17.8442 19.4508L18.7232 19.3638C18.7922 19.3578 18.8552 19.4058 18.8612 19.4748L18.8822 19.7088L18.9182 20.0928L19.0712 20.0778C19.1852 20.0658 19.2872 20.1498 19.2992 20.2638L19.4702 22.1358C19.4792 22.2498 19.3952 22.3518 19.2812 22.3608L18.4982 22.4388C18.3842 22.4508 18.2822 22.3668 18.2702 22.2528L18.0992 20.3808C18.0902 20.2668 18.1742 20.1648 18.2882 20.1558L18.5522 20.1288L18.5252 19.8258C18.5222 19.7808 18.4802 19.7478 18.4352 19.7538L17.8772 19.8078Z" fill="white"/>
<path d="M21.4142 34.4631L18.3842 34.7601L18.3662 34.5411L21.3932 34.2441L21.4142 34.4631Z" fill="white"/>
<path d="M21.4202 34.8232L18.4442 35.1172L18.4292 34.9522L21.4052 34.6582L21.4202 34.8232Z" fill="white"/>
<path d="M21.513 35.5371L18.483 35.8341L18.438 35.3391L21.468 35.0391L21.513 35.5371Z" fill="white"/>
<path d="M21.5673 36.1405L18.5403 36.4405L18.5103 36.1105L21.5373 35.8105L21.5673 36.1405Z" fill="white"/>
<path d="M21.6062 36.554L18.5762 36.851L18.5552 36.632L21.5852 36.332L21.6062 36.554Z" fill="white"/>
<path d="M21.6121 36.915L18.6361 37.209L18.6211 37.044L21.5971 36.75L21.6121 36.915Z" fill="white"/>
<path d="M21.7112 37.7098L18.6812 38.0098L18.6362 37.5148L21.6662 37.2148L21.7112 37.7098Z" fill="white"/>
<path d="M21.765 38.3144L18.738 38.6114L18.708 38.2814L21.735 37.9844L21.765 38.3144Z" fill="white"/>
<path d="M21.8043 38.7268L18.7743 39.0268L18.7563 38.8078L21.7833 38.5078L21.8043 38.7268Z" fill="white"/>
<path d="M21.8103 39.0869L18.8343 39.3809L18.8193 39.2159L21.7953 38.9219L21.8103 39.0869Z" fill="white"/>
<path d="M21.9031 39.827L18.8761 40.127L18.8311 39.632L21.8581 39.332L21.9031 39.827Z" fill="white"/>
<path d="M21.9604 40.4335L18.9304 40.7305L18.9004 40.4005L21.9304 40.1035L21.9604 40.4335Z" fill="white"/>
<path d="M21.9962 40.844L18.9692 41.144L18.9482 40.925L21.9782 40.625L21.9962 40.844Z" fill="white"/>
<path d="M22.0052 41.2071L19.0262 41.4981L19.0112 41.3331L21.9902 41.0391L22.0052 41.2071Z" fill="white"/>
<path d="M22.092 41.8915L19.065 42.1915L19.02 41.6935L22.047 41.3965L22.092 41.8915Z" fill="white"/>
<path d="M22.1494 42.498L19.1194 42.795L19.0894 42.465L22.1194 42.168L22.1494 42.498Z" fill="white"/>
<path d="M22.1852 42.9085L19.1582 43.2085L19.1372 42.9865L22.1672 42.6895L22.1852 42.9085Z" fill="white"/>
<path d="M22.1912 43.2685L19.2152 43.5625L19.2002 43.3975L22.1762 43.1035L22.1912 43.2685Z" fill="white"/>
<path d="M6.10505 37.1808L6.47705 37.1448C6.54905 37.1388 6.61205 37.1448 6.65705 37.1628C6.70505 37.1808 6.74405 37.2138 6.77705 37.2558C6.81005 37.2978 6.83705 37.3488 6.85505 37.4058C6.87305 37.4628 6.88505 37.5258 6.89105 37.5918C6.90005 37.6968 6.89705 37.7778 6.88505 37.8378C6.87305 37.8978 6.84605 37.9488 6.81605 37.9908C6.78605 38.0328 6.75005 38.0628 6.71105 38.0778C6.65705 38.1018 6.60905 38.1138 6.56405 38.1198L6.19205 38.1558L6.10205 37.1838L6.10505 37.1808ZM6.37505 37.3758L6.42305 37.9068L6.48305 37.9008C6.53405 37.8948 6.57305 37.8858 6.59405 37.8678C6.61505 37.8528 6.63005 37.8258 6.63905 37.7898C6.64805 37.7538 6.64805 37.6968 6.64205 37.6188C6.63305 37.5168 6.61205 37.4478 6.58205 37.4118C6.54905 37.3758 6.50105 37.3608 6.43805 37.3698L6.37505 37.3758Z" fill="white"/>
<path d="M6.98096 37.0953L7.65296 37.0293L7.67096 37.2363L7.25096 37.2783L7.26596 37.4343L7.65596 37.3953L7.67396 37.5933L7.28396 37.6323L7.30196 37.8243L7.73396 37.7823L7.75496 38.0013L7.07096 38.0673L6.98096 37.0953Z" fill="white"/>
<path d="M7.79995 37.013L8.21695 36.971C8.30695 36.962 8.37895 36.98 8.42695 37.028C8.47795 37.076 8.50495 37.148 8.51395 37.241C8.52295 37.34 8.50495 37.418 8.45995 37.478C8.41495 37.538 8.34295 37.574 8.24095 37.583L8.10295 37.598L8.13595 37.958L7.88395 37.982L7.79395 37.01L7.79995 37.013ZM8.09095 37.403L8.15095 37.397C8.19895 37.391 8.23195 37.379 8.24995 37.358C8.26795 37.337 8.27395 37.31 8.27095 37.277C8.27095 37.247 8.25595 37.22 8.23795 37.202C8.21995 37.181 8.18695 37.175 8.13895 37.181L8.06695 37.187L8.08795 37.403H8.09095Z" fill="white"/>
<path d="M9.09623 37.7075L8.81123 37.7345L8.78723 37.8995L8.53223 37.9235L8.74823 36.9215L9.02123 36.8945L9.41423 37.8365L9.15323 37.8635L9.09923 37.7075H9.09623ZM9.02423 37.5035L8.90423 37.1615L8.84723 37.5185L9.02423 37.5005V37.5035Z" fill="white"/>
<path d="M9.4982 37.8298L9.4082 36.8578L9.8252 36.8158C9.9032 36.8068 9.9632 36.8098 10.0052 36.8218C10.0472 36.8338 10.0832 36.8608 10.1132 36.8998C10.1432 36.9388 10.1582 36.9928 10.1642 37.0528C10.1702 37.1068 10.1642 37.1548 10.1492 37.1968C10.1342 37.2388 10.1102 37.2718 10.0802 37.2988C10.0592 37.3168 10.0322 37.3318 9.9962 37.3468C10.0262 37.3558 10.0502 37.3648 10.0652 37.3768C10.0742 37.3828 10.0892 37.4008 10.1102 37.4248C10.1312 37.4488 10.1432 37.4668 10.1522 37.4818L10.2992 37.7518L10.0172 37.7788L9.8552 37.4938C9.8342 37.4578 9.8162 37.4338 9.8042 37.4218C9.7862 37.4098 9.7622 37.4038 9.7412 37.4038H9.7202L9.7562 37.7998L9.5042 37.8238L9.4982 37.8298ZM9.6962 37.2268L9.8012 37.2178C9.8012 37.2178 9.8342 37.2088 9.8672 37.1968C9.8822 37.1908 9.8972 37.1788 9.9062 37.1608C9.9152 37.1428 9.9182 37.1248 9.9182 37.1038C9.9182 37.0738 9.9062 37.0498 9.8882 37.0348C9.8702 37.0198 9.8372 37.0138 9.7922 37.0198L9.6812 37.0318L9.6992 37.2298L9.6962 37.2268Z" fill="white"/>
<path d="M10.2183 36.7762L10.9803 36.7012L11.0013 36.9412L10.7463 36.9652L10.8123 37.6972L10.5603 37.7212L10.4943 36.9892L10.2393 37.0132L10.2183 36.7732V36.7762Z" fill="white"/>
<path d="M11.6222 36.6353L11.8712 36.6113L11.9252 37.1903C11.9312 37.2473 11.9252 37.3013 11.9162 37.3553C11.9072 37.4093 11.8862 37.4543 11.8592 37.4963C11.8322 37.5383 11.7992 37.5683 11.7662 37.5863C11.7182 37.6133 11.6612 37.6283 11.5952 37.6373C11.5562 37.6403 11.5112 37.6433 11.4662 37.6373C11.4182 37.6373 11.3792 37.6253 11.3462 37.6103C11.3132 37.5923 11.2832 37.5683 11.2532 37.5353C11.2232 37.5023 11.2022 37.4663 11.1902 37.4273C11.1692 37.3673 11.1572 37.3133 11.1512 37.2653L11.0972 36.6863L11.3462 36.6623L11.4002 37.2563C11.4062 37.3103 11.4212 37.3493 11.4482 37.3763C11.4752 37.4033 11.5112 37.4153 11.5532 37.4123C11.5952 37.4093 11.6282 37.3913 11.6492 37.3583C11.6702 37.3253 11.6792 37.2833 11.6732 37.2293L11.6192 36.6353H11.6222Z" fill="white"/>
<path d="M12.132 37.5681L12.042 36.5961L12.459 36.5541C12.537 36.5451 12.597 36.5481 12.639 36.5601C12.681 36.5721 12.717 36.5991 12.747 36.6381C12.777 36.6771 12.792 36.7311 12.798 36.7911C12.804 36.8451 12.798 36.8931 12.783 36.9351C12.768 36.9771 12.744 37.0101 12.714 37.0371C12.693 37.0551 12.666 37.0701 12.63 37.0851C12.66 37.0941 12.684 37.1031 12.699 37.1151C12.708 37.1211 12.723 37.1391 12.744 37.1631C12.765 37.1871 12.777 37.2051 12.786 37.2201L12.933 37.4901L12.651 37.5171L12.489 37.2321C12.468 37.1961 12.45 37.1721 12.438 37.1601C12.42 37.1481 12.396 37.1421 12.375 37.1421H12.354L12.39 37.5381L12.138 37.5621L12.132 37.5681ZM12.33 36.9651L12.435 36.9561C12.435 36.9561 12.468 36.9471 12.501 36.9351C12.516 36.9291 12.531 36.9171 12.54 36.8991C12.549 36.8811 12.552 36.8631 12.552 36.8421C12.552 36.8121 12.54 36.7881 12.519 36.7731C12.501 36.7581 12.468 36.7521 12.423 36.7581L12.312 36.7701L12.33 36.9681V36.9651Z" fill="white"/>
<path d="M12.918 36.5094L13.59 36.4434L13.608 36.6504L13.188 36.6924L13.203 36.8484L13.593 36.8094L13.611 37.0074L13.221 37.0464L13.239 37.2384L13.671 37.1964L13.692 37.4154L13.008 37.4814L12.918 36.5094Z" fill="white"/>
<path d="M14.0581 36.3953L14.8201 36.3203L14.8411 36.5603L14.5861 36.5843L14.6521 37.3163L14.4001 37.3403L14.3341 36.6083L14.0791 36.6323L14.0581 36.3923V36.3953Z" fill="white"/>
<path d="M14.9463 36.3092L15.1983 36.2852L15.2883 37.2572L15.0363 37.2812L14.9463 36.3092Z" fill="white"/>
<path d="M15.3721 36.2658L15.7021 36.2328L15.8821 36.8118L15.9541 36.2088L16.2841 36.1758L16.3741 37.1478L16.1701 37.1688L16.1011 36.4278L16.0111 37.1868L15.8251 37.2048L15.6001 36.4788L15.6691 37.2198L15.4651 37.2408L15.3751 36.2688L15.3721 36.2658Z" fill="white"/>
<path d="M16.4463 36.1617L17.1183 36.0957L17.1363 36.3027L16.7163 36.3447L16.7313 36.5007L17.1213 36.4617L17.1393 36.6597L16.7493 36.6987L16.7673 36.8907L17.1993 36.8487L17.2203 37.0677L16.5363 37.1337L16.4463 36.1617Z" fill="white"/>
<path d="M6.93308 38.9316L7.07708 40.5006L6.75308 40.5336L6.66008 39.5046C6.61208 39.5616 6.56408 39.6126 6.51908 39.6486C6.47408 39.6876 6.41408 39.7236 6.34208 39.7626L6.30908 39.4116C6.41408 39.3546 6.49508 39.2886 6.54908 39.2166C6.60308 39.1446 6.64208 39.0576 6.66908 38.9586L6.93608 38.9316H6.93308Z" fill="white"/>
<path d="M7.35319 39.6901C7.32619 39.3961 7.34719 39.1891 7.41619 39.0631C7.48519 38.9371 7.59919 38.8681 7.76119 38.8531C7.83919 38.8441 7.90519 38.8531 7.95619 38.8711C8.00719 38.8921 8.05219 38.9221 8.08819 38.9581C8.12419 38.9941 8.15119 39.0361 8.17519 39.0811C8.19919 39.1261 8.21719 39.1771 8.23219 39.2341C8.26519 39.3481 8.28619 39.4651 8.29819 39.5911C8.32519 39.8701 8.30719 40.0801 8.24719 40.2151C8.18719 40.3501 8.07319 40.4281 7.89919 40.4461C7.80319 40.4551 7.72219 40.4431 7.65919 40.4071C7.59619 40.3711 7.54219 40.3171 7.49419 40.2391C7.46119 40.1851 7.43119 40.1101 7.40719 40.0111C7.38319 39.9151 7.36519 39.8071 7.35319 39.6871V39.6901ZM7.67119 39.6601C7.68919 39.8551 7.71319 39.9901 7.74619 40.0591C7.77919 40.1281 7.82119 40.1611 7.86919 40.1551C7.90219 40.1521 7.92919 40.1341 7.95019 40.1011C7.97119 40.0681 7.98319 40.0171 7.98919 39.9511C7.99519 39.8851 7.98919 39.7801 7.97719 39.6421C7.95919 39.4381 7.93219 39.3001 7.89919 39.2341C7.86619 39.1651 7.82419 39.1351 7.77319 39.1411C7.71919 39.1471 7.68619 39.1861 7.66819 39.2611C7.65019 39.3361 7.65019 39.4681 7.66819 39.6631L7.67119 39.6601Z" fill="white"/>
<path d="M8.43311 39.24L8.77511 39.207L8.81411 39.636L8.47211 39.669L8.43311 39.24ZM8.49611 39.927L8.83811 39.894L8.87711 40.323L8.53511 40.356L8.49611 39.927Z" fill="white"/>
<path d="M9.25187 39.1795L8.94287 39.1375C8.95487 39.0055 8.99687 38.9035 9.05987 38.8255C9.12287 38.7475 9.22487 38.7055 9.35387 38.6935C9.50387 38.6785 9.61787 38.7055 9.69287 38.7745C9.76787 38.8435 9.80987 38.9335 9.81887 39.0475C9.82487 39.1135 9.81887 39.1765 9.79487 39.2335C9.77387 39.2905 9.73487 39.3415 9.68387 39.3865C9.72887 39.3955 9.76487 39.4105 9.79187 39.4285C9.83387 39.4555 9.86687 39.4945 9.89387 39.5455C9.92087 39.5965 9.93587 39.6565 9.94187 39.7255C9.95087 39.8155 9.94187 39.9025 9.91187 39.9895C9.88487 40.0765 9.83987 40.1425 9.77687 40.1935C9.71387 40.2445 9.62987 40.2745 9.52187 40.2865C9.41687 40.2955 9.33287 40.2865 9.26987 40.2625C9.20687 40.2355 9.15287 40.1935 9.10787 40.1335C9.06287 40.0735 9.02687 39.9985 8.99687 39.9025L9.31187 39.8155C9.33287 39.8995 9.35687 39.9595 9.38687 39.9895C9.41687 40.0195 9.45287 40.0345 9.49187 40.0285C9.53387 40.0255 9.56987 39.9985 9.59387 39.9535C9.61787 39.9085 9.62687 39.8515 9.62087 39.7795C9.61487 39.7075 9.59687 39.6535 9.56387 39.6175C9.53087 39.5815 9.49487 39.5665 9.44687 39.5695C9.42287 39.5695 9.38687 39.5845 9.34487 39.6055L9.33287 39.2965C9.35087 39.2965 9.36587 39.2965 9.37487 39.2965C9.41687 39.2935 9.44987 39.2725 9.47387 39.2335C9.49787 39.1945 9.50987 39.1525 9.50387 39.1015C9.50087 39.0535 9.48587 39.0175 9.46187 38.9935C9.43787 38.9695 9.40787 38.9575 9.37187 38.9605C9.33287 38.9635 9.30587 38.9815 9.28487 39.0145C9.26387 39.0475 9.25187 39.1015 9.25187 39.1795Z" fill="white"/>
<path d="M10.047 39.4226C10.02 39.1286 10.041 38.9216 10.11 38.7956C10.179 38.6696 10.293 38.6006 10.455 38.5856C10.533 38.5766 10.599 38.5856 10.65 38.6036C10.701 38.6246 10.746 38.6546 10.782 38.6906C10.818 38.7296 10.845 38.7686 10.869 38.8136C10.89 38.8556 10.911 38.9096 10.926 38.9666C10.959 39.0806 10.98 39.1976 10.992 39.3236C11.019 39.6026 11.001 39.8126 10.941 39.9476C10.881 40.0826 10.767 40.1606 10.593 40.1786C10.497 40.1876 10.416 40.1756 10.353 40.1396C10.29 40.1036 10.236 40.0496 10.188 39.9716C10.155 39.9176 10.125 39.8426 10.101 39.7436C10.077 39.6476 10.059 39.5396 10.047 39.4196V39.4226ZM10.365 39.3926C10.383 39.5876 10.407 39.7226 10.44 39.7916C10.473 39.8606 10.515 39.8936 10.563 39.8876C10.596 39.8846 10.623 39.8666 10.644 39.8336C10.665 39.8006 10.677 39.7496 10.683 39.6836C10.689 39.6176 10.683 39.5126 10.671 39.3746C10.653 39.1706 10.626 39.0326 10.593 38.9666C10.56 38.9006 10.518 38.8676 10.467 38.8736C10.413 38.8796 10.38 38.9186 10.362 38.9936C10.344 39.0686 10.344 39.2006 10.362 39.3956L10.365 39.3926Z" fill="white"/>
<path d="M12.471 39.7108L12.066 39.7498L12.033 40.0108L11.667 40.0468L11.961 38.4628L12.351 38.4238L12.927 39.9238L12.552 39.9598L12.471 39.7108ZM12.366 39.3838L12.189 38.8408L12.114 39.4078L12.369 39.3838H12.366Z" fill="white"/>
<path d="M12.897 38.3701L13.368 38.3251L13.635 39.2461L13.728 38.2891L14.199 38.2441L14.34 39.7861L14.046 39.8161L13.938 38.6401L13.821 39.8371L13.557 39.8641L13.224 38.7091L13.332 39.8851L13.038 39.9151L12.897 38.3731V38.3701Z" fill="white"/>
<path d="M6.59425 42.5413L6.84325 42.4993C6.85225 42.5443 6.86725 42.5803 6.88525 42.6043C6.91525 42.6403 6.95725 42.6583 7.00825 42.6523C7.04725 42.6493 7.07425 42.6343 7.09225 42.6133C7.11025 42.5923 7.11925 42.5653 7.11625 42.5383C7.11625 42.5143 7.10125 42.4903 7.08025 42.4723C7.05925 42.4543 7.01125 42.4393 6.93925 42.4273C6.82225 42.4093 6.73525 42.3763 6.68125 42.3313C6.62725 42.2863 6.59725 42.2263 6.58825 42.1483C6.58225 42.0973 6.59125 42.0493 6.61225 42.0013C6.63325 41.9533 6.66925 41.9143 6.71725 41.8843C6.76525 41.8543 6.83425 41.8333 6.92425 41.8243C7.03225 41.8123 7.11925 41.8273 7.17925 41.8693C7.23925 41.9113 7.28125 41.9803 7.30225 42.0823L7.05625 42.1243C7.04425 42.0793 7.02925 42.0493 7.00525 42.0313C6.98125 42.0133 6.95125 42.0073 6.91525 42.0103C6.88525 42.0133 6.86125 42.0223 6.84925 42.0403C6.83425 42.0583 6.82825 42.0763 6.83125 42.0973C6.83125 42.1123 6.84025 42.1273 6.85525 42.1363C6.87025 42.1483 6.90025 42.1573 6.94825 42.1633C7.06525 42.1813 7.15225 42.2023 7.20325 42.2263C7.25425 42.2503 7.29625 42.2833 7.32325 42.3253C7.35025 42.3673 7.36525 42.4153 7.37125 42.4663C7.37725 42.5293 7.36825 42.5893 7.34125 42.6463C7.31425 42.7033 7.27825 42.7483 7.22725 42.7813C7.17625 42.8143 7.10725 42.8353 7.02625 42.8413C6.88225 42.8563 6.77725 42.8323 6.71725 42.7753C6.65425 42.7153 6.61525 42.6373 6.60025 42.5383L6.59425 42.5413Z" fill="white"/>
<path d="M7.43701 41.7956L8.14201 41.7266L8.16001 41.9366L7.71901 41.9816L7.73401 42.1376L8.14201 42.0986L8.16001 42.2996L7.75201 42.3386L7.77001 42.5336L8.22301 42.4886L8.24401 42.7106L7.52701 42.7826L7.43701 41.7986V41.7956Z" fill="white"/>
<path d="M8.8952 42.4792L8.5982 42.5092L8.5712 42.6742L8.3042 42.7012L8.5352 41.6872L8.8232 41.6602L9.2342 42.6112L8.9582 42.6382L8.9012 42.4792H8.8952ZM8.8202 42.2722L8.6942 41.9272L8.6342 42.2902L8.8202 42.2722Z" fill="white"/>
<path d="M9.08105 41.6327L9.87905 41.5547L9.90005 41.7977L9.63305 41.8247L9.70205 42.5657L9.43805 42.5927L9.36905 41.8517L9.10205 41.8787L9.08105 41.6357V41.6327Z" fill="white"/>
<path d="M7.72521 45.1467L6.84021 45.2337C6.84021 45.1077 6.85821 44.9877 6.90021 44.8737C6.94221 44.7597 7.02621 44.6217 7.15521 44.4567C7.23321 44.3577 7.28121 44.2827 7.30221 44.2317C7.32321 44.1807 7.32921 44.1357 7.32621 44.0937C7.32321 44.0487 7.30521 44.0097 7.27821 43.9797C7.25121 43.9497 7.22121 43.9347 7.18221 43.9407C7.14321 43.9437 7.11621 43.9647 7.09521 44.0007C7.07421 44.0367 7.06521 44.0967 7.06221 44.1837L6.76221 44.1777C6.76221 44.0577 6.77721 43.9647 6.80121 43.8957C6.82521 43.8267 6.86421 43.7727 6.91821 43.7307C6.97221 43.6887 7.04721 43.6647 7.14621 43.6557C7.25121 43.6467 7.33221 43.6557 7.39221 43.6827C7.45221 43.7097 7.50321 43.7577 7.54221 43.8237C7.58121 43.8897 7.60521 43.9677 7.61421 44.0517C7.62321 44.1447 7.61421 44.2347 7.58121 44.3217C7.55121 44.4087 7.49121 44.5077 7.39821 44.6187C7.34421 44.6817 7.30821 44.7267 7.29021 44.7537C7.27221 44.7777 7.25121 44.8107 7.22721 44.8527L7.68921 44.8077L7.71921 45.1497L7.72521 45.1467Z" fill="white"/>
<path d="M8.04037 44.0366L7.75537 43.9946C7.76737 43.8656 7.80337 43.7636 7.86337 43.6916C7.92337 43.6166 8.01337 43.5746 8.13337 43.5626C8.27137 43.5476 8.37637 43.5746 8.44537 43.6436C8.51437 43.7126 8.55337 43.7996 8.56237 43.9106C8.56837 43.9766 8.56237 44.0366 8.54137 44.0906C8.52037 44.1446 8.48737 44.1956 8.43937 44.2406C8.48137 44.2496 8.51437 44.2646 8.53837 44.2826C8.57737 44.3096 8.60737 44.3486 8.63137 44.3966C8.65537 44.4446 8.67037 44.5046 8.67637 44.5736C8.68537 44.6606 8.67637 44.7476 8.65237 44.8316C8.62837 44.9156 8.58637 44.9816 8.52937 45.0326C8.47237 45.0836 8.39437 45.1106 8.29537 45.1226C8.19937 45.1316 8.12137 45.1226 8.06137 45.0956C8.00137 45.0686 7.95337 45.0266 7.91137 44.9666C7.86937 44.9066 7.83637 44.8316 7.80637 44.7416L8.09737 44.6576C8.11537 44.7416 8.13937 44.7986 8.16637 44.8286C8.19337 44.8586 8.22637 44.8706 8.26537 44.8676C8.30437 44.8646 8.33737 44.8406 8.35837 44.7956C8.38237 44.7506 8.38837 44.6966 8.38237 44.6276C8.37637 44.5586 8.35837 44.5046 8.32837 44.4686C8.29837 44.4326 8.26237 44.4176 8.22037 44.4206C8.19637 44.4206 8.16637 44.4356 8.12737 44.4536L8.11537 44.1536C8.13337 44.1536 8.14537 44.1536 8.15437 44.1536C8.19337 44.1506 8.22337 44.1296 8.24737 44.0906C8.27137 44.0516 8.28037 44.0096 8.27437 43.9616C8.27137 43.9166 8.25637 43.8806 8.23537 43.8536C8.21437 43.8266 8.18437 43.8176 8.15137 43.8206C8.11537 43.8236 8.08837 43.8416 8.07037 43.8746C8.05237 43.9076 8.04037 43.9616 8.04037 44.0366Z" fill="white"/>
<path d="M9.52218 44.7209L9.15018 44.7569L9.12018 45.0119L8.78418 45.0449L9.04518 43.4969L9.40218 43.4609L9.93918 44.9279L9.59418 44.9609L9.51918 44.7179L9.52218 44.7209ZM9.42318 44.4029L9.25518 43.8719L9.18918 44.4239L9.42318 44.3999V44.4029Z" fill="white"/>
<g style="mix-blend-mode:multiply" opacity="0.21">
<path d="M51.9327 31.373H37.6167V31.664H51.9327V31.373Z" fill="#4079E2"/>
<path d="M51.9327 28.4785H37.6167V28.7695H51.9327V28.4785Z" fill="#4079E2"/>
<path d="M51.9327 25.5801H37.6167V25.8711H51.9327V25.5801Z" fill="#4079E2"/>
<path d="M51.9327 22.6855H37.6167V22.9765H51.9327V22.6855Z" fill="#4079E2"/>
<path d="M51.9327 19.791H37.6167V20.082H51.9327V19.791Z" fill="#4079E2"/>
<path d="M51.9327 29.9258H37.6167V30.2168H51.9327V29.9258Z" fill="#4079E2"/>
<path d="M51.9327 27.0293H37.6167V27.3203H51.9327V27.0293Z" fill="#4079E2"/>
<path d="M51.9327 24.1348H37.6167V24.4258H51.9327V24.1348Z" fill="#4079E2"/>
<path d="M51.9327 21.2363H37.6167V21.5273H51.9327V21.2363Z" fill="#4079E2"/>
<path d="M51.9327 31.373H37.6167V31.664H51.9327V31.373Z" fill="#4079E2"/>
<path d="M51.9327 28.4785H37.6167V28.7695H51.9327V28.4785Z" fill="#4079E2"/>
<path d="M51.9327 25.5801H37.6167V25.8711H51.9327V25.5801Z" fill="#4079E2"/>
<path d="M51.9327 22.6855H37.6167V22.9765H51.9327V22.6855Z" fill="#4079E2"/>
<path d="M51.9327 19.791H37.6167V20.082H51.9327V19.791Z" fill="#4079E2"/>
<path d="M51.9327 29.9258H37.6167V30.2168H51.9327V29.9258Z" fill="#4079E2"/>
<path d="M51.9327 27.0293H37.6167V27.3203H51.9327V27.0293Z" fill="#4079E2"/>
<path d="M51.9327 24.1348H37.6167V24.4258H51.9327V24.1348Z" fill="#4079E2"/>
<path d="M51.9327 21.2363H37.6167V21.5273H51.9327V21.2363Z" fill="#4079E2"/>
<path d="M37.7159 31.373H23.3999V31.664H37.7159V31.373Z" fill="#4079E2"/>
<path d="M37.7159 28.4785H23.3999V28.7695H37.7159V28.4785Z" fill="#4079E2"/>
<path d="M37.7159 25.5801H23.3999V25.8711H37.7159V25.5801Z" fill="#4079E2"/>
<path d="M37.7159 29.9238H23.3999V30.2148H37.7159V29.9238Z" fill="#4079E2"/>
<path d="M37.7159 27.0293H23.3999V27.3203H37.7159V27.0293Z" fill="#4079E2"/>
<path d="M37.7159 24.1348H23.3999V24.4258H37.7159V24.1348Z" fill="#4079E2"/>
<path d="M51.9327 31.373H37.6167V31.664H51.9327V31.373Z" fill="#4079E2"/>
<path d="M51.9327 28.4785H37.6167V28.7695H51.9327V28.4785Z" fill="#4079E2"/>
<path d="M51.9327 25.5801H37.6167V25.8711H51.9327V25.5801Z" fill="#4079E2"/>
<path d="M51.9327 22.6855H37.6167V22.9765H51.9327V22.6855Z" fill="#4079E2"/>
<path d="M51.9327 19.791H37.6167V20.082H51.9327V19.791Z" fill="#4079E2"/>
<path d="M51.9327 29.9258H37.6167V30.2168H51.9327V29.9258Z" fill="#4079E2"/>
<path d="M51.9327 27.0293H37.6167V27.3203H51.9327V27.0293Z" fill="#4079E2"/>
<path d="M51.9327 24.1348H37.6167V24.4258H51.9327V24.1348Z" fill="#4079E2"/>
<path d="M51.9327 21.2363H37.6167V21.5273H51.9327V21.2363Z" fill="#4079E2"/>
<path d="M37.7159 31.373H23.3999V31.664H37.7159V31.373Z" fill="#4079E2"/>
<path d="M37.7159 28.4785H23.3999V28.7695H37.7159V28.4785Z" fill="#4079E2"/>
<path d="M37.7159 25.5801H23.3999V25.8711H37.7159V25.5801Z" fill="#4079E2"/>
<path d="M37.7159 29.9238H23.3999V30.2148H37.7159V29.9238Z" fill="#4079E2"/>
<path d="M37.7159 27.0293H23.3999V27.3203H37.7159V27.0293Z" fill="#4079E2"/>
<path d="M37.7159 24.1348H23.3999V24.4258H37.7159V24.1348Z" fill="#4079E2"/>
<path d="M37.7159 31.373H23.3999V31.664H37.7159V31.373Z" fill="#4079E2"/>
<path d="M37.7159 28.4785H23.3999V28.7695H37.7159V28.4785Z" fill="#4079E2"/>
<path d="M37.7159 25.5801H23.3999V25.8711H37.7159V25.5801Z" fill="#4079E2"/>
<path d="M37.7159 29.9238H23.3999V30.2148H37.7159V29.9238Z" fill="#4079E2"/>
<path d="M37.7159 27.0293H23.3999V27.3203H37.7159V27.0293Z" fill="#4079E2"/>
<path d="M37.7159 24.1348H23.3999V24.4258H37.7159V24.1348Z" fill="#4079E2"/>
</g>
<path d="M14.3161 44.4952C14.3461 44.5252 14.3851 44.5552 14.4151 44.5882C14.5111 44.6752 14.6071 44.7712 14.7031 44.8582C15.0361 45.1672 15.3661 45.4732 15.6961 45.7852C15.8791 45.9592 16.0681 46.1392 16.2481 46.3192L16.8841 46.9582L16.8991 46.9732C16.9861 46.8952 17.0791 46.8292 17.1721 46.7692C17.1961 46.7362 17.2231 46.7062 17.2501 46.6762L16.5241 46.0462C15.9001 45.5182 15.2551 45.0112 14.6221 44.4982C14.5651 44.4472 14.5081 44.4052 14.4481 44.3572L14.3431 44.2762L12.3091 42.7402L14.3101 44.4952H14.3161Z" fill="#E0F7FC"/>
<path d="M14.5413 45.1609L14.7663 45.1159C14.7573 45.0769 12.2313 33.2389 12.2313 33.2389C12.1443 33.1879 12.0573 33.1369 11.9673 33.0859L14.4813 44.8759L14.5413 45.1609Z" fill="white"/>
<path d="M14.3461 40.8536C14.3791 40.8896 14.4121 40.9316 14.4451 40.9676C14.5411 41.0786 14.6461 41.1866 14.7421 41.2976C15.0811 41.6816 15.4141 42.0596 15.7591 42.4376C15.9511 42.6476 16.1491 42.8636 16.3441 43.0736L17.0461 43.8056L17.0641 43.8236C16.9741 43.9166 16.8931 44.0156 16.8181 44.1176C16.7791 44.1416 16.7431 44.1686 16.7071 44.1986L16.0201 43.3676C15.4441 42.6536 14.8951 41.9156 14.3371 41.1956C14.2831 41.1296 14.2381 41.0636 14.1841 40.9976L14.0971 40.8776L12.4321 38.5586L14.3491 40.8506L14.3461 40.8536Z" fill="#E0F7FC"/>
<path d="M2.17179 52.9824H28.4878V47.7864H2.17179V52.9824Z" fill="#F79A45"/>
<path d="M3.96568 52.9824H19.3257V47.7864H3.96568V52.9824Z" fill="#F8AD43"/>
<path d="M6.65963 52.9824H9.11963V47.7864H6.65963V52.9824Z" fill="#F8D24A"/>
<g opacity="0.5" style="mix-blend-mode:multiply">
<path d="M2.17179 52.9824H28.4878V52.2084H2.17179V52.9824Z" fill="#F79A45"/>
</g>
<path d="M4.08292 47.7832H30.3989V42.5872H4.08292V47.7832Z" fill="#F79A45"/>
<path d="M5.87682 47.7832H21.2368V42.5872H5.87682V47.7832Z" fill="#F8AD43"/>
<path d="M8.57076 47.7832H11.0308V42.5872H8.57076V47.7832Z" fill="#F8D24A"/>
<g opacity="0.5" style="mix-blend-mode:multiply">
<path d="M4.08292 47.7832H30.3989V47.0092H4.08292V47.7832Z" fill="#F79A45"/>
</g>
<path d="M2.17179 42.5859H28.4878V37.3899H2.17179V42.5859Z" fill="#F79A45"/>
<path d="M3.96568 42.5859H19.3257V37.3899H3.96568V42.5859Z" fill="#F8AD43"/>
<path d="M6.65963 42.5859H9.11963V37.3899H6.65963V42.5859Z" fill="#F8D24A"/>
<g opacity="0.5" style="mix-blend-mode:multiply">
<path d="M2.17179 42.5859H28.4878V41.8119H2.17179V42.5859Z" fill="#F79A45"/>
</g>
<path d="M5.99064 37.3906H32.3066V32.1946H5.99064V37.3906Z" fill="#F79A45"/>
<path d="M7.78453 37.3906H23.1445V32.1946H7.78453V37.3906Z" fill="#F8AD43"/>
<path d="M10.4814 37.3906H12.9414V32.1946H10.4814V37.3906Z" fill="#F8D24A"/>
<g opacity="0.5" style="mix-blend-mode:multiply">
<path d="M5.99064 37.3906H32.3066V36.6166H5.99064V37.3906Z" fill="#F79A45"/>
</g>
<path d="M39.7356 23.8199C40.1526 24.2099 40.2516 24.8189 39.9126 25.2359C39.5856 25.6379 38.9346 25.6619 38.5116 25.2899C37.4976 24.4019 38.6886 22.9829 39.7356 23.8169C39.9816 24.0119 40.2726 23.6669 40.0236 23.4689C39.3696 22.9469 38.4696 22.9439 37.9626 23.5499C37.4706 24.1349 37.5906 25.0949 38.2236 25.6349C38.8566 26.1779 39.7926 26.1449 40.2846 25.5539C40.7916 24.9449 40.6356 24.0389 40.0236 23.4689C39.7926 23.2529 39.5046 23.6009 39.7356 23.8169V23.8199Z" fill="#FF5C98"/>
<path d="M29.3105 26.9088L29.4275 27.0078L28.9205 27.6168L28.8035 27.5178L29.0045 27.2748L28.1735 26.5578C28.1495 26.5368 28.1255 26.5128 28.0985 26.4888L28.1165 26.8518C28.1165 26.8518 28.1165 26.8758 28.1105 26.8818C28.1075 26.8908 28.1015 26.8968 28.0955 26.8998C28.0895 26.9058 28.0835 26.9088 28.0745 26.9088C28.0655 26.9088 28.0595 26.9088 28.0535 26.9088L27.9515 26.8968L27.9185 26.2878L28.0145 26.1738L29.1185 27.1278L29.3045 26.9028L29.3105 26.9088Z" fill="white"/>
<path d="M30.0246 25.9877C30.0366 25.9727 30.0516 25.9637 30.0696 25.9637C30.0876 25.9637 30.1026 25.9697 30.1176 25.9817L30.2106 26.0597L29.5806 26.8157L29.5296 26.7707C29.5296 26.7707 29.5086 26.7497 29.5026 26.7347C29.4936 26.7197 29.4906 26.7047 29.4876 26.6867L29.3976 25.9847C29.3886 25.9277 29.3796 25.8707 29.3706 25.8197C29.3616 25.7687 29.3466 25.7207 29.3316 25.6787C29.3166 25.6337 29.2956 25.5947 29.2716 25.5587C29.2476 25.5227 29.2176 25.4897 29.1816 25.4567C29.1456 25.4267 29.1096 25.4057 29.0736 25.3907C29.0376 25.3787 29.0046 25.3727 28.9716 25.3757C28.9386 25.3787 28.9086 25.3877 28.8786 25.4057C28.8486 25.4237 28.8216 25.4447 28.7976 25.4747C28.7736 25.5047 28.7556 25.5347 28.7436 25.5677C28.7316 25.6007 28.7286 25.6307 28.7286 25.6637C28.7286 25.6967 28.7346 25.7297 28.7466 25.7597C28.7586 25.7927 28.7736 25.8227 28.7976 25.8497C28.8126 25.8737 28.8186 25.8917 28.8156 25.9097C28.8156 25.9247 28.8036 25.9427 28.7826 25.9607L28.7076 26.0237C28.6596 25.9697 28.6206 25.9127 28.5966 25.8527C28.5726 25.7957 28.5576 25.7357 28.5576 25.6787C28.5576 25.6217 28.5636 25.5647 28.5846 25.5107C28.6056 25.4567 28.6356 25.4057 28.6746 25.3547C28.7136 25.3067 28.7586 25.2677 28.8096 25.2407C28.8606 25.2107 28.9116 25.1957 28.9656 25.1897C29.0196 25.1837 29.0766 25.1897 29.1336 25.2107C29.1906 25.2287 29.2446 25.2617 29.2986 25.3067C29.3436 25.3457 29.3796 25.3877 29.4096 25.4357C29.4366 25.4807 29.4606 25.5317 29.4786 25.5827C29.4966 25.6337 29.5086 25.6877 29.5206 25.7477C29.5296 25.8047 29.5386 25.8647 29.5476 25.9247L29.6256 26.5067C29.6376 26.4797 29.6496 26.4557 29.6646 26.4287C29.6796 26.4047 29.6946 26.3807 29.7126 26.3627L30.0276 25.9817L30.0246 25.9877Z" fill="white"/>
<path d="M29.4817 25.1058C29.4337 25.0518 29.3947 24.9948 29.3707 24.9348C29.3467 24.8778 29.3317 24.8178 29.3287 24.7608C29.3257 24.7038 29.3347 24.6468 29.3557 24.5928C29.3767 24.5388 29.4067 24.4848 29.4457 24.4368C29.4847 24.3888 29.5297 24.3498 29.5777 24.3228C29.6257 24.2958 29.6767 24.2778 29.7277 24.2718C29.7787 24.2658 29.8297 24.2718 29.8837 24.2868C29.9347 24.3048 29.9857 24.3318 30.0337 24.3738C30.0727 24.4068 30.1027 24.4398 30.1267 24.4758C30.1507 24.5118 30.1657 24.5478 30.1717 24.5838C30.1807 24.6198 30.1807 24.6588 30.1777 24.6948C30.1747 24.7338 30.1627 24.7698 30.1477 24.8088C30.2287 24.7518 30.3097 24.7278 30.3907 24.7338C30.4717 24.7398 30.5497 24.7728 30.6217 24.8388C30.6787 24.8868 30.7207 24.9408 30.7477 24.9978C30.7747 25.0548 30.7927 25.1148 30.7957 25.1778C30.7957 25.2408 30.7897 25.3008 30.7687 25.3608C30.7477 25.4208 30.7147 25.4778 30.6727 25.5288C30.6217 25.5888 30.5707 25.6338 30.5197 25.6638C30.4687 25.6938 30.4147 25.7088 30.3637 25.7148C30.3097 25.7208 30.2557 25.7148 30.2017 25.6998C30.1477 25.6848 30.0907 25.6638 30.0367 25.6398L30.0607 25.5558C30.0667 25.5348 30.0787 25.5168 30.0937 25.5048C30.1087 25.4928 30.1267 25.4898 30.1477 25.4958C30.1687 25.5018 30.1957 25.5108 30.2257 25.5198C30.2557 25.5288 30.2887 25.5318 30.3247 25.5318C30.3607 25.5318 30.3967 25.5228 30.4327 25.5078C30.4687 25.4928 30.5077 25.4628 30.5407 25.4208C30.5737 25.3818 30.5947 25.3398 30.6067 25.2978C30.6187 25.2558 30.6217 25.2168 30.6157 25.1778C30.6097 25.1388 30.5977 25.1028 30.5797 25.0698C30.5617 25.0368 30.5377 25.0068 30.5107 24.9858C30.4777 24.9588 30.4447 24.9348 30.4117 24.9198C30.3787 24.9048 30.3427 24.8988 30.3037 24.9048C30.2647 24.9108 30.2257 24.9258 30.1837 24.9528C30.1417 24.9798 30.0937 25.0248 30.0457 25.0848L29.9347 24.9888C29.9737 24.9408 30.0037 24.8928 30.0217 24.8508C30.0397 24.8088 30.0487 24.7668 30.0457 24.7308C30.0457 24.6918 30.0367 24.6588 30.0187 24.6258C30.0007 24.5928 29.9767 24.5628 29.9437 24.5358C29.9077 24.5058 29.8747 24.4848 29.8387 24.4728C29.8027 24.4608 29.7697 24.4548 29.7397 24.4608C29.7067 24.4638 29.6767 24.4728 29.6497 24.4908C29.6197 24.5088 29.5957 24.5298 29.5717 24.5598C29.5477 24.5898 29.5297 24.6198 29.5177 24.6498C29.5057 24.6828 29.4997 24.7158 29.5027 24.7488C29.5027 24.7818 29.5087 24.8148 29.5207 24.8448C29.5327 24.8778 29.5477 24.9078 29.5717 24.9348C29.5867 24.9588 29.5927 24.9798 29.5897 24.9948C29.5897 25.0098 29.5777 25.0278 29.5567 25.0458L29.4817 25.1088V25.1058Z" fill="white"/>
<path d="M31.3356 23.8037L31.4226 23.8787C31.4226 23.8787 31.4376 23.8967 31.4406 23.9057C31.4406 23.9147 31.4406 23.9267 31.4316 23.9357L31.3146 24.0767L31.6356 24.3527L31.5336 24.4757L31.2126 24.1997L30.7926 24.7037C30.7926 24.7037 30.7716 24.7217 30.7596 24.7217C30.7476 24.7217 30.7356 24.7217 30.7236 24.7157L30.6336 24.6647L30.3066 23.4347L30.4146 23.3027L31.1916 23.9747L31.3356 23.8037ZM31.0896 24.1007L30.5886 23.6687C30.5886 23.6687 30.5586 23.6417 30.5406 23.6267C30.5226 23.6117 30.5076 23.5937 30.4896 23.5757L30.7506 24.5117L31.0896 24.1037V24.1007Z" fill="white"/>
<path d="M32.2236 22.0775C32.2596 22.0055 32.2986 21.9455 32.3376 21.8975C32.3856 21.8375 32.4396 21.7955 32.4966 21.7655C32.5536 21.7355 32.6106 21.7205 32.6676 21.7175C32.7246 21.7175 32.7846 21.7265 32.8416 21.7475C32.8986 21.7715 32.9556 21.8045 33.0066 21.8495C33.0726 21.9065 33.1206 21.9665 33.1566 22.0325C33.1926 22.0985 33.2106 22.1645 33.2196 22.2335C33.2256 22.3025 33.2196 22.3715 33.1956 22.4375C33.1746 22.5035 33.1386 22.5665 33.0906 22.6235C33.0636 22.6565 33.0336 22.6865 33.0006 22.7105C32.9676 22.7345 32.9346 22.7555 32.9016 22.7705C32.8686 22.7855 32.8326 22.8005 32.7996 22.8095C32.7666 22.8185 32.7336 22.8245 32.7006 22.8275L32.6736 22.7285C32.6676 22.7075 32.6706 22.6865 32.6826 22.6715C32.6916 22.6595 32.7066 22.6535 32.7246 22.6475C32.7456 22.6415 32.7666 22.6355 32.7936 22.6235C32.8206 22.6145 32.8476 22.5995 32.8776 22.5815C32.9076 22.5635 32.9376 22.5365 32.9676 22.5005C33.0006 22.4615 33.0246 22.4195 33.0366 22.3745C33.0486 22.3325 33.0516 22.2875 33.0456 22.2425C33.0396 22.1975 33.0246 22.1555 32.9976 22.1135C32.9736 22.0715 32.9376 22.0295 32.8956 21.9935C32.8566 21.9605 32.8176 21.9365 32.7786 21.9215C32.7396 21.9065 32.7006 21.8975 32.6616 21.9005C32.6226 21.9005 32.5836 21.9155 32.5476 21.9365C32.5086 21.9575 32.4726 21.9875 32.4396 22.0295C32.4156 22.0595 32.3946 22.0895 32.3736 22.1255C32.3526 22.1615 32.3346 22.2005 32.3196 22.2425L32.2176 22.3085L31.7256 21.7265L32.1726 21.1895L32.2386 21.2465C32.2596 21.2645 32.2716 21.2855 32.2776 21.3095C32.2806 21.3335 32.2716 21.3605 32.2446 21.3905L31.9476 21.7475L32.2236 22.0745V22.0775Z" fill="white"/>
<path d="M33.0573 21.07C33.0633 21.091 33.0663 21.112 33.0723 21.133C33.0783 21.154 33.0813 21.172 33.0873 21.193C33.0873 21.148 33.0993 21.106 33.1143 21.064C33.1293 21.022 33.1533 20.983 33.1863 20.944C33.2253 20.899 33.2673 20.863 33.3183 20.836C33.3693 20.809 33.4203 20.794 33.4773 20.791C33.5343 20.788 33.5913 20.797 33.6513 20.818C33.7113 20.839 33.7713 20.875 33.8283 20.923C33.8853 20.971 33.9273 21.025 33.9603 21.085C33.9933 21.145 34.0113 21.208 34.0203 21.274C34.0263 21.34 34.0203 21.403 34.0023 21.469C33.9843 21.535 33.9483 21.595 33.9003 21.652C33.8523 21.709 33.8013 21.751 33.7413 21.781C33.6843 21.811 33.6213 21.826 33.5583 21.829C33.4953 21.829 33.4323 21.817 33.3663 21.79C33.3003 21.763 33.2343 21.724 33.1713 21.667C33.1173 21.622 33.0693 21.562 33.0273 21.487C32.9853 21.412 32.9493 21.322 32.9223 21.214L32.7483 20.566C32.7453 20.551 32.7453 20.533 32.7483 20.512C32.7513 20.494 32.7603 20.476 32.7753 20.458L32.8803 20.332L33.0573 21.061V21.07ZM33.7743 21.547C33.8073 21.508 33.8283 21.469 33.8403 21.427C33.8523 21.385 33.8583 21.343 33.8523 21.301C33.8463 21.259 33.8343 21.217 33.8133 21.178C33.7923 21.139 33.7623 21.103 33.7233 21.07C33.6843 21.037 33.6423 21.01 33.6003 20.995C33.5583 20.98 33.5163 20.971 33.4773 20.974C33.4383 20.974 33.3993 20.986 33.3633 21.007C33.3273 21.025 33.2943 21.055 33.2643 21.088C33.2313 21.127 33.2103 21.166 33.1983 21.208C33.1863 21.25 33.1833 21.292 33.1893 21.334C33.1953 21.376 33.2073 21.415 33.2313 21.454C33.2523 21.493 33.2793 21.526 33.3123 21.553C33.3513 21.586 33.3903 21.613 33.4323 21.631C33.4743 21.649 33.5133 21.658 33.5553 21.655C33.5943 21.655 33.6333 21.646 33.6723 21.628C33.7083 21.61 33.7443 21.583 33.7743 21.544V21.547Z" fill="white"/>
<path d="M34.1645 30.9332L34.2515 31.0082L33.9185 31.4072L33.1655 30.7562L33.2435 30.6602L33.9095 31.2362L34.1615 30.9332H34.1645Z" fill="white"/>
<path d="M34.4767 29.9624C34.5337 30.0104 34.5787 30.0644 34.6117 30.1214C34.6447 30.1784 34.6657 30.2384 34.6747 30.2954C34.6837 30.3554 34.6807 30.4154 34.6627 30.4724C34.6447 30.5324 34.6147 30.5864 34.5727 30.6374C34.5307 30.6884 34.4797 30.7274 34.4257 30.7544C34.3717 30.7814 34.3147 30.7934 34.2547 30.7964C34.1947 30.7994 34.1347 30.7874 34.0747 30.7634C34.0147 30.7394 33.9547 30.7034 33.8977 30.6554C33.8407 30.6074 33.7957 30.5534 33.7627 30.4964C33.7297 30.4394 33.7087 30.3794 33.6997 30.3194C33.6907 30.2594 33.6937 30.1994 33.7117 30.1424C33.7267 30.0824 33.7567 30.0284 33.8017 29.9774C33.8437 29.9264 33.8947 29.8874 33.9487 29.8604C34.0027 29.8334 34.0597 29.8214 34.1197 29.8184C34.1797 29.8184 34.2397 29.8304 34.2997 29.8544C34.3597 29.8784 34.4197 29.9144 34.4767 29.9624ZM34.3957 30.0614C34.3507 30.0224 34.3027 29.9924 34.2577 29.9714C34.2127 29.9504 34.1647 29.9414 34.1227 29.9414C34.0807 29.9414 34.0387 29.9504 33.9997 29.9684C33.9607 29.9864 33.9247 30.0164 33.8947 30.0524C33.8647 30.0914 33.8407 30.1304 33.8287 30.1724C33.8167 30.2144 33.8137 30.2594 33.8227 30.3014C33.8287 30.3464 33.8467 30.3884 33.8737 30.4334C33.9007 30.4784 33.9367 30.5174 33.9847 30.5594C34.0297 30.5984 34.0777 30.6284 34.1227 30.6494C34.1677 30.6704 34.2127 30.6794 34.2577 30.6794C34.3027 30.6794 34.3417 30.6704 34.3807 30.6524C34.4197 30.6344 34.4557 30.6044 34.4857 30.5684C34.5187 30.5294 34.5397 30.4904 34.5517 30.4484C34.5637 30.4064 34.5667 30.3644 34.5577 30.3194C34.5517 30.2774 34.5337 30.2324 34.5067 30.1904C34.4797 30.1484 34.4437 30.1064 34.3957 30.0644V30.0614Z" fill="white"/>
<path d="M35.3973 29.6309L35.3283 29.7149C35.3133 29.7329 35.2953 29.7389 35.2743 29.7359L34.8543 29.6849C34.8543 29.6849 34.8303 29.6849 34.8213 29.6849C34.8123 29.6879 34.8033 29.6969 34.7913 29.7089L34.7313 29.7809L35.0463 30.0509L34.9683 30.1469L34.2153 29.4959L34.3803 29.2979C34.4163 29.2529 34.4553 29.2199 34.4913 29.1959C34.5273 29.1719 34.5633 29.1569 34.5993 29.1509C34.6353 29.1449 34.6713 29.1509 34.7043 29.1599C34.7373 29.1719 34.7703 29.1929 34.8033 29.2199C34.8303 29.2439 34.8513 29.2679 34.8693 29.2949C34.8873 29.3219 34.8963 29.3519 34.9023 29.3819C34.9083 29.4119 34.9083 29.4449 34.9023 29.4779C34.8963 29.5109 34.8873 29.5439 34.8723 29.5769C34.8903 29.5709 34.9083 29.5709 34.9293 29.5739L35.4003 29.6279L35.3973 29.6309ZM34.7403 29.6219C34.7643 29.5949 34.7793 29.5679 34.7913 29.5409C34.8003 29.5139 34.8063 29.4869 34.8063 29.4629C34.8063 29.4389 34.7973 29.4119 34.7853 29.3909C34.7733 29.3669 34.7553 29.3459 34.7343 29.3279C34.6893 29.2889 34.6443 29.2739 34.5993 29.2829C34.5543 29.2919 34.5093 29.3219 34.4613 29.3759L34.3743 29.4809L34.6593 29.7269L34.7433 29.6279L34.7403 29.6219Z" fill="white"/>
<path d="M35.7517 29.0321L35.8357 29.1041L35.4757 29.5361L34.7227 28.8851L35.0827 28.4531L35.1667 28.5251L34.8847 28.8641L35.1337 29.0801L35.3617 28.8071L35.4427 28.8761L35.2147 29.1491L35.4727 29.3711L35.7547 29.0321H35.7517Z" fill="white"/>
<path d="M35.8024 27.5879L36.5554 28.2389L36.4864 28.3229L35.9344 27.8459C35.9344 27.8459 35.9194 27.8339 35.9104 27.8249C35.9014 27.8159 35.8954 27.8099 35.8864 27.8009L36.1564 28.4489C36.1654 28.4699 36.1654 28.4879 36.1504 28.5029L36.1384 28.5179C36.1264 28.5329 36.1084 28.5389 36.0874 28.5329L35.4094 28.3709C35.4304 28.3859 35.4484 28.3979 35.4634 28.4129L36.0154 28.8899L35.9464 28.9739L35.1934 28.3229L35.2504 28.2539C35.2504 28.2539 35.2624 28.2389 35.2684 28.2359C35.2744 28.2329 35.2834 28.2329 35.2954 28.2359L35.9614 28.3919C35.9614 28.3919 35.9854 28.3979 35.9974 28.4039C36.0094 28.4069 36.0214 28.4129 36.0334 28.4189C36.0274 28.4069 36.0214 28.3949 36.0124 28.3829C36.0064 28.3709 36.0004 28.3589 35.9944 28.3469L35.7304 27.7079C35.7304 27.7079 35.7244 27.6899 35.7274 27.6809C35.7274 27.6749 35.7334 27.6659 35.7424 27.6599L35.7994 27.5909L35.8024 27.5879Z" fill="white"/>
<path d="M36.9907 27.7155L36.9127 27.8115L36.1597 27.1605L36.2377 27.0645L36.9907 27.7155Z" fill="white"/>
<path d="M36.5616 26.6763C36.5976 26.6313 36.6366 26.5983 36.6756 26.5743C36.7146 26.5503 36.7536 26.5383 36.7896 26.5323C36.8286 26.5293 36.8646 26.5323 36.9036 26.5473C36.9426 26.5623 36.9786 26.5833 37.0116 26.6133C37.0476 26.6433 37.0746 26.6763 37.0926 26.7123C37.1136 26.7483 37.1226 26.7873 37.1256 26.8263C37.1256 26.8653 37.1226 26.9073 37.1076 26.9493C37.0926 26.9913 37.0656 27.0333 37.0326 27.0783L36.9396 27.1923L37.2216 27.4353L37.1436 27.5313L36.3906 26.8803L36.5646 26.6733L36.5616 26.6763ZM36.9516 27.0123C36.9756 26.9853 36.9906 26.9583 36.9996 26.9313C37.0086 26.9043 37.0116 26.8773 37.0116 26.8503C37.0116 26.8233 37.0026 26.7993 36.9876 26.7753C36.9756 26.7513 36.9546 26.7303 36.9336 26.7093C36.8856 26.6673 36.8376 26.6493 36.7866 26.6523C36.7356 26.6553 36.6876 26.6883 36.6426 26.7423L36.5496 26.8563L36.8586 27.1233L36.9516 27.0093V27.0123Z" fill="white"/>
<path d="M37.2936 26.0367C37.2936 26.0367 37.2966 26.0517 37.2966 26.0577C37.2966 26.0637 37.2966 26.0697 37.2906 26.0727C37.2846 26.0787 37.2786 26.0817 37.2666 26.0847C37.2546 26.0877 37.2396 26.0907 37.2246 26.0967C37.2066 26.1027 37.1916 26.1087 37.1706 26.1207C37.1526 26.1327 37.1316 26.1477 37.1136 26.1717C37.0956 26.1927 37.0836 26.2137 37.0776 26.2347C37.0716 26.2557 37.0686 26.2767 37.0686 26.2977C37.0686 26.3187 37.0746 26.3367 37.0836 26.3547C37.0926 26.3727 37.1076 26.3877 37.1226 26.4027C37.1436 26.4207 37.1646 26.4297 37.1856 26.4327C37.2066 26.4327 37.2306 26.4327 37.2516 26.4237C37.2756 26.4177 37.2966 26.4057 37.3206 26.3907C37.3446 26.3757 37.3686 26.3637 37.3956 26.3487C37.4196 26.3337 37.4466 26.3217 37.4736 26.3097C37.5006 26.2977 37.5276 26.2917 37.5546 26.2857C37.5816 26.2827 37.6116 26.2857 37.6416 26.2947C37.6716 26.3037 37.7016 26.3217 37.7316 26.3487C37.7646 26.3757 37.7916 26.4087 37.8126 26.4447C37.8336 26.4807 37.8456 26.5167 37.8486 26.5557C37.8546 26.5947 37.8486 26.6337 37.8366 26.6727C37.8246 26.7117 37.8036 26.7507 37.7736 26.7897C37.7346 26.8347 37.6926 26.8707 37.6446 26.8917C37.5966 26.9127 37.5456 26.9247 37.4946 26.9247L37.4706 26.8557C37.4706 26.8557 37.4706 26.8437 37.4706 26.8377C37.4706 26.8317 37.4706 26.8257 37.4766 26.8227C37.4796 26.8197 37.4856 26.8167 37.4946 26.8137C37.5036 26.8137 37.5126 26.8107 37.5246 26.8077C37.5366 26.8077 37.5486 26.8017 37.5636 26.7987C37.5786 26.7987 37.5906 26.7897 37.6056 26.7837C37.6206 26.7777 37.6356 26.7687 37.6506 26.7567C37.6656 26.7447 37.6806 26.7297 37.6956 26.7117C37.7136 26.6877 37.7286 26.6667 37.7346 26.6427C37.7436 26.6187 37.7466 26.5977 37.7436 26.5737C37.7436 26.5497 37.7346 26.5287 37.7226 26.5077C37.7106 26.4867 37.6956 26.4687 37.6746 26.4507C37.6506 26.4297 37.6296 26.4207 37.6056 26.4177C37.5816 26.4177 37.5606 26.4177 37.5366 26.4237C37.5126 26.4297 37.4916 26.4417 37.4676 26.4567C37.4436 26.4717 37.4196 26.4867 37.3956 26.5017C37.3716 26.5167 37.3446 26.5287 37.3206 26.5407C37.2936 26.5527 37.2666 26.5587 37.2396 26.5617C37.2126 26.5647 37.1826 26.5617 37.1526 26.5497C37.1226 26.5407 37.0896 26.5197 37.0566 26.4927C37.0296 26.4687 37.0086 26.4417 36.9906 26.4117C36.9726 26.3817 36.9636 26.3487 36.9606 26.3127C36.9576 26.2767 36.9606 26.2407 36.9696 26.2047C36.9816 26.1687 36.9996 26.1327 37.0296 26.0967C37.0626 26.0577 37.0986 26.0277 37.1376 26.0067C37.1766 25.9857 37.2216 25.9737 37.2666 25.9707L37.2966 26.0367H37.2936Z" fill="white"/>
<path d="M38.2177 26.073C38.2417 26.043 38.2567 26.013 38.2657 25.98C38.2747 25.947 38.2747 25.917 38.2687 25.884C38.2627 25.851 38.2507 25.821 38.2297 25.788C38.2117 25.758 38.1847 25.728 38.1547 25.701L37.6957 25.305L37.7737 25.209L38.2327 25.605C38.2747 25.644 38.3107 25.683 38.3377 25.728C38.3647 25.773 38.3797 25.818 38.3887 25.866C38.3947 25.914 38.3917 25.962 38.3797 26.01C38.3677 26.058 38.3407 26.103 38.3047 26.148C38.2687 26.19 38.2297 26.223 38.1847 26.244C38.1397 26.265 38.0947 26.277 38.0467 26.277C37.9987 26.277 37.9507 26.268 37.9027 26.25C37.8547 26.232 37.8097 26.202 37.7647 26.166L37.3057 25.77L37.3837 25.674L37.8397 26.067C37.8727 26.094 37.9027 26.115 37.9357 26.13C37.9687 26.145 38.0017 26.151 38.0347 26.151C38.0677 26.151 38.0977 26.145 38.1277 26.13C38.1577 26.115 38.1847 26.094 38.2087 26.067L38.2177 26.073Z" fill="white"/>
<path d="M38.5294 24.3125L39.2824 24.9635L39.2134 25.0475L38.6614 24.5705C38.6614 24.5705 38.6464 24.5585 38.6374 24.5495C38.6284 24.5405 38.6224 24.5345 38.6134 24.5255L38.8834 25.1735C38.8924 25.1945 38.8924 25.2125 38.8774 25.2275L38.8654 25.2425C38.8534 25.2575 38.8354 25.2635 38.8144 25.2575L38.1364 25.0955C38.1574 25.1105 38.1754 25.1225 38.1904 25.1375L38.7424 25.6145L38.6734 25.6985L37.9204 25.0475L37.9774 24.9785C37.9774 24.9785 37.9894 24.9635 37.9954 24.9605C38.0014 24.9575 38.0104 24.9575 38.0224 24.9605L38.6884 25.1165C38.6884 25.1165 38.7124 25.1225 38.7244 25.1285C38.7364 25.1315 38.7484 25.1375 38.7604 25.1435C38.7544 25.1315 38.7484 25.1195 38.7394 25.1075C38.7334 25.0955 38.7274 25.0835 38.7214 25.0715L38.4574 24.4325C38.4574 24.4325 38.4514 24.4145 38.4544 24.4055C38.4544 24.3995 38.4604 24.3905 38.4694 24.3845L38.5264 24.3155L38.5294 24.3125Z" fill="white"/>
<path d="M37.3565 20.5469C37.4345 20.6159 37.4975 20.6819 37.5425 20.7479C37.5875 20.8139 37.6175 20.8769 37.6325 20.9369C37.6475 20.9969 37.6475 21.0539 37.6355 21.1079C37.6235 21.1619 37.5995 21.2099 37.5635 21.2519C37.5275 21.2939 37.4855 21.3269 37.4345 21.3479C37.3835 21.3689 37.3295 21.3779 37.2695 21.3719C37.2095 21.3659 37.1435 21.3479 37.0715 21.3119C36.9995 21.2789 36.9245 21.2279 36.8465 21.1589C36.7685 21.0899 36.7055 21.0239 36.6605 20.9579C36.6155 20.8919 36.5855 20.8289 36.5705 20.7689C36.5555 20.7089 36.5525 20.6519 36.5675 20.5979C36.5795 20.5439 36.6035 20.4959 36.6395 20.4539C36.6755 20.4119 36.7175 20.3789 36.7685 20.3579C36.8195 20.3369 36.8735 20.3279 36.9335 20.3339C36.9935 20.3399 37.0595 20.3579 37.1315 20.3939C37.2035 20.4269 37.2785 20.4779 37.3565 20.5469ZM37.2665 20.6549C37.1975 20.5949 37.1345 20.5499 37.0805 20.5199C37.0235 20.4899 36.9755 20.4719 36.9305 20.4659C36.8855 20.4599 36.8495 20.4659 36.8165 20.4749C36.7835 20.4869 36.7565 20.5079 36.7355 20.5349C36.7145 20.5619 36.6995 20.5919 36.6935 20.6249C36.6845 20.6609 36.6905 20.6969 36.7025 20.7419C36.7175 20.7839 36.7415 20.8319 36.7805 20.8829C36.8195 20.9339 36.8705 20.9909 36.9395 21.0479C37.0085 21.1079 37.0715 21.1529 37.1255 21.1799C37.1825 21.2099 37.2305 21.2279 37.2755 21.2339C37.3175 21.2399 37.3565 21.2369 37.3895 21.2249C37.4225 21.2129 37.4495 21.1919 37.4705 21.1649C37.4915 21.1379 37.5065 21.1079 37.5155 21.0749C37.5215 21.0419 37.5215 21.0029 37.5065 20.9579C37.4945 20.9159 37.4675 20.8679 37.4285 20.8169C37.3895 20.7659 37.3385 20.7119 37.2695 20.6519L37.2665 20.6549Z" fill="white"/>
<path d="M38.2477 20.2295L38.3347 20.3045L37.9597 20.7545L37.8727 20.6795L38.0227 20.4995L37.4077 19.9685C37.3897 19.9535 37.3717 19.9355 37.3537 19.9175L37.3657 20.1875C37.3657 20.1875 37.3657 20.2055 37.3627 20.2115C37.3597 20.2175 37.3567 20.2235 37.3507 20.2265C37.3477 20.2295 37.3417 20.2325 37.3357 20.2355C37.3297 20.2355 37.3237 20.2355 37.3207 20.2355L37.2457 20.2265L37.2217 19.7735L37.2937 19.6895L38.1127 20.3975L38.2507 20.2325L38.2477 20.2295Z" fill="white"/>
<path d="M54.4383 23.8262H24.0963C22.6565 23.8262 21.4893 24.9934 21.4893 26.4332V50.1752C21.4893 51.615 22.6565 52.7822 24.0963 52.7822H54.4383C55.8781 52.7822 57.0453 51.615 57.0453 50.1752V26.4332C57.0453 24.9934 55.8781 23.8262 54.4383 23.8262Z" fill="#334DFA"/>
<path d="M54.7923 23.8262H23.7423C22.4973 23.8262 21.4893 24.8522 21.4893 26.1212C21.4893 27.3902 22.4973 28.4162 23.7423 28.4162H54.7953C56.0403 28.4162 57.0483 27.3902 57.0483 26.1212C57.0483 24.8522 56.0403 23.8262 54.7953 23.8262H54.7923Z" fill="#5DB6DE"/>
<path d="M57.0451 42.9726H42.1291C40.5481 42.9726 39.2671 41.6676 39.2671 40.0566C39.2671 38.4456 40.5481 37.1406 42.1291 37.1406H57.0451V42.9696V42.9726Z" fill="#5DB6DE"/>
<path d="M42.3485 41.4275C43.0924 41.4275 43.6955 40.8137 43.6955 40.0565C43.6955 39.2994 43.0924 38.6855 42.3485 38.6855C41.6045 38.6855 41.0015 39.2994 41.0015 40.0565C41.0015 40.8137 41.6045 41.4275 42.3485 41.4275Z" fill="#4B72DE"/>
<path d="M37.3948 20.9399C36.1918 22.1639 35.9848 24.0149 36.7678 25.4609H43.2988C44.0818 24.0179 43.8748 22.1669 42.6718 20.9399C41.2138 19.4549 38.8528 19.4549 37.3948 20.9399Z" fill="#7EA8C4"/>
<path d="M52.9319 26.6818L58.4219 21.0927L48.6059 11.0938L33.2969 26.6818H52.9319Z" fill="#5DB6DE"/>
<path d="M48.6057 12.584L34.7607 26.684H36.2247L46.6467 16.07C47.8107 17.111 49.5237 17.177 50.7537 16.262L53.3487 18.905C52.4517 20.159 52.5147 21.902 53.5377 23.087L50.0067 26.684H51.4707L56.9607 21.092L48.6057 12.584ZM40.4787 23.996C39.7497 24.737 39.3897 25.709 39.3897 26.681H46.8417C46.8417 25.709 46.4817 24.737 45.7527 23.996C44.2947 22.511 41.9337 22.511 40.4757 23.996H40.4787Z" fill="#065590"/>
<path d="M53.973 19.7188H24.561V26.6817H53.973V19.7188Z" fill="#E1696A"/>
<path d="M25.5962 20.7754V26.6854H26.6312V24.9244C28.1372 24.6814 29.3012 23.4034 29.4002 21.8284H49.1342C49.2332 23.4034 50.4002 24.6814 51.9032 24.9244V26.6854H52.9382V20.7754H25.5962ZM39.2672 22.9924C37.2422 22.9924 35.5982 24.6364 35.5412 26.6854H42.9932C42.9362 24.6364 41.2922 22.9924 39.2672 22.9924Z" fill="#C5414E"/>
</svg>
