<svg width="60" height="60" viewBox="0 0 60 60" fill="none" xmlns="http://www.w3.org/2000/svg">
<path opacity="0.53" d="M29.1509 42.5988C45.2257 42.5988 58.2569 41.8789 58.2569 40.9908C58.2569 40.1027 45.2257 39.3828 29.1509 39.3828C13.0761 39.3828 0.0449219 40.1027 0.0449219 40.9908C0.0449219 41.8789 13.0761 42.5988 29.1509 42.5988Z" fill="#606060"/>
<path d="M57.282 29.7506L56.769 29.4746L56.796 29.6816L57.288 30.0356L57.282 29.7506Z" fill="black"/>
<path d="M57.2819 29.7504C57.2819 29.7504 57.3749 29.8764 57.4049 30.0084C57.4319 30.1404 57.6689 32.3304 57.5399 33.3114L57.2789 33.1104V30.3894L57.1709 29.6934L57.2819 29.7504Z" fill="black"/>
<path d="M57.654 33.1082L57.255 33.0332L57.189 33.2042L57.357 33.6932L57.645 33.6182C57.645 33.6182 57.951 33.3572 57.654 33.1082Z" fill="url(#paint0_linear_4823_9217)"/>
<path d="M39.2338 33.2402H39.5908H43.7758V39.4982H42.8638L39.4108 37.5722L35.9608 39.4982H35.7298V39.8132L35.2048 40.3352H35.0488V39.4982V38.9762V33.2402H39.2338Z" fill="black"/>
<path d="M13.329 33.2402H13.686H17.871V39.4982H16.959L13.509 37.5722L10.059 39.4982H9.82504V39.8132L9.30004 40.3352H9.14404V39.4982V38.9762V33.2402H13.329Z" fill="black"/>
<path d="M0.341797 36.9051V38.2131C0.341797 38.3151 0.401797 38.4051 0.491797 38.4411C0.698797 38.5251 0.929797 38.6031 1.1728 38.6781C3.4318 39.3771 6.9748 39.7551 6.9748 39.7551H9.6688V37.6671C9.6688 35.4831 11.3878 33.7131 13.5058 33.7131C15.6238 33.7131 17.3428 35.4831 17.3428 37.6671V39.7551H35.5768V37.6671C35.5768 35.4831 37.2958 33.7131 39.4138 33.7131C41.5318 33.7131 43.2508 35.4831 43.2508 37.6671V39.7551H56.9938C57.8068 39.7551 57.9628 38.7561 57.9628 38.7561V36.8001C57.9628 36.7011 57.8848 36.6201 57.7888 36.6201H57.4918C57.4918 35.6181 57.4558 34.6341 57.3928 33.6951C57.0658 28.6431 56.0218 24.7251 56.0218 24.7251L56.3368 24.2931C56.2648 23.8911 56.1658 23.5311 56.0518 23.2131C55.4818 21.6321 54.5008 20.9961 54.5008 20.9961H2.4148C2.4148 20.9961 1.2868 21.0231 0.920797 21.5361L0.605797 28.4301V36.5421L0.407797 36.7461C0.365797 36.7881 0.341797 36.8481 0.341797 36.9081V36.9051Z" fill="#1E84C7"/>
<path d="M57.9597 36.8156V38.7716C57.9597 38.7716 57.8997 39.1466 57.6657 39.4376C57.6567 39.4496 57.6477 39.4616 57.6387 39.4706C57.6267 39.4856 57.6116 39.5036 57.5937 39.5186C57.5816 39.5306 57.5697 39.5426 57.5577 39.5516C57.4197 39.6776 57.2337 39.7706 56.9877 39.7706H43.2447V37.6826C43.2447 36.8276 42.9807 36.0326 42.5307 35.3846C42.5217 35.3726 42.5157 35.3606 42.5067 35.3516C42.4947 35.3366 42.4857 35.3186 42.4737 35.3036C42.4647 35.2916 42.4587 35.2796 42.4497 35.2706C42.4347 35.2496 42.4197 35.2316 42.4017 35.2106C41.9367 34.6136 41.3067 34.1576 40.5837 33.9176C40.2117 33.7946 39.8187 33.7286 39.4077 33.7286C38.9967 33.7286 38.6037 33.7946 38.2317 33.9176C37.5087 34.1576 36.8787 34.6136 36.4137 35.2106C36.3987 35.2286 36.3837 35.2496 36.3687 35.2706C36.3597 35.2826 36.3507 35.2946 36.3447 35.3036C36.3327 35.3186 36.3207 35.3366 36.3117 35.3516C36.3027 35.3636 36.2967 35.3756 36.2877 35.3846C35.8377 36.0326 35.5737 36.8246 35.5737 37.6826V39.7706H17.3427V37.6826C17.3427 36.8276 17.0787 36.0326 16.6287 35.3846C16.6197 35.3726 16.6137 35.3606 16.6047 35.3516C16.5927 35.3366 16.5837 35.3186 16.5717 35.3036C16.5627 35.2916 16.5537 35.2796 16.5477 35.2706C16.5327 35.2496 16.5177 35.2316 16.5027 35.2106C16.0377 34.6136 15.4077 34.1576 14.6847 33.9176C14.3157 33.7946 13.9197 33.7286 13.5117 33.7286C13.1037 33.7286 12.7077 33.7946 12.3387 33.9176C11.6157 34.1576 10.9857 34.6136 10.5207 35.2106C10.5057 35.2286 10.4877 35.2496 10.4727 35.2706C10.4637 35.2826 10.4547 35.2946 10.4487 35.3036C10.4367 35.3186 10.4247 35.3366 10.4157 35.3516C10.4067 35.3636 10.4007 35.3756 10.3917 35.3846C9.94166 36.0326 9.67766 36.8246 9.67766 37.6826V39.7706H6.98366C6.98366 39.7706 6.28766 39.6956 5.31566 39.5516C5.24066 39.5426 5.16566 39.5306 5.08766 39.5186C4.98866 39.5036 4.88666 39.4886 4.78466 39.4706C4.71566 39.4586 4.64666 39.4466 4.57466 39.4376C3.81866 39.3146 2.97866 39.1586 2.19566 38.9696C2.18666 38.9696 2.17766 38.9666 2.16866 38.9636C2.15066 38.9606 2.13266 38.9546 2.11766 38.9516C2.10866 38.9516 2.09966 38.9456 2.09066 38.9456C1.77266 38.8676 1.46666 38.7836 1.17866 38.6966C0.935656 38.6216 0.704656 38.5406 0.497656 38.4596C0.407656 38.4236 0.347656 38.3336 0.347656 38.2316V36.9236C0.347656 36.8636 0.371656 36.8036 0.413656 36.7616L0.611656 36.5576V28.4456L0.632656 27.9716L0.824656 23.7986L0.926656 21.5516C0.935656 20.9936 2.30966 20.9366 2.41466 20.9336H2.42366L54.5067 20.9846C54.5067 20.9846 55.4847 21.6476 56.0577 23.2286C56.1237 23.4086 56.1807 23.5976 56.2317 23.7986C56.2737 23.9606 56.3097 24.1316 56.3427 24.3086L56.0276 24.7406C56.0276 24.7406 56.6547 27.0956 57.0897 30.5096C57.2157 31.4996 57.3267 32.5766 57.3987 33.7106C57.4047 33.7796 57.4076 33.8516 57.4107 33.9206C57.4257 34.1426 57.4377 34.3646 57.4467 34.5896C57.4557 34.7966 57.4647 35.0036 57.4707 35.2106C57.4857 35.6306 57.4947 36.0566 57.4947 36.4886C57.4947 36.5366 57.4947 36.5876 57.4947 36.6356H57.7917C57.8877 36.6356 57.9657 36.7166 57.9657 36.8156H57.9597Z" fill="#334DFA"/>
<path d="M57.3778 33.4656C56.0728 33.4956 55.4458 33.0666 55.4458 33.0666V24.7266H56.0218C56.0218 24.7266 56.1208 25.1046 56.2708 25.7766C56.3458 26.1156 56.4328 26.5266 56.5258 27.0036C56.6098 27.4326 56.6968 27.9156 56.7838 28.4436C56.8468 28.8156 56.9068 29.2116 56.9668 29.6256C57.1318 30.7746 57.2818 32.0766 57.3778 33.4656Z" fill="#9FD3FD"/>
<path d="M55.1846 23.462H57.4316C57.5276 23.462 57.6206 23.498 57.6896 23.567L58.8356 24.668C58.8836 24.713 58.9166 24.77 58.9346 24.833L59.2046 25.778H58.8686L58.6766 25.076C58.6556 24.998 58.6076 24.929 58.5416 24.878L57.6566 24.206C57.5906 24.158 57.5126 24.131 57.4316 24.131H55.4276L55.1816 23.459L55.1846 23.462Z" fill="#44A3D8"/>
<path d="M55.1846 23.462H57.4316C57.5276 23.462 57.6206 23.498 57.6896 23.567L58.8356 24.668C58.8836 24.713 58.9166 24.77 58.9346 24.833L59.2046 25.778H58.8686L58.6766 25.076C58.6556 24.998 58.6076 24.929 58.5416 24.878L57.6566 24.206C57.5906 24.158 57.5126 24.131 57.4316 24.131H55.4276L55.1816 23.459L55.1846 23.462Z" fill="url(#paint1_linear_4823_9217)"/>
<path d="M55.1846 23.462H57.4316C57.5276 23.462 57.6206 23.498 57.6896 23.567L58.8356 24.668C58.8836 24.713 58.9166 24.77 58.9346 24.833L59.2046 25.778H58.8686L58.6766 25.076C58.6556 24.998 58.6076 24.929 58.5416 24.878L57.6566 24.206C57.5906 24.158 57.5126 24.131 57.4316 24.131H55.4276L55.1816 23.459L55.1846 23.462Z" fill="url(#paint2_linear_4823_9217)"/>
<path d="M55.1846 23.462H57.4316C57.5276 23.462 57.6206 23.498 57.6896 23.567L58.8356 24.668C58.8836 24.713 58.9166 24.77 58.9346 24.833L59.2046 25.778H58.8686L58.6766 25.076C58.6556 24.998 58.6076 24.929 58.5416 24.878L57.6566 24.206C57.5906 24.158 57.5126 24.131 57.4316 24.131H55.4276L55.1816 23.459L55.1846 23.462Z" fill="#EA431C"/>
<path d="M55.3858 24.224H56.7598C56.7898 24.224 56.8138 24.194 56.8048 24.164L56.5828 23.408C56.5768 23.387 56.5588 23.375 56.5378 23.375H55.1938C55.0948 23.375 55.0288 23.474 55.0618 23.57L55.2568 24.131C55.2778 24.188 55.3288 24.227 55.3888 24.227L55.3858 24.224Z" fill="black"/>
<path d="M58.6588 25.3281L59.1448 25.4241C59.2528 25.4451 59.3368 25.5351 59.3548 25.6491L59.6968 27.8931C59.7148 28.0041 59.6608 28.1151 59.5648 28.1721L58.9828 28.5081L58.6558 25.3311L58.6588 25.3281Z" fill="black"/>
<path d="M58.6589 25.3281L58.9859 28.5051H58.7909C58.7339 28.5051 58.6859 28.4601 58.6799 28.4031L58.3769 25.4571C58.3709 25.3881 58.4219 25.3311 58.4879 25.3311H58.6589V25.3281Z" fill="black"/>
<mask id="mask0_4823_9217" style="mask-type:luminance" maskUnits="userSpaceOnUse" x="56" y="34" width="2" height="3">
<path d="M56.0938 34.6768V36.4888H57.4888C57.4888 36.0568 57.4798 35.6338 57.4648 35.2108C57.4588 35.0038 57.4498 34.7938 57.4408 34.5898L56.0908 34.6768H56.0938Z" fill="white"/>
</mask>
<g mask="url(#mask0_4823_9217)">
<path opacity="0.79" d="M56.607 34.8906H57.429C58.044 34.8906 58.875 35.5176 59.115 35.7096C59.166 35.7516 59.199 35.8146 59.202 35.8806C59.208 35.9646 59.214 36.1266 59.214 36.2526C59.214 36.3156 59.19 36.3756 59.148 36.4206C59.106 36.4656 59.049 36.4896 58.986 36.4896C58.977 36.4896 58.971 36.4896 58.962 36.4896L57.3 36.3096C57.264 36.3066 57.228 36.2916 57.198 36.2706L56.478 35.7756C56.415 35.7306 56.376 35.6586 56.376 35.5806V35.1276C56.376 34.9986 56.478 34.8936 56.604 34.8936L56.607 34.8906Z" fill="#F0F1F2"/>
</g>
<path d="M13.485 42.014C15.4318 42.014 17.01 40.3875 17.01 38.381C17.01 36.3746 15.4318 34.748 13.485 34.748C11.5382 34.748 9.95996 36.3746 9.95996 38.381C9.95996 40.3875 11.5382 42.014 13.485 42.014Z" fill="#1A1A1A"/>
<path d="M13.4848 40.2292C14.474 40.2292 15.2758 39.4018 15.2758 38.3812C15.2758 37.3606 14.474 36.5332 13.4848 36.5332C12.4957 36.5332 11.6938 37.3606 11.6938 38.3812C11.6938 39.4018 12.4957 40.2292 13.4848 40.2292Z" fill="#808080"/>
<path d="M13.4851 39.7886C14.239 39.7886 14.8501 39.1587 14.8501 38.3816C14.8501 37.6045 14.239 36.9746 13.4851 36.9746C12.7312 36.9746 12.1201 37.6045 12.1201 38.3816C12.1201 39.1587 12.7312 39.7886 13.4851 39.7886Z" fill="#B7B7B7"/>
<path d="M39.5431 42.014C41.4899 42.014 43.0681 40.3875 43.0681 38.381C43.0681 36.3746 41.4899 34.748 39.5431 34.748C37.5963 34.748 36.0181 36.3746 36.0181 38.381C36.0181 40.3875 37.5963 42.014 39.5431 42.014Z" fill="#1A1A1A"/>
<path d="M39.543 40.2292C40.5321 40.2292 41.334 39.4018 41.334 38.3812C41.334 37.3606 40.5321 36.5332 39.543 36.5332C38.5538 36.5332 37.752 37.3606 37.752 38.3812C37.752 39.4018 38.5538 40.2292 39.543 40.2292Z" fill="#808080"/>
<path d="M39.5432 39.7886C40.2971 39.7886 40.9082 39.1587 40.9082 38.3816C40.9082 37.6045 40.2971 36.9746 39.5432 36.9746C38.7894 36.9746 38.1782 37.6045 38.1782 38.3816C38.1782 39.1587 38.7894 39.7886 39.5432 39.7886Z" fill="#B7B7B7"/>
<path d="M57.9597 36.8152V38.7712C57.9597 38.7712 57.8997 39.1462 57.6657 39.4372C57.6567 39.4492 57.6477 39.4612 57.6387 39.4702C57.6267 39.4852 57.6116 39.5032 57.5937 39.5182C57.5816 39.5302 57.5697 39.5422 57.5577 39.5512C57.4197 39.6772 57.2337 39.7702 56.9877 39.7702H43.2447V37.6822C43.2447 36.8272 42.9807 36.0322 42.5307 35.3842C42.5217 35.3722 42.5157 35.3602 42.5067 35.3512C42.4947 35.3362 42.4857 35.3182 42.4737 35.3032C42.4647 35.2912 42.4587 35.2792 42.4497 35.2702C42.4347 35.2492 42.4197 35.2312 42.4017 35.2102C41.9367 34.6132 41.3067 34.1572 40.5837 33.9172C40.2117 33.7942 39.8187 33.7282 39.4077 33.7282C38.9967 33.7282 38.6037 33.7942 38.2317 33.9172C37.5087 34.1572 36.8787 34.6132 36.4137 35.2102C36.3987 35.2282 36.3837 35.2492 36.3687 35.2702C36.3597 35.2822 36.3507 35.2942 36.3447 35.3032C36.3327 35.3182 36.3207 35.3362 36.3117 35.3512C36.3027 35.3632 36.2967 35.3752 36.2877 35.3842C35.8377 36.0322 35.5737 36.8242 35.5737 37.6822V39.7702H17.3427V37.6822C17.3427 36.8272 17.0787 36.0322 16.6287 35.3842C16.6197 35.3722 16.6137 35.3602 16.6047 35.3512C16.5927 35.3362 16.5837 35.3182 16.5717 35.3032C16.5627 35.2912 16.5537 35.2792 16.5477 35.2702C16.5327 35.2492 16.5177 35.2312 16.5027 35.2102C16.0377 34.6132 15.4077 34.1572 14.6847 33.9172C14.3157 33.7942 13.9197 33.7282 13.5117 33.7282C13.1037 33.7282 12.7077 33.7942 12.3387 33.9172C11.6157 34.1572 10.9857 34.6132 10.5207 35.2102C10.5057 35.2282 10.4877 35.2492 10.4727 35.2702C10.4637 35.2822 10.4547 35.2942 10.4487 35.3032C10.4367 35.3182 10.4247 35.3362 10.4157 35.3512C10.4067 35.3632 10.4007 35.3752 10.3917 35.3842C9.94166 36.0322 9.67766 36.8242 9.67766 37.6822V39.7702H6.98366C6.98366 39.7702 6.28766 39.6952 5.31566 39.5512C5.24066 39.5422 5.16566 39.5302 5.08766 39.5182C4.98866 39.5032 4.88666 39.4882 4.78466 39.4702C4.71566 39.4582 4.64666 39.4462 4.57466 39.4372C3.81866 39.3142 2.97866 39.1582 2.19566 38.9692C2.18666 38.9692 2.17766 38.9662 2.16866 38.9632C2.15066 38.9602 2.13266 38.9542 2.11766 38.9512C2.10866 38.9512 2.09966 38.9452 2.09066 38.9452C1.77266 38.8672 1.46666 38.7832 1.17866 38.6962C0.935656 38.6212 0.704656 38.5402 0.497656 38.4592C0.407656 38.4232 0.347656 38.3332 0.347656 38.2312V36.9232C0.347656 36.8632 0.371656 36.8032 0.413656 36.7612L0.611656 36.5572V28.4452L0.632656 27.9712C0.716656 27.8752 0.764656 27.8242 0.764656 27.8242H45.5606C45.8367 27.8242 46.0616 28.0552 46.0616 28.3402V32.8342C46.0616 33.0712 46.2207 33.2812 46.4457 33.3352L56.2107 35.7322L57.4917 36.6352H57.7887C57.8847 36.6352 57.9627 36.7162 57.9627 36.8152H57.9597Z" fill="#334DFA"/>
<g opacity="0.42">
<path d="M45.0868 28.2783C45.3628 28.2783 45.5878 28.5093 45.5878 28.7943V33.2883C45.5878 33.5283 45.7468 33.7353 45.9718 33.7893L55.7368 36.1863L57.0178 37.0893H57.9628V36.8133C57.9628 36.7143 57.8848 36.6333 57.7888 36.6333H57.4918L56.2108 35.7303L46.4458 33.3333C46.2208 33.2793 46.0618 33.0693 46.0618 32.8323V28.3383C46.0618 28.0533 45.8368 27.8223 45.5608 27.8223H0.758816C0.758816 27.8223 0.710816 27.8733 0.626816 27.9693L0.611816 28.2753H45.0868V28.2783Z" fill="#EAEAEA"/>
</g>
<path d="M0.341867 36.9051V38.2131C0.341867 38.3151 0.401867 38.4051 0.491867 38.4411C0.698867 38.5251 0.929867 38.6031 1.17287 38.6781V36.5391H0.602867L0.404867 36.7431C0.362867 36.7851 0.338867 36.8451 0.338867 36.9051H0.341867Z" fill="#B5B5B5"/>
<path d="M3.77993 38.5322H7.51193C7.53893 38.5322 7.55993 38.5112 7.55993 38.4842V35.9972C7.55993 35.9702 7.53893 35.9492 7.51193 35.9492H3.77993C3.75293 35.9492 3.73193 35.9702 3.73193 35.9972V38.4842C3.73193 38.5112 3.75293 38.5322 3.77993 38.5322Z" fill="#B5B5B5"/>
<path d="M3.84599 36.2301H7.44599C7.46399 36.2301 7.47899 36.2151 7.47899 36.1971C7.47899 36.1791 7.46399 36.1641 7.44599 36.1641H3.84599C3.82799 36.1641 3.81299 36.1791 3.81299 36.1971C3.81299 36.2151 3.82799 36.2301 3.84599 36.2301Z" fill="#5E5E5E"/>
<path d="M3.84599 36.1971H7.44599C7.44599 36.1971 7.46999 36.2031 7.47599 36.2151C7.47599 36.2091 7.48199 36.2031 7.48199 36.1971C7.48199 36.1791 7.46699 36.1641 7.44899 36.1641H3.84599C3.82799 36.1641 3.81299 36.1791 3.81299 36.1971C3.81299 36.2031 3.81299 36.2091 3.81899 36.2151C3.82499 36.2061 3.83399 36.1971 3.84899 36.1971H3.84599Z" fill="#353535"/>
<path d="M3.84599 36.3648H7.44599C7.46399 36.3648 7.47899 36.3498 7.47899 36.3318C7.47899 36.3138 7.46399 36.2988 7.44599 36.2988H3.84599C3.82799 36.2988 3.81299 36.3138 3.81299 36.3318C3.81299 36.3498 3.82799 36.3648 3.84599 36.3648Z" fill="#5E5E5E"/>
<path d="M3.84599 36.3299H7.44599C7.44599 36.3299 7.46999 36.3359 7.47599 36.3479C7.47599 36.3419 7.48199 36.3359 7.48199 36.3299C7.48199 36.3119 7.46699 36.2969 7.44899 36.2969H3.84599C3.82799 36.2969 3.81299 36.3119 3.81299 36.3299C3.81299 36.3359 3.81299 36.3419 3.81899 36.3479C3.82499 36.3389 3.83399 36.3299 3.84899 36.3299H3.84599Z" fill="#353535"/>
<path d="M3.84599 36.4976H7.44599C7.46399 36.4976 7.47899 36.4826 7.47899 36.4646C7.47899 36.4466 7.46399 36.4316 7.44599 36.4316H3.84599C3.82799 36.4316 3.81299 36.4466 3.81299 36.4646C3.81299 36.4826 3.82799 36.4976 3.84599 36.4976Z" fill="#5E5E5E"/>
<path d="M3.84599 36.4646H7.44599C7.44599 36.4646 7.46999 36.4706 7.47599 36.4826C7.47599 36.4766 7.48199 36.4706 7.48199 36.4646C7.48199 36.4466 7.46699 36.4316 7.44899 36.4316H3.84599C3.82799 36.4316 3.81299 36.4466 3.81299 36.4646C3.81299 36.4706 3.81299 36.4766 3.81899 36.4826C3.82499 36.4736 3.83399 36.4646 3.84899 36.4646H3.84599Z" fill="#353535"/>
<path d="M3.84599 36.6324H7.44599C7.46399 36.6324 7.47899 36.6174 7.47899 36.5994C7.47899 36.5814 7.46399 36.5664 7.44599 36.5664H3.84599C3.82799 36.5664 3.81299 36.5814 3.81299 36.5994C3.81299 36.6174 3.82799 36.6324 3.84599 36.6324Z" fill="#5E5E5E"/>
<path d="M3.84599 36.5975H7.44599C7.44599 36.5975 7.46999 36.6035 7.47599 36.6155C7.47599 36.6095 7.48199 36.6035 7.48199 36.5975C7.48199 36.5795 7.46699 36.5645 7.44899 36.5645H3.84599C3.82799 36.5645 3.81299 36.5795 3.81299 36.5975C3.81299 36.6035 3.81299 36.6095 3.81899 36.6155C3.82499 36.6065 3.83399 36.5975 3.84899 36.5975H3.84599Z" fill="#353535"/>
<path d="M3.84599 36.7652H7.44599C7.46399 36.7652 7.47899 36.7502 7.47899 36.7322C7.47899 36.7142 7.46399 36.6992 7.44599 36.6992H3.84599C3.82799 36.6992 3.81299 36.7142 3.81299 36.7322C3.81299 36.7502 3.82799 36.7652 3.84599 36.7652Z" fill="#5E5E5E"/>
<path d="M3.84599 36.7322H7.44599C7.44599 36.7322 7.46999 36.7382 7.47599 36.7502C7.47599 36.7442 7.48199 36.7382 7.48199 36.7322C7.48199 36.7142 7.46699 36.6992 7.44899 36.6992H3.84599C3.82799 36.6992 3.81299 36.7142 3.81299 36.7322C3.81299 36.7382 3.81299 36.7442 3.81899 36.7502C3.82499 36.7412 3.83399 36.7322 3.84899 36.7322H3.84599Z" fill="#353535"/>
<path d="M3.84599 36.8961H7.44599C7.46399 36.8961 7.47899 36.8811 7.47899 36.8631C7.47899 36.8451 7.46399 36.8301 7.44599 36.8301H3.84599C3.82799 36.8301 3.81299 36.8451 3.81299 36.8631C3.81299 36.8811 3.82799 36.8961 3.84599 36.8961Z" fill="#5E5E5E"/>
<path d="M3.84599 36.8631H7.44599C7.44599 36.8631 7.46999 36.8691 7.47599 36.8811C7.47599 36.8751 7.48199 36.8691 7.48199 36.8631C7.48199 36.8451 7.46699 36.8301 7.44899 36.8301H3.84599C3.82799 36.8301 3.81299 36.8451 3.81299 36.8631C3.81299 36.8691 3.81299 36.8751 3.81899 36.8811C3.82499 36.8721 3.83399 36.8631 3.84899 36.8631H3.84599Z" fill="#353535"/>
<path d="M3.84599 37.0308H7.44599C7.46399 37.0308 7.47899 37.0158 7.47899 36.9978C7.47899 36.9798 7.46399 36.9648 7.44599 36.9648H3.84599C3.82799 36.9648 3.81299 36.9798 3.81299 36.9978C3.81299 37.0158 3.82799 37.0308 3.84599 37.0308Z" fill="#5E5E5E"/>
<path d="M3.84599 36.9959H7.44599C7.44599 36.9959 7.46999 37.0019 7.47599 37.0139C7.47599 37.0079 7.48199 37.0019 7.48199 36.9959C7.48199 36.9779 7.46699 36.9629 7.44899 36.9629H3.84599C3.82799 36.9629 3.81299 36.9779 3.81299 36.9959C3.81299 37.0019 3.81299 37.0079 3.81899 37.0139C3.82499 37.0049 3.83399 36.9959 3.84899 36.9959H3.84599Z" fill="#353535"/>
<path d="M3.84599 37.1637H7.44599C7.46399 37.1637 7.47899 37.1487 7.47899 37.1307C7.47899 37.1127 7.46399 37.0977 7.44599 37.0977H3.84599C3.82799 37.0977 3.81299 37.1127 3.81299 37.1307C3.81299 37.1487 3.82799 37.1637 3.84599 37.1637Z" fill="#5E5E5E"/>
<path d="M3.84599 37.1307H7.44599C7.44599 37.1307 7.46999 37.1367 7.47599 37.1487C7.47599 37.1427 7.48199 37.1367 7.48199 37.1307C7.48199 37.1127 7.46699 37.0977 7.44899 37.0977H3.84599C3.82799 37.0977 3.81299 37.1127 3.81299 37.1307C3.81299 37.1367 3.81299 37.1427 3.81899 37.1487C3.82499 37.1397 3.83399 37.1307 3.84899 37.1307H3.84599Z" fill="#353535"/>
<path d="M3.84599 37.2984H7.44599C7.46399 37.2984 7.47899 37.2834 7.47899 37.2654C7.47899 37.2474 7.46399 37.2324 7.44599 37.2324H3.84599C3.82799 37.2324 3.81299 37.2474 3.81299 37.2654C3.81299 37.2834 3.82799 37.2984 3.84599 37.2984Z" fill="#5E5E5E"/>
<path d="M3.84599 37.2635H7.44599C7.44599 37.2635 7.46999 37.2695 7.47599 37.2815C7.47599 37.2755 7.48199 37.2695 7.48199 37.2635C7.48199 37.2455 7.46699 37.2305 7.44899 37.2305H3.84599C3.82799 37.2305 3.81299 37.2455 3.81299 37.2635C3.81299 37.2695 3.81299 37.2755 3.81899 37.2815C3.82499 37.2725 3.83399 37.2635 3.84899 37.2635H3.84599Z" fill="#353535"/>
<path d="M3.84599 37.4312H7.44599C7.46399 37.4312 7.47899 37.4162 7.47899 37.3982C7.47899 37.3802 7.46399 37.3652 7.44599 37.3652H3.84599C3.82799 37.3652 3.81299 37.3802 3.81299 37.3982C3.81299 37.4162 3.82799 37.4312 3.84599 37.4312Z" fill="#5E5E5E"/>
<path d="M3.84599 37.3982H7.44599C7.44599 37.3982 7.46999 37.4042 7.47599 37.4162C7.47599 37.4102 7.48199 37.4042 7.48199 37.3982C7.48199 37.3802 7.46699 37.3652 7.44899 37.3652H3.84599C3.82799 37.3652 3.81299 37.3802 3.81299 37.3982C3.81299 37.4042 3.81299 37.4102 3.81899 37.4162C3.82499 37.4072 3.83399 37.3982 3.84899 37.3982H3.84599Z" fill="#353535"/>
<path d="M3.84599 37.5621H7.44599C7.46399 37.5621 7.47899 37.5471 7.47899 37.5291C7.47899 37.5111 7.46399 37.4961 7.44599 37.4961H3.84599C3.82799 37.4961 3.81299 37.5111 3.81299 37.5291C3.81299 37.5471 3.82799 37.5621 3.84599 37.5621Z" fill="#5E5E5E"/>
<path d="M3.84599 37.5291H7.44599C7.44599 37.5291 7.46999 37.5351 7.47599 37.5471C7.47599 37.5411 7.48199 37.5351 7.48199 37.5291C7.48199 37.5111 7.46699 37.4961 7.44899 37.4961H3.84599C3.82799 37.4961 3.81299 37.5111 3.81299 37.5291C3.81299 37.5351 3.81299 37.5411 3.81899 37.5471C3.82499 37.5381 3.83399 37.5291 3.84899 37.5291H3.84599Z" fill="#353535"/>
<path d="M3.84599 37.6969H7.44599C7.46399 37.6969 7.47899 37.6819 7.47899 37.6639C7.47899 37.6459 7.46399 37.6309 7.44599 37.6309H3.84599C3.82799 37.6309 3.81299 37.6459 3.81299 37.6639C3.81299 37.6819 3.82799 37.6969 3.84599 37.6969Z" fill="#5E5E5E"/>
<path d="M3.84599 37.6619H7.44599C7.44599 37.6619 7.46999 37.6679 7.47599 37.6799C7.47599 37.6739 7.48199 37.6679 7.48199 37.6619C7.48199 37.6439 7.46699 37.6289 7.44899 37.6289H3.84599C3.82799 37.6289 3.81299 37.6439 3.81299 37.6619C3.81299 37.6679 3.81299 37.6739 3.81899 37.6799C3.82499 37.6709 3.83399 37.6619 3.84899 37.6619H3.84599Z" fill="#353535"/>
<path d="M3.84599 37.8297H7.44599C7.46399 37.8297 7.47899 37.8147 7.47899 37.7967C7.47899 37.7787 7.46399 37.7637 7.44599 37.7637H3.84599C3.82799 37.7637 3.81299 37.7787 3.81299 37.7967C3.81299 37.8147 3.82799 37.8297 3.84599 37.8297Z" fill="#5E5E5E"/>
<path d="M3.84599 37.7967H7.44599C7.44599 37.7967 7.46999 37.8027 7.47599 37.8147C7.47599 37.8087 7.48199 37.8027 7.48199 37.7967C7.48199 37.7787 7.46699 37.7637 7.44899 37.7637H3.84599C3.82799 37.7637 3.81299 37.7787 3.81299 37.7967C3.81299 37.8027 3.81299 37.8087 3.81899 37.8147C3.82499 37.8057 3.83399 37.7967 3.84899 37.7967H3.84599Z" fill="#353535"/>
<path d="M3.84599 37.9644H7.44599C7.46399 37.9644 7.47899 37.9494 7.47899 37.9314C7.47899 37.9134 7.46399 37.8984 7.44599 37.8984H3.84599C3.82799 37.8984 3.81299 37.9134 3.81299 37.9314C3.81299 37.9494 3.82799 37.9644 3.84599 37.9644Z" fill="#5E5E5E"/>
<path d="M3.84599 37.9295H7.44599C7.44599 37.9295 7.46999 37.9355 7.47599 37.9475C7.47599 37.9415 7.48199 37.9355 7.48199 37.9295C7.48199 37.9115 7.46699 37.8965 7.44899 37.8965H3.84599C3.82799 37.8965 3.81299 37.9115 3.81299 37.9295C3.81299 37.9355 3.81299 37.9415 3.81899 37.9475C3.82499 37.9385 3.83399 37.9295 3.84899 37.9295H3.84599Z" fill="#353535"/>
<path d="M3.84599 38.0973H7.44599C7.46399 38.0973 7.47899 38.0823 7.47899 38.0643C7.47899 38.0463 7.46399 38.0312 7.44599 38.0312H3.84599C3.82799 38.0312 3.81299 38.0463 3.81299 38.0643C3.81299 38.0823 3.82799 38.0973 3.84599 38.0973Z" fill="#5E5E5E"/>
<path d="M3.84599 38.0643H7.44599C7.44599 38.0643 7.46999 38.0703 7.47599 38.0823C7.47599 38.0763 7.48199 38.0703 7.48199 38.0643C7.48199 38.0463 7.46699 38.0312 7.44899 38.0312H3.84599C3.82799 38.0312 3.81299 38.0463 3.81299 38.0643C3.81299 38.0703 3.81299 38.0763 3.81899 38.0823C3.82499 38.0733 3.83399 38.0643 3.84899 38.0643H3.84599Z" fill="#353535"/>
<path d="M3.84599 38.2281H7.44599C7.46399 38.2281 7.47899 38.2131 7.47899 38.1951C7.47899 38.1771 7.46399 38.1621 7.44599 38.1621H3.84599C3.82799 38.1621 3.81299 38.1771 3.81299 38.1951C3.81299 38.2131 3.82799 38.2281 3.84599 38.2281Z" fill="#5E5E5E"/>
<path d="M3.84599 38.1951H7.44599C7.44599 38.1951 7.46999 38.2011 7.47599 38.2131C7.47599 38.2071 7.48199 38.2011 7.48199 38.1951C7.48199 38.1771 7.46699 38.1621 7.44899 38.1621H3.84599C3.82799 38.1621 3.81299 38.1771 3.81299 38.1951C3.81299 38.2011 3.81299 38.2071 3.81899 38.2131C3.82499 38.2041 3.83399 38.1951 3.84899 38.1951H3.84599Z" fill="#353535"/>
<path d="M3.84599 38.3629H7.44599C7.46399 38.3629 7.47899 38.3479 7.47899 38.3299C7.47899 38.3119 7.46399 38.2969 7.44599 38.2969H3.84599C3.82799 38.2969 3.81299 38.3119 3.81299 38.3299C3.81299 38.3479 3.82799 38.3629 3.84599 38.3629Z" fill="#5E5E5E"/>
<path d="M3.84599 38.3279H7.44599C7.44599 38.3279 7.46999 38.3339 7.47599 38.3459C7.47599 38.3399 7.48199 38.3339 7.48199 38.3279C7.48199 38.3099 7.46699 38.2949 7.44899 38.2949H3.84599C3.82799 38.2949 3.81299 38.3099 3.81299 38.3279C3.81299 38.3339 3.81299 38.3399 3.81899 38.3459C3.82499 38.3369 3.83399 38.3279 3.84899 38.3279H3.84599Z" fill="#353535"/>
<mask id="mask1_4823_9217" style="mask-type:luminance" maskUnits="userSpaceOnUse" x="0" y="31" width="2" height="6">
<path d="M1.88103 31.0586H0.603027V36.4076H1.88103V31.0586Z" fill="white"/>
</mask>
<g mask="url(#mask1_4823_9217)">
<path d="M-0.183168 36.2315H1.20283C1.22383 36.2315 1.24183 36.2135 1.24183 36.1895V31.6475C1.24183 31.6235 1.22383 31.6055 1.20283 31.6055H-0.183168C-0.204168 31.6055 -0.222168 31.6235 -0.222168 31.6475V36.1895C-0.222168 36.2135 -0.204168 36.2315 -0.183168 36.2315Z" fill="#5E130C"/>
<path d="M-0.15918 31.7368V36.0388C-0.15918 36.1078 -0.10518 36.1648 -0.0391797 36.1648H1.11882C1.15182 36.1648 1.17882 36.1378 1.17882 36.1018V31.7998C1.17882 31.7308 1.12482 31.6738 1.05882 31.6738H-0.0961797C-0.12918 31.6738 -0.15618 31.7008 -0.15618 31.7368H-0.15918Z" fill="#C1272D"/>
<path d="M0.186035 32.4962C0.186035 32.6822 0.333035 32.8322 0.510035 32.8322C0.687035 32.8322 0.834035 32.6822 0.834035 32.4962C0.834035 32.3102 0.687035 32.1602 0.510035 32.1602C0.330035 32.1602 0.186035 32.3102 0.186035 32.4962Z" fill="#5E130C"/>
<path d="M0.186035 33.4473C0.186035 33.6333 0.333035 33.7833 0.510035 33.7833C0.687035 33.7833 0.834035 33.6333 0.834035 33.4473C0.834035 33.2613 0.687035 33.1113 0.510035 33.1113C0.330035 33.1113 0.186035 33.2613 0.186035 33.4473Z" fill="#5E130C"/>
<path d="M0.186035 34.3946C0.186035 34.5806 0.333035 34.7306 0.510035 34.7306C0.687035 34.7306 0.834035 34.5806 0.834035 34.3946C0.834035 34.2086 0.687035 34.0586 0.510035 34.0586C0.330035 34.0586 0.186035 34.2086 0.186035 34.3946Z" fill="#5E130C"/>
<path d="M0.186035 35.3438C0.186035 35.5298 0.333035 35.6798 0.510035 35.6798C0.687035 35.6798 0.834035 35.5298 0.834035 35.3438C0.834035 35.1578 0.687035 35.0078 0.510035 35.0078C0.333035 35.0078 0.186035 35.1578 0.186035 35.3438Z" fill="#5E130C"/>
</g>
<path d="M46.416 39.7565V23.0945C46.416 22.8695 46.593 22.6895 46.809 22.6895H54.513C54.729 22.6895 54.906 22.8695 54.906 23.0945V39.7565" stroke="#282828" stroke-width="0.57" stroke-miterlimit="10"/>
<path opacity="0.38" d="M56.5229 27.0028L55.4429 25.8208V24.9238L56.2679 25.7758C56.3429 26.1148 56.4299 26.5258 56.5229 27.0028Z" fill="white"/>
<path opacity="0.38" d="M56.9639 29.6245L55.4429 27.9595V27.0625L56.7809 28.4455C56.8439 28.8175 56.9039 29.2135 56.9639 29.6275V29.6245Z" fill="white"/>
<path d="M54.9718 22.5843H1.88379C1.88379 22.2093 2.17779 21.9062 2.54079 21.9062H54.3148C54.6778 21.9062 54.9718 22.2093 54.9718 22.5843Z" fill="#1E39BC"/>
<path d="M1.41309 23.1992V30.5102C1.41309 31.2812 2.01909 31.9052 2.76609 31.9052H19.6891V23.3972L1.41609 23.2022L1.41309 23.1992Z" fill="#1A2E35"/>
<path d="M2.03418 23.7715V27.8875L3.01818 28.5445H10.3472V23.7775L2.03418 23.7715Z" fill="#385A65"/>
<path d="M11.0132 29.2525V23.7715H19.2332V31.2745L17.8082 29.8075C17.4572 29.4475 16.9832 29.2435 16.4882 29.2465L11.0132 29.2555V29.2525Z" fill="#385A65"/>
<path d="M46.9111 23.1992H30.0391V31.9022H46.9111V23.1992Z" fill="#1A2E35"/>
<path d="M38.1 23.6074H30.438V31.3954H38.1V23.6074Z" fill="#385A65"/>
<path d="M46.4223 23.6074H38.7603V31.3954H46.4223V23.6074Z" fill="#385A65"/>
<path d="M29.3099 24.2422H20.3369V38.9302H29.3099V24.2422Z" fill="#1A2E35"/>
<path d="M24.2489 25.25H20.8379V36.74H24.2489V25.25Z" fill="#385A65"/>
<path d="M28.743 25.25H25.332V36.74H28.743V25.25Z" fill="#385A65"/>
<path d="M24.8101 24.2422C24.8101 24.2422 24.8311 27.5062 24.8311 31.5322C24.8311 35.5582 24.8221 38.8222 24.8101 38.8222C24.7981 38.8222 24.7891 35.5582 24.7891 31.5322C24.7891 27.5062 24.7981 24.2422 24.8101 24.2422Z" fill="#385A65"/>
<path d="M53.6642 23.1992H47.7842V39.3002H53.6642V23.1992Z" fill="#1A2E35"/>
<path d="M53.019 24.3027H48.333V36.8997H53.019V24.3027Z" fill="#385A65"/>
<path opacity="0.2" d="M53.0191 24.3027H51.2041V34.3797H53.0191V24.3027Z" fill="black"/>
<path d="M19.3022 24.3203H2.03418V24.4763H19.3022V24.3203Z" fill="#1A2E35"/>
<path d="M46.776 24.3203H30.291V24.4763H46.776V24.3203Z" fill="#1A2E35"/>
<path opacity="0.2" d="M50.04 24.3027V30.2667H48.336L48.333 24.3027H50.04Z" fill="black"/>
<path d="M29.6432 20.9941H20.0972V23.6071H29.6432V20.9941Z" fill="#1A2E35"/>
<path opacity="0.2" d="M29.31 21.2754H20.394V23.3274H29.31V21.2754Z" fill="black"/>
<path opacity="0.2" d="M10.3502 23.7715H2.03418V24.0145H10.3502V23.7715Z" fill="black"/>
<path opacity="0.2" d="M19.2332 23.7715H11.0132V24.0145H19.2332V23.7715Z" fill="black"/>
<path opacity="0.2" d="M28.7429 25.252H20.8379V25.495H28.7429V25.252Z" fill="black"/>
<path opacity="0.2" d="M46.419 23.6074H30.438V23.8504H46.419V23.6074Z" fill="black"/>
<path opacity="0.07" d="M2.03418 27.8875L10.3472 23.7715H2.03418V27.8875Z" fill="white"/>
<path opacity="0.07" d="M11.0132 29.2525L19.2332 23.7715H11.0132V29.2525Z" fill="white"/>
<path opacity="0.07" d="M24.2489 25.252L20.8379 36.742V25.252H24.2489Z" fill="white"/>
<path opacity="0.07" d="M28.911 25.1992L25.5 36.6892V25.1992H28.911Z" fill="white"/>
<path opacity="0.07" d="M38.0998 23.6074C35.4988 25.3384 32.9008 27.0694 30.2998 28.8004C30.3448 27.0694 30.3928 25.3384 30.4378 23.6074H38.0998Z" fill="white"/>
<path opacity="0.07" d="M46.5002 23.4004C43.8992 25.1314 41.3012 26.8624 38.7002 28.5934C38.7452 26.8624 38.7932 25.1314 38.8382 23.4004H46.5002Z" fill="white"/>
<defs>
<linearGradient id="paint0_linear_4823_9217" x1="57.8275" y1="33.3175" x2="57.2524" y2="33.3845" gradientUnits="userSpaceOnUse">
<stop stop-color="#4D4D4D"/>
<stop offset="0.14" stop-color="#353535"/>
<stop offset="0.32" stop-color="#1E1E1E"/>
<stop offset="0.52" stop-color="#0D0D0D"/>
<stop offset="0.73" stop-color="#030303"/>
<stop offset="1"/>
</linearGradient>
<linearGradient id="paint1_linear_4823_9217" x1="59.2046" y1="24.62" x2="55.1846" y2="24.62" gradientUnits="userSpaceOnUse">
<stop stop-color="#1E84C7"/>
<stop offset="1" stop-color="#1E84C7"/>
</linearGradient>
<linearGradient id="paint2_linear_4823_9217" x1="59.2046" y1="24.62" x2="55.1846" y2="24.62" gradientUnits="userSpaceOnUse">
<stop stop-color="#1E84C7"/>
<stop offset="1" stop-color="#1E84C7"/>
</linearGradient>
</defs>
</svg>
