<svg width="60" height="60" viewBox="0 0 60 60" fill="none" xmlns="http://www.w3.org/2000/svg">
<g clip-path="url(#clip0_4823_9467)">
<path d="M28.2181 54.1231H7.7041C6.6691 54.1231 5.8291 53.2831 5.8291 52.2481V16.1641C5.8291 15.1291 6.6691 14.2891 7.7041 14.2891H28.2181C29.2531 14.2891 30.0931 15.1291 30.0931 16.1641V52.2481C30.0931 53.2831 29.2531 54.1231 28.2181 54.1231Z" fill="#141C4D"/>
<path d="M17.9581 53.1632C18.7069 53.1632 19.314 52.5561 19.314 51.8072C19.314 51.0583 18.7069 50.4512 17.9581 50.4512C17.2092 50.4512 16.6021 51.0583 16.6021 51.8072C16.6021 52.5561 17.2092 53.1632 17.9581 53.1632Z" fill="#065590"/>
<path d="M27.048 49.492H8.87399C8.35799 49.492 7.93799 49.072 7.93799 48.556V17.518C7.93799 17.002 8.35799 16.582 8.87399 16.582H27.048C27.564 16.582 27.984 17.002 27.984 17.518V48.556C27.984 49.072 27.564 49.492 27.048 49.492Z" fill="#EBF5FF"/>
<path opacity="0.35" d="M16.3232 23.5762H9.96022C9.60897 23.5762 9.32422 23.8609 9.32422 24.2122C9.32422 24.5634 9.60897 24.8482 9.96022 24.8482H16.3232C16.6745 24.8482 16.9592 24.5634 16.9592 24.2122C16.9592 23.8609 16.6745 23.5762 16.3232 23.5762Z" fill="#5175FF"/>
<path opacity="0.35" d="M18.8702 26.1211H9.96022C9.60897 26.1211 9.32422 26.4058 9.32422 26.7571C9.32422 27.1083 9.60897 27.3931 9.96022 27.3931H18.8702C19.2215 27.3931 19.5062 27.1083 19.5062 26.7571C19.5062 26.4058 19.2215 26.1211 18.8702 26.1211Z" fill="#5175FF"/>
<path opacity="0.35" d="M17.5982 31.5723H9.87916C9.52791 31.5723 9.24316 31.857 9.24316 32.2083C9.24316 32.5595 9.52791 32.8443 9.87916 32.8443H17.5982C17.9494 32.8443 18.2342 32.5595 18.2342 32.2083C18.2342 31.857 17.9494 31.5723 17.5982 31.5723Z" fill="#5175FF"/>
<path opacity="0.35" d="M22.6892 33.7598H9.96022C9.60897 33.7598 9.32422 34.0445 9.32422 34.3958C9.32422 34.747 9.60897 35.0318 9.96022 35.0318H22.6892C23.0405 35.0318 23.3252 34.747 23.3252 34.3958C23.3252 34.0445 23.0405 33.7598 22.6892 33.7598Z" fill="#5175FF"/>
<path d="M52.7728 11.1992H20.9098C17.0428 11.1992 13.9048 14.3342 13.9048 18.2042C13.9048 22.0712 17.0398 25.2092 20.9098 25.2092H31.9558L36.0478 30.0272C36.4618 30.5162 37.2178 30.5162 37.6318 30.0272L41.7238 25.2092H52.7698C56.6368 25.2092 59.7748 22.0742 59.7748 18.2042C59.7748 14.3372 56.6398 11.1992 52.7698 11.1992H52.7728Z" fill="#0A51EB"/>
<path d="M20.697 20.3454L19.29 21.0834C19.086 21.1914 18.849 21.0174 18.888 20.7924L19.158 19.2264C19.173 19.1364 19.143 19.0464 19.08 18.9804L17.943 17.8704C17.778 17.7114 17.868 17.4324 18.096 17.3994L19.668 17.1714C19.758 17.1594 19.836 17.1024 19.875 17.0214L20.577 15.5964C20.679 15.3924 20.97 15.3924 21.072 15.5964L21.774 17.0214C21.813 17.1024 21.891 17.1594 21.981 17.1714L23.553 17.3994C23.781 17.4324 23.871 17.7114 23.706 17.8704L22.569 18.9804C22.503 19.0434 22.473 19.1364 22.491 19.2264L22.761 20.7924C22.8 21.0174 22.563 21.1914 22.359 21.0834L20.952 20.3454C20.871 20.3034 20.775 20.3034 20.694 20.3454H20.697Z" fill="#F7D408"/>
<path d="M28.7072 20.3454L27.3002 21.0834C27.0962 21.1914 26.8592 21.0174 26.8982 20.7924L27.1682 19.2264C27.1832 19.1364 27.1532 19.0464 27.0902 18.9804L25.9532 17.8704C25.7882 17.7114 25.8782 17.4324 26.1062 17.3994L27.6782 17.1714C27.7682 17.1594 27.8462 17.1024 27.8852 17.0214L28.5872 15.5964C28.6892 15.3924 28.9802 15.3924 29.0822 15.5964L29.7842 17.0214C29.8232 17.1024 29.9012 17.1594 29.9912 17.1714L31.5632 17.3994C31.7912 17.4324 31.8812 17.7114 31.7162 17.8704L30.5792 18.9804C30.5132 19.0434 30.4832 19.1364 30.5012 19.2264L30.7712 20.7924C30.8102 21.0174 30.5732 21.1914 30.3692 21.0834L28.9622 20.3454C28.8812 20.3034 28.7852 20.3034 28.7042 20.3454H28.7072Z" fill="#F7D408"/>
<path d="M36.714 20.3454L35.307 21.0834C35.103 21.1914 34.866 21.0174 34.905 20.7924L35.175 19.2264C35.19 19.1364 35.16 19.0464 35.097 18.9804L33.96 17.8704C33.795 17.7114 33.885 17.4324 34.113 17.3994L35.685 17.1714C35.775 17.1594 35.853 17.1024 35.892 17.0214L36.594 15.5964C36.696 15.3924 36.987 15.3924 37.089 15.5964L37.791 17.0214C37.83 17.1024 37.908 17.1594 37.998 17.1714L39.57 17.3994C39.798 17.4324 39.888 17.7114 39.723 17.8704L38.586 18.9804C38.52 19.0434 38.49 19.1364 38.508 19.2264L38.778 20.7924C38.817 21.0174 38.58 21.1914 38.376 21.0834L36.969 20.3454C36.888 20.3034 36.792 20.3034 36.711 20.3454H36.714Z" fill="#F7D408"/>
<path d="M44.7209 20.3454L43.3139 21.0834C43.1099 21.1914 42.8729 21.0174 42.9119 20.7924L43.1819 19.2264C43.1969 19.1364 43.1669 19.0464 43.1039 18.9804L41.9669 17.8704C41.8019 17.7114 41.8919 17.4324 42.1199 17.3994L43.6919 17.1714C43.7819 17.1594 43.8599 17.1024 43.8989 17.0214L44.6009 15.5964C44.7029 15.3924 44.9939 15.3924 45.0959 15.5964L45.7979 17.0214C45.8369 17.1024 45.9149 17.1594 46.0049 17.1714L47.5769 17.3994C47.8049 17.4324 47.8949 17.7114 47.7299 17.8704L46.5929 18.9804C46.5269 19.0434 46.4969 19.1364 46.5149 19.2264L46.7849 20.7924C46.8239 21.0174 46.5869 21.1914 46.3829 21.0834L44.9759 20.3454C44.8949 20.3034 44.7989 20.3034 44.7179 20.3454H44.7209Z" fill="#F7D408"/>
<path d="M52.7282 20.3454L51.3212 21.0834C51.1172 21.1914 50.8802 21.0174 50.9192 20.7924L51.1892 19.2264C51.2042 19.1364 51.1742 19.0464 51.1112 18.9804L49.9742 17.8704C49.8092 17.7114 49.8992 17.4324 50.1272 17.3994L51.6992 17.1714C51.7892 17.1594 51.8672 17.1024 51.9062 17.0214L52.6082 15.5964C52.7102 15.3924 53.0012 15.3924 53.1032 15.5964L53.8052 17.0214C53.8442 17.1024 53.9222 17.1594 54.0122 17.1714L55.5842 17.3994C55.8122 17.4324 55.9022 17.7114 55.7372 17.8704L54.6002 18.9804C54.5342 19.0434 54.5042 19.1364 54.5222 19.2264L54.7922 20.7924C54.8312 21.0174 54.5942 21.1914 54.3902 21.0834L52.9832 20.3454C52.9022 20.3034 52.8062 20.3034 52.7252 20.3454H52.7282Z" fill="#DEDEDF"/>
<mask id="mask0_4823_9467" style="mask-type:luminance" maskUnits="userSpaceOnUse" x="49" y="15" width="7" height="7">
<path d="M52.7282 20.3454L51.3212 21.0834C51.1172 21.1914 50.8802 21.0174 50.9192 20.7924L51.1892 19.2264C51.2042 19.1364 51.1742 19.0464 51.1112 18.9804L49.9742 17.8704C49.8092 17.7114 49.8992 17.4324 50.1272 17.3994L51.6992 17.1714C51.7892 17.1594 51.8672 17.1024 51.9062 17.0214L52.6082 15.5964C52.7102 15.3924 53.0012 15.3924 53.1032 15.5964L53.8052 17.0214C53.8442 17.1024 53.9222 17.1594 54.0122 17.1714L55.5842 17.3994C55.8122 17.4324 55.9022 17.7114 55.7372 17.8704L54.6002 18.9804C54.5342 19.0434 54.5042 19.1364 54.5222 19.2264L54.7922 20.7924C54.8312 21.0174 54.5942 21.1914 54.3902 21.0834L52.9832 20.3454C52.9022 20.3034 52.8062 20.3034 52.7252 20.3454H52.7282Z" fill="white"/>
</mask>
<g mask="url(#mask0_4823_9467)">
<path d="M51.1711 12.1227C51.6571 12.2247 50.3521 17.0127 52.4431 18.4857C54.8701 20.1957 59.5201 15.7857 61.3531 17.2137C62.3131 17.9637 62.4361 20.2647 60.0811 26.1237C55.4131 26.9727 50.7481 27.8217 46.0801 28.6677C49.4041 15.7767 50.7391 12.0327 51.1711 12.1227Z" fill="#F7D408"/>
</g>
<path d="M9.12591 46.7635C11.8398 46.7635 14.0399 44.5635 14.0399 41.8495C14.0399 39.1356 11.8398 36.9355 9.12591 36.9355C6.41199 36.9355 4.21191 39.1356 4.21191 41.8495C4.21191 44.5635 6.41199 46.7635 9.12591 46.7635Z" fill="#5175FF"/>
<path d="M18.2159 55.7148C17.4479 51.3078 13.5959 48.1098 9.1229 48.1668C4.6499 48.1098 0.797904 51.3078 0.0299036 55.7148C-0.102096 56.6208 0.167904 57.5418 0.767904 58.2348C1.4159 58.9788 2.3549 59.4048 3.3419 59.3988H14.9039C15.8909 59.4048 16.8299 58.9788 17.4779 58.2348C18.0779 57.5418 18.3479 56.6208 18.2159 55.7148Z" fill="#5175FF"/>
</g>
<defs>
<clipPath id="clip0_4823_9467">
<rect width="60" height="60" fill="white"/>
</clipPath>
</defs>
</svg>
