<svg width="60" height="60" viewBox="0 0 60 60" fill="none" xmlns="http://www.w3.org/2000/svg">
<g clip-path="url(#clip0_4823_9346)">
<g opacity="0.53">
<path d="M30.0001 45.6685C46.572 45.6685 60.0061 44.8801 60.0061 43.9075C60.0061 42.9349 46.572 42.1465 30.0001 42.1465C13.4283 42.1465 -0.00585938 42.9349 -0.00585938 43.9075C-0.00585938 44.8801 13.4283 45.6685 30.0001 45.6685Z" fill="#606060"/>
</g>
<path d="M13.1248 38.0072C14.9488 38.0072 16.4518 39.4502 16.6678 41.3102C16.6978 41.5562 16.8928 41.7452 17.1268 41.7452H42.0178C42.2548 41.7452 42.4498 41.5562 42.4768 41.3102C42.6928 39.4472 44.1958 38.0072 46.0198 38.0072C47.8438 38.0072 49.3468 39.4502 49.5628 41.3102C49.5928 41.5562 49.7878 41.7452 50.0218 41.7452H58.9378C59.2018 41.7452 59.4148 41.5112 59.3998 41.2292L58.5658 25.2902C58.3978 22.0592 56.9218 19.5332 53.8558 19.5332H7.4128C3.4858 19.5332 0.299805 22.8932 0.299805 27.0392V41.2592C0.299805 41.5292 0.506805 41.7482 0.761805 41.7482H9.1228C9.35981 41.7482 9.5548 41.5592 9.58181 41.3132C9.7978 39.4502 11.3008 38.0102 13.1248 38.0102V38.0072Z" fill="#334DFA"/>
<path d="M46.0201 45.2079C47.8178 45.2079 49.2751 43.67 49.2751 41.7729C49.2751 39.8758 47.8178 38.3379 46.0201 38.3379C44.2224 38.3379 42.7651 39.8758 42.7651 41.7729C42.7651 43.67 44.2224 45.2079 46.0201 45.2079Z" fill="#303030"/>
<path d="M46.0199 43.8329C47.0985 43.8329 47.9729 42.9102 47.9729 41.7719C47.9729 40.6337 47.0985 39.7109 46.0199 39.7109C44.9413 39.7109 44.0669 40.6337 44.0669 41.7719C44.0669 42.9102 44.9413 43.8329 46.0199 43.8329Z" fill="#1E39BC"/>
<path d="M46.0204 42.9968C46.6616 42.9968 47.1814 42.4488 47.1814 41.7728C47.1814 41.0968 46.6616 40.5488 46.0204 40.5488C45.3792 40.5488 44.8594 41.0968 44.8594 41.7728C44.8594 42.4488 45.3792 42.9968 46.0204 42.9968Z" fill="#E0E0E0"/>
<path d="M46.02 42.0788C46.1807 42.0788 46.311 41.9418 46.311 41.7728C46.311 41.6038 46.1807 41.4668 46.02 41.4668C45.8593 41.4668 45.729 41.6038 45.729 41.7728C45.729 41.9418 45.8593 42.0788 46.02 42.0788Z" fill="#303030"/>
<path d="M45.5763 41.4451C45.6823 41.4451 45.7683 41.3538 45.7683 41.2411C45.7683 41.1284 45.6823 41.0371 45.5763 41.0371C45.4702 41.0371 45.3843 41.1284 45.3843 41.2411C45.3843 41.3538 45.4702 41.4451 45.5763 41.4451Z" fill="#303030"/>
<path d="M46.464 42.4529C46.57 42.4529 46.656 42.3616 46.656 42.2489C46.656 42.1363 46.57 42.0449 46.464 42.0449C46.3579 42.0449 46.272 42.1363 46.272 42.2489C46.272 42.3616 46.3579 42.4529 46.464 42.4529Z" fill="#303030"/>
<path d="M45.5431 42.4197C45.6491 42.4197 45.7351 42.3284 45.7351 42.2157C45.7351 42.1031 45.6491 42.0117 45.5431 42.0117C45.437 42.0117 45.3511 42.1031 45.3511 42.2157C45.3511 42.3284 45.437 42.4197 45.5431 42.4197Z" fill="#303030"/>
<path d="M46.4972 41.4803C46.6032 41.4803 46.6892 41.3889 46.6892 41.2763C46.6892 41.1636 46.6032 41.0723 46.4972 41.0723C46.3911 41.0723 46.3052 41.1636 46.3052 41.2763C46.3052 41.3889 46.3911 41.4803 46.4972 41.4803Z" fill="#303030"/>
<path d="M13.1251 45.2079C14.9228 45.2079 16.3801 43.67 16.3801 41.7729C16.3801 39.8758 14.9228 38.3379 13.1251 38.3379C11.3274 38.3379 9.87012 39.8758 9.87012 41.7729C9.87012 43.67 11.3274 45.2079 13.1251 45.2079Z" fill="#303030"/>
<path d="M13.1249 43.8329C14.2035 43.8329 15.0779 42.9102 15.0779 41.7719C15.0779 40.6337 14.2035 39.7109 13.1249 39.7109C12.0463 39.7109 11.1719 40.6337 11.1719 41.7719C11.1719 42.9102 12.0463 43.8329 13.1249 43.8329Z" fill="#1E39BC"/>
<path d="M13.1254 42.9968C13.7666 42.9968 14.2864 42.4488 14.2864 41.7728C14.2864 41.0968 13.7666 40.5488 13.1254 40.5488C12.4842 40.5488 11.9644 41.0968 11.9644 41.7728C11.9644 42.4488 12.4842 42.9968 13.1254 42.9968Z" fill="#E0E0E0"/>
<path d="M13.125 42.0788C13.2857 42.0788 13.416 41.9418 13.416 41.7728C13.416 41.6038 13.2857 41.4668 13.125 41.4668C12.9643 41.4668 12.834 41.6038 12.834 41.7728C12.834 41.9418 12.9643 42.0788 13.125 42.0788Z" fill="#303030"/>
<path d="M12.6813 41.4451C12.7873 41.4451 12.8733 41.3538 12.8733 41.2411C12.8733 41.1284 12.7873 41.0371 12.6813 41.0371C12.5752 41.0371 12.4893 41.1284 12.4893 41.2411C12.4893 41.3538 12.5752 41.4451 12.6813 41.4451Z" fill="#303030"/>
<path d="M13.569 42.4529C13.675 42.4529 13.761 42.3616 13.761 42.2489C13.761 42.1363 13.675 42.0449 13.569 42.0449C13.4629 42.0449 13.377 42.1363 13.377 42.2489C13.377 42.3616 13.4629 42.4529 13.569 42.4529Z" fill="#303030"/>
<path d="M12.6481 42.4197C12.7541 42.4197 12.8401 42.3284 12.8401 42.2157C12.8401 42.1031 12.7541 42.0117 12.6481 42.0117C12.542 42.0117 12.4561 42.1031 12.4561 42.2157C12.4561 42.3284 12.542 42.4197 12.6481 42.4197Z" fill="#303030"/>
<path d="M13.6022 41.4803C13.7082 41.4803 13.7942 41.3889 13.7942 41.2763C13.7942 41.1636 13.7082 41.0723 13.6022 41.0723C13.4961 41.0723 13.4102 41.1636 13.4102 41.2763C13.4102 41.3889 13.4961 41.4803 13.6022 41.4803Z" fill="#303030"/>
<path d="M35.151 29.9128H9.87305V26.3398H38.325L35.151 29.9128Z" fill="white"/>
<path d="M35.2259 30.0747H9.71094V26.1777H38.6879L35.2259 30.0747ZM10.0379 29.7477H35.0789L37.9619 26.5017H10.0349V29.7477H10.0379Z" fill="#000A68"/>
<path d="M7.22724 35.94H4.00224C3.97224 35.94 3.94824 35.916 3.94824 35.886C3.94824 35.856 3.97224 35.832 4.00224 35.832H7.22724C7.25724 35.832 7.28124 35.856 7.28124 35.886C7.28124 35.916 7.25724 35.94 7.22724 35.94Z" fill="black"/>
<path d="M7.22724 36.4986H4.00224C3.97224 36.4986 3.94824 36.4746 3.94824 36.4446C3.94824 36.4146 3.97224 36.3906 4.00224 36.3906H7.22724C7.25724 36.3906 7.28124 36.4146 7.28124 36.4446C7.28124 36.4746 7.25724 36.4986 7.22724 36.4986Z" fill="black"/>
<path d="M7.22724 37.0553H4.00224C3.97224 37.0553 3.94824 37.0313 3.94824 37.0013C3.94824 36.9713 3.97224 36.9473 4.00224 36.9473H7.22724C7.25724 36.9473 7.28124 36.9713 7.28124 37.0013C7.28124 37.0313 7.25724 37.0553 7.22724 37.0553Z" fill="black"/>
<path d="M7.22724 37.6139H4.00224C3.97224 37.6139 3.94824 37.5899 3.94824 37.5599C3.94824 37.5299 3.97224 37.5059 4.00224 37.5059H7.22724C7.25724 37.5059 7.28124 37.5299 7.28124 37.5599C7.28124 37.5899 7.25724 37.6139 7.22724 37.6139Z" fill="black"/>
<path d="M7.22724 38.1725H4.00224C3.97224 38.1725 3.94824 38.1485 3.94824 38.1185C3.94824 38.0885 3.97224 38.0645 4.00224 38.0645H7.22724C7.25724 38.0645 7.28124 38.0885 7.28124 38.1185C7.28124 38.1485 7.25724 38.1725 7.22724 38.1725Z" fill="black"/>
<path d="M7.22724 38.7291H4.00224C3.97224 38.7291 3.94824 38.7051 3.94824 38.6751C3.94824 38.6451 3.97224 38.6211 4.00224 38.6211H7.22724C7.25724 38.6211 7.28124 38.6451 7.28124 38.6751C7.28124 38.7051 7.25724 38.7291 7.22724 38.7291Z" fill="black"/>
<path d="M7.22724 39.2877H4.00224C3.97224 39.2877 3.94824 39.2637 3.94824 39.2337C3.94824 39.2037 3.97224 39.1797 4.00224 39.1797H7.22724C7.25724 39.1797 7.28124 39.2037 7.28124 39.2337C7.28124 39.2637 7.25724 39.2877 7.22724 39.2877Z" fill="black"/>
<path d="M7.22724 39.8463H4.00224C3.97224 39.8463 3.94824 39.8223 3.94824 39.7923C3.94824 39.7623 3.97224 39.7383 4.00224 39.7383H7.22724C7.25724 39.7383 7.28124 39.7623 7.28124 39.7923C7.28124 39.8223 7.25724 39.8463 7.22724 39.8463Z" fill="black"/>
<path d="M7.22724 40.4029H4.00224C3.97224 40.4029 3.94824 40.3789 3.94824 40.3489C3.94824 40.3189 3.97224 40.2949 4.00224 40.2949H7.22724C7.25724 40.2949 7.28124 40.3189 7.28124 40.3489C7.28124 40.3789 7.25724 40.4029 7.22724 40.4029Z" fill="black"/>
<path d="M7.22724 35.6607H4.00224C3.97224 35.6607 3.94824 35.6367 3.94824 35.6067C3.94824 35.5767 3.97224 35.5527 4.00224 35.5527H7.22724C7.25724 35.5527 7.28124 35.5767 7.28124 35.6067C7.28124 35.6367 7.25724 35.6607 7.22724 35.6607Z" fill="black"/>
<path d="M7.22724 36.2193H4.00224C3.97224 36.2193 3.94824 36.1953 3.94824 36.1653C3.94824 36.1353 3.97224 36.1113 4.00224 36.1113H7.22724C7.25724 36.1113 7.28124 36.1353 7.28124 36.1653C7.28124 36.1953 7.25724 36.2193 7.22724 36.2193Z" fill="black"/>
<path d="M7.22724 36.776H4.00224C3.97224 36.776 3.94824 36.752 3.94824 36.722C3.94824 36.692 3.97224 36.668 4.00224 36.668H7.22724C7.25724 36.668 7.28124 36.692 7.28124 36.722C7.28124 36.752 7.25724 36.776 7.22724 36.776Z" fill="black"/>
<path d="M7.22724 37.3346H4.00224C3.97224 37.3346 3.94824 37.3106 3.94824 37.2806C3.94824 37.2506 3.97224 37.2266 4.00224 37.2266H7.22724C7.25724 37.2266 7.28124 37.2506 7.28124 37.2806C7.28124 37.3106 7.25724 37.3346 7.22724 37.3346Z" fill="black"/>
<path d="M7.22724 37.8932H4.00224C3.97224 37.8932 3.94824 37.8692 3.94824 37.8392C3.94824 37.8092 3.97224 37.7852 4.00224 37.7852H7.22724C7.25724 37.7852 7.28124 37.8092 7.28124 37.8392C7.28124 37.8692 7.25724 37.8932 7.22724 37.8932Z" fill="black"/>
<path d="M7.22724 38.4498H4.00224C3.97224 38.4498 3.94824 38.4258 3.94824 38.3958C3.94824 38.3658 3.97224 38.3418 4.00224 38.3418H7.22724C7.25724 38.3418 7.28124 38.3658 7.28124 38.3958C7.28124 38.4258 7.25724 38.4498 7.22724 38.4498Z" fill="black"/>
<path d="M7.22724 39.0084H4.00224C3.97224 39.0084 3.94824 38.9844 3.94824 38.9544C3.94824 38.9244 3.97224 38.9004 4.00224 38.9004H7.22724C7.25724 38.9004 7.28124 38.9244 7.28124 38.9544C7.28124 38.9844 7.25724 39.0084 7.22724 39.0084Z" fill="black"/>
<path d="M7.22724 39.567H4.00224C3.97224 39.567 3.94824 39.543 3.94824 39.513C3.94824 39.483 3.97224 39.459 4.00224 39.459H7.22724C7.25724 39.459 7.28124 39.483 7.28124 39.513C7.28124 39.543 7.25724 39.567 7.22724 39.567Z" fill="black"/>
<path d="M7.22724 40.1256H4.00224C3.97224 40.1256 3.94824 40.1016 3.94824 40.0716C3.94824 40.0416 3.97224 40.0176 4.00224 40.0176H7.22724C7.25724 40.0176 7.28124 40.0416 7.28124 40.0716C7.28124 40.1016 7.25724 40.1256 7.22724 40.1256Z" fill="black"/>
<path d="M23.1721 38.7564H19.9471C19.9171 38.7564 19.8931 38.7324 19.8931 38.7024C19.8931 38.6724 19.9171 38.6484 19.9471 38.6484H23.1721C23.2021 38.6484 23.2261 38.6724 23.2261 38.7024C23.2261 38.7324 23.2021 38.7564 23.1721 38.7564Z" fill="black"/>
<path d="M23.1721 39.315H19.9471C19.9171 39.315 19.8931 39.291 19.8931 39.261C19.8931 39.231 19.9171 39.207 19.9471 39.207H23.1721C23.2021 39.207 23.2261 39.231 23.2261 39.261C23.2261 39.291 23.2021 39.315 23.1721 39.315Z" fill="black"/>
<path d="M23.1721 39.8717H19.9471C19.9171 39.8717 19.8931 39.8477 19.8931 39.8177C19.8931 39.7877 19.9171 39.7637 19.9471 39.7637H23.1721C23.2021 39.7637 23.2261 39.7877 23.2261 39.8177C23.2261 39.8477 23.2021 39.8717 23.1721 39.8717Z" fill="black"/>
<path d="M23.1721 40.4303H19.9471C19.9171 40.4303 19.8931 40.4063 19.8931 40.3763C19.8931 40.3463 19.9171 40.3223 19.9471 40.3223H23.1721C23.2021 40.3223 23.2261 40.3463 23.2261 40.3763C23.2261 40.4063 23.2021 40.4303 23.1721 40.4303Z" fill="black"/>
<path d="M23.1721 39.0357H19.9471C19.9171 39.0357 19.8931 39.0117 19.8931 38.9817C19.8931 38.9517 19.9171 38.9277 19.9471 38.9277H23.1721C23.2021 38.9277 23.2261 38.9517 23.2261 38.9817C23.2261 39.0117 23.2021 39.0357 23.1721 39.0357Z" fill="black"/>
<path d="M23.1721 39.5943H19.9471C19.9171 39.5943 19.8931 39.5703 19.8931 39.5403C19.8931 39.5103 19.9171 39.4863 19.9471 39.4863H23.1721C23.2021 39.4863 23.2261 39.5103 23.2261 39.5403C23.2261 39.5703 23.2021 39.5943 23.1721 39.5943Z" fill="black"/>
<path d="M23.1721 40.151H19.9471C19.9171 40.151 19.8931 40.127 19.8931 40.097C19.8931 40.067 19.9171 40.043 19.9471 40.043H23.1721C23.2021 40.043 23.2261 40.067 23.2261 40.097C23.2261 40.127 23.2021 40.151 23.1721 40.151Z" fill="black"/>
<path d="M58.3621 40.3237H57.2641C57.0421 40.3237 56.8621 40.1317 56.8621 39.8977L56.8081 37.3987C56.8081 37.1647 56.9881 36.9727 57.2101 36.9727H58.2031C58.4251 36.9727 58.6051 37.1647 58.6051 37.3987L58.7641 39.8977C58.7641 40.1317 58.5841 40.3237 58.3621 40.3237Z" fill="#E0E0E0"/>
<path d="M58.2688 40.0502H57.3508C57.1648 40.0502 57.0118 39.9632 57.0118 39.8582L56.9668 38.7272C56.9668 38.6222 57.1168 38.5352 57.3058 38.5352H58.1368C58.3228 38.5352 58.4758 38.6222 58.4758 38.7272L58.6078 39.8582C58.6078 39.9632 58.4578 40.0502 58.2688 40.0502Z" fill="#FF8A29"/>
<path d="M2.133 36.9727H1.164C0.935354 36.9727 0.75 37.158 0.75 37.3867V39.9067C0.75 40.1353 0.935354 40.3207 1.164 40.3207H2.133C2.36165 40.3207 2.547 40.1353 2.547 39.9067V37.3867C2.547 37.158 2.36165 36.9727 2.133 36.9727Z" fill="#E0E0E0"/>
<path d="M2.06096 38.2012H1.23296C1.08219 38.2012 0.959961 38.3234 0.959961 38.4742V39.8212C0.959961 39.9719 1.08219 40.0942 1.23296 40.0942H2.06096C2.21173 40.0942 2.33396 39.9719 2.33396 39.8212V38.4742C2.33396 38.3234 2.21173 38.2012 2.06096 38.2012Z" fill="#FF8A29"/>
<path d="M8.80797 38.3965H8.29497C8.1442 38.3965 8.02197 38.5187 8.02197 38.6695V38.6815C8.02197 38.8323 8.1442 38.9545 8.29497 38.9545H8.80797C8.95875 38.9545 9.08097 38.8323 9.08097 38.6815V38.6695C9.08097 38.5187 8.95875 38.3965 8.80797 38.3965Z" fill="#FF8A29"/>
<path d="M18.5912 38.3965H18.0782C17.9274 38.3965 17.8052 38.5187 17.8052 38.6695V38.6815C17.8052 38.8323 17.9274 38.9545 18.0782 38.9545H18.5912C18.742 38.9545 18.8642 38.8323 18.8642 38.6815V38.6695C18.8642 38.5187 18.742 38.3965 18.5912 38.3965Z" fill="#FF8A29"/>
<path d="M27.0541 38.3965H26.5411C26.3903 38.3965 26.2681 38.5187 26.2681 38.6695V38.6815C26.2681 38.8323 26.3903 38.9545 26.5411 38.9545H27.0541C27.2048 38.9545 27.3271 38.8323 27.3271 38.6815V38.6695C27.3271 38.5187 27.2048 38.3965 27.0541 38.3965Z" fill="#FF8A29"/>
<path d="M38.7928 38.3965H38.2798C38.1291 38.3965 38.0068 38.5187 38.0068 38.6695V38.6815C38.0068 38.8323 38.1291 38.9545 38.2798 38.9545H38.7928C38.9436 38.9545 39.0658 38.8323 39.0658 38.6815V38.6695C39.0658 38.5187 38.9436 38.3965 38.7928 38.3965Z" fill="#FF8A29"/>
<path d="M51.2762 38.3965H50.7632C50.6125 38.3965 50.4902 38.5187 50.4902 38.6695V38.6815C50.4902 38.8323 50.6125 38.9545 50.7632 38.9545H51.2762C51.427 38.9545 51.5492 38.8323 51.5492 38.6815V38.6695C51.5492 38.5187 51.427 38.3965 51.2762 38.3965Z" fill="#FF8A29"/>
<path d="M3.84305 29.9121H3.10205V30.2481H3.84305V29.9121Z" fill="black"/>
<path d="M31.8988 38.8232H31.4848C31.3678 38.2082 30.8518 37.7402 30.2338 37.7402C29.6158 37.7402 29.0998 38.2052 28.9828 38.8232H28.5688V39.3572H28.9828C29.0998 39.9722 29.6158 40.4402 30.2338 40.4402C30.8518 40.4402 31.3678 39.9752 31.4848 39.3572H31.8988V38.8232ZM30.2338 38.1692C30.6268 38.1692 30.9598 38.4452 31.0708 38.8232H29.3998C29.5078 38.4452 29.8408 38.1692 30.2368 38.1692H30.2338ZM30.2338 40.0112C29.8408 40.0112 29.5078 39.7352 29.3968 39.3572H31.0678C30.9598 39.7352 30.6268 40.0112 30.2308 40.0112H30.2338Z" fill="white"/>
<path d="M12.2252 28.575H11.9882C11.9222 28.224 11.6252 27.957 11.2742 27.957C10.9232 27.957 10.6262 28.224 10.5602 28.575H10.3232V28.878H10.5602C10.6262 29.229 10.9232 29.496 11.2742 29.496C11.6252 29.496 11.9222 29.229 11.9882 28.878H12.2252V28.575ZM11.2742 28.2C11.4992 28.2 11.6912 28.359 11.7512 28.575H10.7972C10.8602 28.359 11.0492 28.2 11.2742 28.2ZM11.2742 29.253C11.0492 29.253 10.8572 29.094 10.7972 28.878H11.7512C11.6882 29.094 11.4992 29.253 11.2742 29.253Z" fill="#1E39BC"/>
<path d="M18.1558 27.9503L18.2968 27.9383C18.3028 27.9983 18.3178 28.0463 18.3448 28.0853C18.3688 28.1243 18.4078 28.1543 18.4588 28.1783C18.5098 28.2023 18.5698 28.2143 18.6328 28.2143C18.6898 28.2143 18.7408 28.2053 18.7858 28.1873C18.8308 28.1693 18.8638 28.1453 18.8848 28.1123C18.9058 28.0793 18.9178 28.0463 18.9178 28.0103C18.9178 27.9743 18.9058 27.9413 18.8878 27.9113C18.8668 27.8843 18.8338 27.8603 18.7858 27.8393C18.7558 27.8273 18.6868 27.8063 18.5848 27.7823C18.4798 27.7553 18.4078 27.7313 18.3658 27.7073C18.3118 27.6773 18.2698 27.6413 18.2458 27.5963C18.2188 27.5513 18.2068 27.5033 18.2068 27.4463C18.2068 27.3863 18.2218 27.3293 18.2548 27.2753C18.2878 27.2213 18.3358 27.1823 18.3958 27.1553C18.4588 27.1283 18.5278 27.1133 18.6058 27.1133C18.6898 27.1133 18.7648 27.1283 18.8278 27.1553C18.8908 27.1853 18.9418 27.2273 18.9748 27.2813C19.0108 27.3383 19.0288 27.4013 19.0318 27.4703L18.8878 27.4823C18.8788 27.4073 18.8548 27.3503 18.8098 27.3113C18.7648 27.2723 18.6988 27.2543 18.6118 27.2543C18.5248 27.2543 18.4558 27.2723 18.4138 27.3083C18.3718 27.3443 18.3508 27.3863 18.3508 27.4343C18.3508 27.4763 18.3658 27.5123 18.3958 27.5393C18.4258 27.5663 18.5008 27.5963 18.6208 27.6233C18.7408 27.6503 18.8278 27.6773 18.8728 27.6983C18.9388 27.7313 18.9868 27.7703 19.0198 27.8213C19.0498 27.8693 19.0678 27.9263 19.0678 27.9923C19.0678 28.0583 19.0498 28.1153 19.0168 28.1723C18.9838 28.2293 18.9328 28.2713 18.8668 28.3043C18.8008 28.3373 18.7288 28.3523 18.6478 28.3523C18.5458 28.3523 18.4588 28.3373 18.3898 28.3043C18.3208 28.2713 18.2668 28.2263 18.2278 28.1603C18.1888 28.0973 18.1678 28.0253 18.1648 27.9443L18.1558 27.9503Z" fill="#262368" stroke="#262368" stroke-width="0.1" stroke-linecap="round" stroke-linejoin="round"/>
<path d="M19.3257 28.3348V27.1348H19.4757V27.6268H20.0667V27.1348H20.2167V28.3348H20.0667V27.7708H19.4757V28.3348H19.3257Z" fill="#262368" stroke="#262368" stroke-width="0.1" stroke-linecap="round" stroke-linejoin="round"/>
<path d="M20.397 28.3348L20.832 27.1348H20.994L21.459 28.3348H21.288L21.156 27.9718H20.682L20.556 28.3348H20.397ZM20.724 27.8428H21.108L20.988 27.5098C20.952 27.4078 20.925 27.3268 20.907 27.2608C20.892 27.3388 20.871 27.4138 20.847 27.4888L20.721 27.8398L20.724 27.8428Z" fill="#262368" stroke="#262368" stroke-width="0.1" stroke-linecap="round" stroke-linejoin="round"/>
<path d="M21.6328 28.3348V27.1348H21.7858L22.3828 28.0768V27.1348H22.5268V28.3348H22.3738L21.7768 27.3928V28.3348H21.6328Z" fill="#262368" stroke="#262368" stroke-width="0.1" stroke-linecap="round" stroke-linejoin="round"/>
<path d="M23.1235 28.3337V27.2777H22.7485V27.1367H23.6485V27.2777H23.2735V28.3337H23.1235Z" fill="#262368" stroke="#262368" stroke-width="0.1" stroke-linecap="round" stroke-linejoin="round"/>
<path d="M23.8857 28.3348V27.1348H24.0357V28.3348H23.8857Z" fill="#262368" stroke="#262368" stroke-width="0.1" stroke-linecap="round" stroke-linejoin="round"/>
<path d="M24.3506 28.3348V27.1348H24.5006V27.7288L25.0646 27.1348H25.2686L24.7916 27.6208L25.2896 28.3348H25.0916L24.6866 27.7288L24.5006 27.9208V28.3348H24.3506Z" fill="#262368" stroke="#262368" stroke-width="0.1" stroke-linecap="round" stroke-linejoin="round"/>
<path d="M25.3467 28.3348L25.7817 27.1348H25.9437L26.4087 28.3348H26.2377L26.1057 27.9718H25.6317L25.5057 28.3348H25.3467ZM25.6737 27.8428H26.0577L25.9377 27.5098C25.9017 27.4078 25.8747 27.3268 25.8567 27.2608C25.8417 27.3388 25.8207 27.4138 25.7967 27.4888L25.6707 27.8398L25.6737 27.8428Z" fill="#262368" stroke="#262368" stroke-width="0.1" stroke-linecap="round" stroke-linejoin="round"/>
<path d="M27.0628 28.9928H17.4358C17.4058 28.9928 17.3818 28.9688 17.3818 28.9388C17.3818 28.9088 17.4058 28.8848 17.4358 28.8848H27.0598C27.0898 28.8848 27.1138 28.9088 27.1138 28.9388C27.1138 28.9688 27.0898 28.9928 27.0598 28.9928H27.0628Z" fill="black"/>
<path d="M26.0039 29.2701H18.4949C18.4649 29.2701 18.4409 29.2461 18.4409 29.2161C18.4409 29.1861 18.4649 29.1621 18.4949 29.1621H26.0039C26.0339 29.1621 26.0579 29.1861 26.0579 29.2161C26.0579 29.2461 26.0339 29.2701 26.0039 29.2701Z" fill="black"/>
<path d="M30.7049 18.7773H43.2989C43.7789 18.7773 44.1689 19.1673 44.1689 19.6473V19.6713H29.8379V19.6473C29.8379 19.1673 30.2279 18.7773 30.7079 18.7773H30.7049Z" fill="#1E39BC"/>
<path d="M42.0389 21.8617C42.1889 21.7027 42.0839 21.4297 41.8679 21.4297H2.68491C1.60491 22.4437 0.81891 23.7997 0.48291 25.3357H38.7479L42.0389 21.8617Z" fill="#466670"/>
<path d="M38.748 25.4736H0.483C0.423 25.4736 0.375 25.4256 0.375 25.3656C0.375 25.3056 0.423 25.2576 0.483 25.2576H38.7L41.961 21.8166C42.012 21.7626 42.009 21.6966 41.988 21.6486C41.979 21.6306 41.946 21.5676 41.868 21.5676H2.688C2.628 21.5676 2.58 21.5196 2.58 21.4596C2.58 21.3996 2.628 21.3516 2.688 21.3516H41.871C42.009 21.3516 42.132 21.4326 42.189 21.5646C42.249 21.7026 42.222 21.8586 42.12 21.9666L38.829 25.4406C38.808 25.4616 38.781 25.4736 38.751 25.4736H38.748Z" fill="black"/>
<path d="M15.9268 21.5703V25.2543H8.9458" fill="#385A65"/>
<path d="M23.3848 21.5703V25.2543H16.4038" fill="#385A65"/>
<path d="M30.8428 21.5703V25.2543H23.8618" fill="#385A65"/>
<path d="M38.2979 21.5703V25.2543H31.3169" fill="#385A65"/>
<path d="M8.52311 21.5137V25.2547H0.537109" fill="#385A65"/>
<path d="M16.4279 21.4297H15.8999V25.3357H16.4279V21.4297Z" fill="#1A2E35"/>
<path d="M23.8859 21.4297H23.3579V25.3357H23.8859V21.4297Z" fill="#1A2E35"/>
<path d="M31.3439 21.4297H30.8159V25.3357H31.3439V21.4297Z" fill="#1A2E35"/>
<path d="M8.97282 21.4297H8.44482V25.3357H8.97282V21.4297Z" fill="#1A2E35"/>
<path d="M38.799 21.4297H38.271V25.3357H38.799V21.4297Z" fill="#1A2E35"/>
<path d="M38.7749 25.281L41.9879 21.891C42.1379 21.732 42.0329 21.459 41.8169 21.459H41.5739L38.7749 23.34V25.284V25.281Z" fill="#2D2D2D"/>
<path d="M38.748 25.4736H0.483C0.423 25.4736 0.375 25.4256 0.375 25.3656C0.375 25.3056 0.423 25.2576 0.483 25.2576H38.7L41.961 21.8166C42.012 21.7626 42.009 21.6966 41.988 21.6486C41.979 21.6306 41.946 21.5676 41.868 21.5676H2.688C2.628 21.5676 2.58 21.5196 2.58 21.4596C2.58 21.3996 2.628 21.3516 2.688 21.3516H41.871C42.009 21.3516 42.132 21.4326 42.189 21.5646C42.249 21.7026 42.222 21.8586 42.12 21.9666L38.829 25.4406C38.808 25.4616 38.781 25.4736 38.751 25.4736H38.748Z" fill="#1A2E35"/>
<path d="M46.5146 22.6777L40.4966 29.7277C39.8186 30.5197 38.8556 30.9727 37.8446 30.9727H9.07764V35.6047H38.8916C39.9086 35.6047 40.8806 35.1457 41.5556 34.3447L48.0986 26.5957C48.7766 25.7947 49.7456 25.3357 50.7626 25.3357H58.5626V25.2907C58.5206 24.5437 58.4126 23.8327 58.2296 23.1817C58.0466 22.5307 57.7886 21.9397 57.4526 21.4297H49.1636C48.1526 21.4297 47.1866 21.8827 46.5116 22.6747L46.5146 22.6777Z" fill="#466670"/>
<path d="M23.9668 31.1133V35.5233H16.9858" fill="#385A65"/>
<path d="M31.3706 31.1133V35.5233H24.3896" fill="#385A65"/>
<path d="M38.8799 30.8906V35.5226H31.8989" fill="#385A65"/>
<path d="M54.216 21.5137V25.3087H50.145" fill="#385A65"/>
<path d="M58.2329 23.1808C58.1459 22.8718 58.0409 22.5778 57.9209 22.2988L54.6929 25.3078H58.5659V25.2898C58.5269 24.5428 58.4159 23.8318 58.2329 23.1808Z" fill="#385A65"/>
<path d="M49.776 21.4297H49.464L37.854 35.6077H38.895C39.912 35.6077 40.884 35.1487 41.559 34.3477L48.102 26.5987C48.528 26.0947 49.176 25.7257 49.776 25.5217V21.4327V21.4297Z" fill="#385A65"/>
<path d="M16.5088 31.1133V35.5233H9.52783" fill="#385A65"/>
<path d="M38.8649 35.7426H9.05087C8.99087 35.7426 8.94287 35.6946 8.94287 35.6346V31.0026C8.94287 30.9426 8.99087 30.8946 9.05087 30.8946H37.8209C38.7989 30.8946 39.7349 30.4536 40.3919 29.6856L46.4099 22.6356C47.1059 21.8196 48.1049 21.3516 49.1459 21.3516H57.4349C57.4949 21.3516 57.5429 21.3996 57.5429 21.4596C57.5429 21.5196 57.4949 21.5676 57.4349 21.5676H49.1459C48.1679 21.5676 47.2319 22.0086 46.5749 22.7766L40.5569 29.8266C39.8609 30.6426 38.8619 31.1106 37.8209 31.1106H9.16187V35.5266H38.8679C39.8519 35.5266 40.7939 35.0796 41.4509 34.3056L47.9939 26.5566C48.6899 25.7316 49.6919 25.2576 50.7419 25.2576H58.5419C58.6019 25.2576 58.6499 25.3056 58.6499 25.3656C58.6499 25.4256 58.6019 25.4736 58.5419 25.4736H50.7419C49.7579 25.4736 48.8159 25.9176 48.1589 26.6946L41.6159 34.4436C40.9199 35.2686 39.9179 35.7426 38.8679 35.7426H38.8649Z" fill="#1A2E35"/>
<path d="M9.60564 30.9766H9.07764V35.6086H9.60564V30.9766Z" fill="#1A2E35"/>
<path d="M50.2225 21.4297H49.6945V25.3357H44.2465L43.7695 25.8937H48.8995C49.4545 25.5337 50.0995 25.3357 50.7685 25.3357H50.2255V21.4297H50.2225Z" fill="#1A2E35"/>
<path d="M54.7194 21.4297H54.1914V25.3357H54.7194V21.4297Z" fill="#1A2E35"/>
<path d="M17.0368 30.9766H16.5088V35.6086H17.0368V30.9766Z" fill="#1A2E35"/>
<path d="M24.4675 30.9766H23.9395V35.6086H24.4675V30.9766Z" fill="#1A2E35"/>
<path d="M31.8986 30.9766H31.3706V35.6086H31.8986V30.9766Z" fill="#1A2E35"/>
<path d="M39.1918 30.6961C39.0658 30.7501 38.9338 30.7981 38.8018 30.8371C38.5438 30.9121 38.2798 30.9571 38.0098 30.9691V30.9751H38.8018V35.6071H38.8948L39.3328 35.5501V30.9721H44.4088L44.8798 30.4141H39.7168C39.5488 30.5221 39.3748 30.6151 39.1948 30.6931L39.1918 30.6961Z" fill="#1A2E35"/>
<path d="M58.797 29.7461H53.478C52.59 29.7461 51.747 30.1631 51.177 30.8861L47.901 35.0561C47.73 35.2751 47.877 35.6051 48.144 35.6051H59.1" fill="#466670"/>
<path d="M53.3191 35.6344H52.7881V29.8294L53.3191 29.7754V35.6344Z" fill="#1A2E35"/>
<path d="M52.7879 31.1133V35.5233H49.0859" fill="#385A65"/>
<path d="M58.8181 29.8301L59.0821 35.5241H54.8521" fill="#385A65"/>
<path d="M59.106 35.7156H48.15C47.988 35.7156 47.844 35.6226 47.769 35.4726C47.691 35.3136 47.712 35.1306 47.82 34.9926L51.096 30.8226C51.687 30.0726 52.557 29.6406 53.481 29.6406H58.8C58.86 29.6406 58.908 29.6886 58.908 29.7486C58.908 29.8086 58.86 29.8566 58.8 29.8566H53.481C52.623 29.8566 51.816 30.2586 51.267 30.9546L47.991 35.1246C47.922 35.2116 47.934 35.3106 47.964 35.3766C48 35.4516 48.069 35.4966 48.15 35.4966H59.106C59.166 35.4966 59.214 35.5446 59.214 35.6046C59.214 35.6646 59.166 35.7126 59.106 35.7126V35.7156Z" fill="#1A2E35"/>
<path d="M57.018 28.8809H56.178C55.9427 28.8809 55.752 29.0716 55.752 29.3069V32.4179C55.752 32.6531 55.9427 32.8439 56.178 32.8439H57.018C57.2532 32.8439 57.444 32.6531 57.444 32.4179V29.3069C57.444 29.0716 57.2532 28.8809 57.018 28.8809Z" fill="black"/>
<path d="M56.9669 27.0957H55.5929C55.5059 27.0957 55.4339 27.1707 55.4339 27.2637C55.4339 27.3567 55.5059 27.4317 55.5929 27.4317H56.8079V28.1007H55.5389C55.4519 28.1007 55.3799 28.1757 55.3799 28.2687C55.3799 28.3617 55.4519 28.4367 55.5389 28.4367H56.8079V30.9477C56.8079 31.0407 56.8799 31.1157 56.9669 31.1157C57.0539 31.1157 57.1259 31.0407 57.1259 30.9477V27.2637C57.1259 27.1707 57.0539 27.0957 56.9669 27.0957Z" fill="black"/>
</g>
<defs>
<clipPath id="clip0_4823_9346">
<rect width="60" height="60" fill="white"/>
</clipPath>
</defs>
</svg>
