<svg width="40" height="40" viewBox="0 0 40 40" fill="none" xmlns="http://www.w3.org/2000/svg">
<g clip-path="url(#clip0_4289_5571)">
<path d="M27.52 28.0596H28.55C34.01 28.0596 38.44 32.4896 38.44 37.8396V39.2796" stroke="#141B4D" stroke-width="1.7" stroke-linecap="round" stroke-linejoin="round"/>
<path d="M38.33 39.3802H1.56V37.9402C1.56 32.5802 5.99 28.1602 11.45 28.1602H12.48" stroke="#141B4D" stroke-width="1.7" stroke-linecap="round" stroke-linejoin="round"/>
<path d="M31.12 15.5199V19.6399C31.12 25.8199 26.07 30.8699 20 30.8699C13.93 30.8699 8.88 25.8199 8.88 19.6399V15.4199" stroke="#141B4D" stroke-width="1.7" stroke-linecap="round" stroke-linejoin="round"/>
<path d="M20.41 31.0999L16.5 34.9099C16.09 35.3199 15.68 35.4199 15.06 35.4199C14.55 35.4199 14.03 35.1099 13.72 34.6999L8.88 28.4199" stroke="#141B4D" stroke-width="1.7" stroke-linecap="round" stroke-linejoin="round"/>
<path d="M19.48 31.1005L23.39 34.9105C23.8 35.3205 24.21 35.4205 24.83 35.4205C25.34 35.4205 25.86 35.1105 26.17 34.7005L30.8 28.7305" stroke="#141B4D" stroke-width="1.7" stroke-linecap="round" stroke-linejoin="round"/>
<path d="M19.9 1V2.54" stroke="#141B4D" stroke-width="1.7" stroke-linecap="round" stroke-linejoin="round"/>
<path d="M8.76999 15.3198V9.1398C8.76999 5.5398 11.76 2.5498 15.36 2.5498H24.42C28.02 2.5498 31.01 5.5398 31.01 9.1398V16.0398" stroke="#141B4D" stroke-width="1.7" stroke-linecap="round" stroke-linejoin="round"/>
<path d="M14.85 13.4598V6.0498C14.85 4.0898 16.39 2.5498 18.35 2.5498H21.34C23.3 2.5498 24.84 4.0898 24.84 6.0498V13.2598" stroke="#141B4D" stroke-width="1.7" stroke-linecap="round" stroke-linejoin="round"/>
<path d="M8.76999 13.7695H31.12C29.68 15.6195 28.13 17.4795 26.69 19.3295C21.85 17.5795 18.04 17.5795 13.2 19.3295C11.65 17.5795 10.21 15.6195 8.76999 13.7695Z" stroke="#141B4D" stroke-width="1.7" stroke-linecap="round" stroke-linejoin="round"/>
</g>
<defs>
<clipPath id="clip0_4289_5571">
<rect width="40" height="40" fill="white"/>
</clipPath>
</defs>
</svg>
