<svg width="40" height="40" viewBox="0 0 40 40" fill="none" xmlns="http://www.w3.org/2000/svg">
<g clip-path="url(#clip0_4289_5592)">
<path d="M2.57001 16.5898V21.8598" stroke="#141B4D" stroke-width="1.7" stroke-linecap="round" stroke-linejoin="round"/>
<path d="M39.21 16.5898V36.8398C39.21 38.2398 38.07 39.3798 36.67 39.3798H5.11001C3.71001 39.3798 2.57001 38.2398 2.57001 36.8398V34.3698" stroke="#141B4D" stroke-width="1.7" stroke-linecap="round" stroke-linejoin="round"/>
<path d="M32.46 11.3203H36.68C38.08 11.3203 39.22 12.4603 39.22 13.8603V16.5903H2.57001" stroke="#141B4D" stroke-width="1.7" stroke-linecap="round" stroke-linejoin="round"/>
<path d="M10.09 34.3604H0.790009V21.8604H10.09C13.54 21.8604 16.34 24.6604 16.34 28.1104C16.34 31.5604 13.54 34.3604 10.09 34.3604Z" stroke="#141B4D" stroke-width="1.7" stroke-linecap="round" stroke-linejoin="round"/>
<path d="M10.17 16.5803C9.71001 15.3303 9.45001 13.9003 9.45001 12.4903C9.45001 5.28033 16.08 -0.399668 23.59 1.25033C28.86 2.41033 32.59 7.29033 32.51 12.6803C32.49 14.1003 32.2 15.3203 31.7 16.5803" stroke="#141B4D" stroke-width="1.7" stroke-linecap="round" stroke-linejoin="round"/>
<path d="M15.52 16.5907C14.81 15.6007 14.36 14.4107 14.27 13.1207C14.01 9.37072 17.17 5.92072 20.93 5.87072C24.69 5.82072 27.8 8.87072 27.8 12.6407C27.8 14.0407 27.27 15.5007 26.54 16.5807" stroke="#141B4D" stroke-width="1.7" stroke-linecap="round" stroke-linejoin="round"/>
<path d="M9.51002 11.3203H6.29002C5.40002 11.3203 4.68002 12.0403 4.68002 12.9303V16.5803" stroke="#141B4D" stroke-width="1.7" stroke-linecap="round" stroke-linejoin="round"/>
</g>
<defs>
<clipPath id="clip0_4289_5592">
<rect width="40" height="40" fill="white"/>
</clipPath>
</defs>
</svg>
