<svg width="40" height="40" viewBox="0 0 40 40" fill="none" xmlns="http://www.w3.org/2000/svg">
<g clip-path="url(#clip0_4289_5603)">
<path d="M31.65 18.6502V10.2302C31.65 10.0202 31.55 9.9202 31.34 9.9202C27.23 9.3002 23.23 7.7602 19.74 5.4002C19.64 5.3002 19.53 5.3002 19.33 5.4002C15.84 7.7602 11.94 9.3002 7.73001 9.9202C7.52001 9.9202 7.42001 10.1302 7.42001 10.2302V21.6202C7.42001 28.6002 12.55 34.5502 19.43 35.5802H19.53C20.45 35.4802 21.38 35.1702 22.3 34.8602L22.49 34.4902" stroke="#141B4D" stroke-width="1.7" stroke-miterlimit="10"/>
<path d="M35.45 21.2098V8.07984C35.45 7.15984 34.73 6.43984 33.91 6.43984C30.42 6.22984 27.03 5.30984 23.95 3.56984C23.54 3.35984 23.13 3.05984 22.72 2.84984L22.51 2.63984C21.89 2.32984 21.28 1.91984 20.76 1.40984C20.04 0.899844 19.12 0.899844 18.5 1.40984L18.19 1.71984C17.16 2.53984 16.03 3.15984 14.91 3.76984C13.37 4.58984 11.93 5.09984 10.29 5.61984C8.65001 6.13984 7.01001 6.33984 5.36001 6.43984C4.44001 6.43984 3.72001 7.25984 3.72001 8.07984C3.72001 12.8998 3.62001 17.8298 3.72001 22.7598C3.82001 24.0898 4.03001 25.4298 4.44001 26.7598C4.65001 27.3798 4.95001 28.0898 5.16001 28.7098C6.70001 32.1998 9.16001 35.1798 12.65 37.1298C13.57 37.6398 14.6 38.0498 15.52 38.4598C16.96 38.9698 18.39 39.3798 19.93 39.3798C22.39 38.8698 24.86 38.1498 26.91 36.8098" stroke="#141B4D" stroke-width="1.7" stroke-miterlimit="10"/>
<path d="M29.08 37.1304C34.1831 37.1304 38.32 32.9935 38.32 27.8904C38.32 22.7873 34.1831 18.6504 29.08 18.6504C23.9769 18.6504 19.84 22.7873 19.84 27.8904C19.84 32.9935 23.9769 37.1304 29.08 37.1304Z" stroke="#141B4D" stroke-width="1.7" stroke-miterlimit="10"/>
<path d="M31.03 24.0904C31.03 24.0904 29.7 23.1704 28.26 23.6804C26.93 24.1904 26.51 26.0404 27.44 26.7604C27.95 27.1704 28.77 27.5804 29.9 27.8904C32.36 28.7104 31.44 32.2004 28.98 32.2004C28.06 32.2004 27.54 32.1004 26.72 31.5804" stroke="#141B4D" stroke-width="1.7" stroke-miterlimit="10" stroke-linecap="round"/>
<path d="M28.98 32.3008V33.5308" stroke="#141B4D" stroke-width="1.7" stroke-miterlimit="10" stroke-linecap="round"/>
<path d="M28.98 22.3408V23.4708" stroke="#141B4D" stroke-width="1.7" stroke-miterlimit="10" stroke-linecap="round"/>
</g>
<defs>
<clipPath id="clip0_4289_5603">
<rect width="40" height="40" fill="white"/>
</clipPath>
</defs>
</svg>
