<svg width="36" height="36" viewBox="0 0 36 36" fill="none" xmlns="http://www.w3.org/2000/svg">
<g clip-path="url(#clip0_5025_3499)">
<path d="M0 18C0 8.05887 8.05888 0 18 0C27.9411 0 36 8.05887 36 18C36 27.9411 27.9411 36 18 36C8.05888 36 0 27.9411 0 18Z" fill="#F4DA92"/>
<path d="M28.08 33.1565C27.996 33.2165 27.9 33.2765 27.816 33.3365C27.72 33.3965 27.636 33.4565 27.54 33.5045C27.456 33.5525 27.384 33.6005 27.3 33.6485C27.288 33.6605 27.276 33.6605 27.264 33.6725C26.988 33.8405 26.7 33.9965 26.412 34.1405C26.328 34.1885 26.232 34.2365 26.148 34.2725C26.148 34.2725 26.136 34.2845 26.124 34.2845C26.028 34.3325 25.932 34.3805 25.836 34.4285C25.644 34.5245 25.44 34.6085 25.248 34.6925C25.152 34.7405 25.044 34.7765 24.948 34.8125C24.852 34.8485 24.744 34.8965 24.648 34.9325C24.552 34.9685 24.444 35.0165 24.348 35.0525C24.348 35.0525 24.348 35.0525 24.336 35.0525C24.24 35.0885 24.132 35.1245 24.036 35.1605C23.82 35.2325 23.592 35.3045 23.376 35.3765C23.304 35.4005 23.22 35.4245 23.148 35.4485C22.92 35.5205 22.692 35.5805 22.464 35.6285C22.38 35.6525 22.296 35.6645 22.2 35.6885C21.984 35.7365 21.756 35.7845 21.54 35.8325C21.492 35.8445 21.456 35.8445 21.408 35.8565C21.336 35.8685 21.252 35.8805 21.18 35.8925C21.072 35.9045 20.976 35.9285 20.868 35.9405C20.82 35.9525 20.772 35.9525 20.724 35.9645C20.664 35.9765 20.592 35.9885 20.52 35.9885C20.328 36.0125 20.124 36.0365 19.932 36.0605C19.872 36.0725 19.8 36.0725 19.74 36.0845H19.728C19.644 36.0965 19.56 36.0965 19.476 36.1085C19.392 36.1205 19.308 36.1205 19.224 36.1205C19.176 36.1205 19.116 36.1325 19.068 36.1325C18.972 36.1325 18.888 36.1445 18.804 36.1445C18.684 36.1445 18.576 36.1565 18.456 36.1565C18.336 36.1565 18.228 36.1565 18.108 36.1565C18.024 36.1565 17.94 36.1565 17.856 36.1565C12.804 36.0845 8.244 33.9365 5.004 30.5285C5.004 30.5285 5.004 30.5165 4.992 30.5165C5.364 29.7845 6.744 28.4645 8.184 27.3725C10.008 25.9925 12.588 25.1405 12.588 25.1405C12.588 25.1405 14.28 24.8645 20.556 26.1725C25.344 27.1805 27.384 31.2725 28.08 33.1565Z" fill="#F7D3B5"/>
<path d="M21.888 29.4967C21.636 30.7327 20.004 31.4647 17.256 30.3607C13.884 28.9927 12.588 25.1407 12.588 25.1407C12.408 22.3807 11.988 20.0167 11.988 20.0167C15.888 19.6807 20.496 24.2407 20.496 24.2407L21.024 26.4967C21.072 26.6887 21.168 26.8567 21.312 26.9767C21.564 27.4087 22.056 28.7047 21.888 29.4967Z" fill="#F7D3B5"/>
<path d="M21.312 26.9883C19.02 26.8683 17.328 26.5323 15.516 23.2803C17.052 24.6363 18.864 25.1523 20.772 25.3923L21.024 26.4963C21.072 26.7003 21.168 26.8683 21.312 26.9883Z" fill="#EFBDA5"/>
<path d="M26.052 12.5284C26.268 13.5364 26.376 14.3524 25.788 17.0404C25.2 19.7284 26.328 22.4164 23.496 24.8764C21.588 26.5324 18.252 26.8444 15.588 25.0324C14.688 24.4204 13.86 23.5684 13.188 22.4524C12.66 21.5764 12.048 20.7484 11.364 19.9924C10.416 18.9604 9.27601 16.8844 9.84001 13.2124C10.752 7.23637 16.668 6.55237 20.16 7.21237C23.652 7.87237 25.464 9.86437 26.052 12.5284Z" fill="#F7D3B5"/>
<path d="M14.568 17.2202C14.568 17.2202 14.196 15.4202 12.444 15.6362C10.932 15.8282 10.404 19.4522 13.836 20.4602" fill="#F7D3B5"/>
<path fill-rule="evenodd" clip-rule="evenodd" d="M13.1514 16.8677C13.3539 16.9508 13.4677 17.1246 13.5192 17.3346C13.5692 17.5379 13.5662 17.7917 13.5295 18.081C13.5127 18.2564 13.5817 18.3977 13.6644 18.5024C13.7058 18.5547 13.7488 18.5953 13.7813 18.6226C13.7973 18.6361 13.8105 18.646 13.819 18.6522C13.8232 18.6552 13.8263 18.6573 13.8279 18.6585C13.8286 18.6589 13.8291 18.6592 13.8293 18.6594C13.9155 18.715 13.9406 18.83 13.8853 18.9166C13.8298 19.0035 13.7144 19.0289 13.6275 18.9734L13.7248 18.8212C13.6275 18.9734 13.6275 18.9733 13.6274 18.9733L13.6272 18.9732L13.6269 18.973L13.6262 18.9725C13.6256 18.9722 13.6249 18.9717 13.6242 18.9712C13.6226 18.9702 13.6207 18.9689 13.6184 18.9673C13.6137 18.9642 13.6076 18.9599 13.6001 18.9545C13.5852 18.9437 13.5649 18.9283 13.5412 18.9084C13.4942 18.8689 13.4322 18.8105 13.3716 18.7339C13.2507 18.581 13.128 18.345 13.1583 18.0415C13.1585 18.0399 13.1587 18.0382 13.1589 18.0365C13.1938 17.7629 13.1907 17.5617 13.1568 17.4236C13.1244 17.2919 13.0704 17.2378 13.0093 17.2128L13.008 17.2123C12.8742 17.1563 12.7894 17.1618 12.7368 17.1792C12.6825 17.1972 12.6354 17.237 12.595 17.2978C12.5541 17.3594 12.5264 17.4338 12.5106 17.5001C12.5029 17.5327 12.4987 17.5605 12.497 17.5803C12.4962 17.5887 12.496 17.5941 12.496 17.597C12.5122 17.6922 12.4526 17.7853 12.3573 17.8092C12.2573 17.8342 12.1559 17.7734 12.1309 17.6734C12.1199 17.629 12.1223 17.5798 12.1251 17.5477C12.1286 17.5081 12.1359 17.4623 12.1475 17.4137C12.1703 17.3177 12.2124 17.1993 12.284 17.0914C12.3561 16.9827 12.4643 16.8763 12.6196 16.8249C12.7764 16.773 12.9554 16.7859 13.1514 16.8677Z" fill="#423232"/>
<path d="M22.884 19.98C22.884 19.98 23.34 20.004 23.772 19.488C24.012 19.2 24.216 18.84 24.084 18.732C23.952 18.612 21.78 18.948 21.636 19.236C21.492 19.524 22.332 19.98 22.884 19.98Z" fill="#EFBDA5"/>
<path fill-rule="evenodd" clip-rule="evenodd" d="M23.4306 15.9443C23.4306 15.9443 23.4306 15.9443 23.4306 15.9443C23.4306 15.9443 23.4306 15.9442 23.4306 15.9442C23.4283 15.8413 23.343 15.7596 23.2401 15.7618C23.137 15.7639 23.0552 15.8492 23.0574 15.9523L23.244 15.9483C23.0574 15.9523 23.0574 15.9523 23.0574 15.9524L23.0574 15.9526L23.0574 15.9529L23.0574 15.954C23.0575 15.9549 23.0575 15.956 23.0575 15.9574C23.0576 15.9602 23.0578 15.9641 23.058 15.9691C23.0584 15.979 23.059 15.9932 23.0602 16.0114C23.0624 16.0477 23.0665 16.1 23.0736 16.1664C23.0879 16.2991 23.1148 16.488 23.1652 16.7174C23.2658 17.1757 23.4607 17.7975 23.8382 18.4534M23.4306 15.9443C23.4306 15.9443 23.4306 15.9443 23.4306 15.9443L23.4306 15.9443L23.4306 15.9459C23.4307 15.9475 23.4307 15.9501 23.4309 15.9538C23.4312 15.9612 23.4318 15.9728 23.4327 15.9883C23.4346 16.0193 23.4382 16.0659 23.4447 16.1263C23.4578 16.2471 23.4826 16.4227 23.5298 16.6373C23.6241 17.067 23.8072 17.6512 24.1617 18.2673L24.1618 18.2674C24.3684 18.6271 24.303 19.0766 24.0588 19.4395C23.8117 19.8067 23.3739 20.1039 22.791 20.189C22.689 20.2039 22.5942 20.1333 22.5793 20.0313C22.5644 19.9293 22.635 19.8346 22.737 19.8197C23.222 19.7488 23.5642 19.506 23.7491 19.2312C23.9369 18.9522 23.9555 18.6577 23.8382 18.4534" fill="#423232"/>
<path opacity="0.42" d="M16.74 20.5927C17.4226 20.5927 17.976 20.1361 17.976 19.5727C17.976 19.0094 17.4226 18.5527 16.74 18.5527C16.0574 18.5527 15.504 19.0094 15.504 19.5727C15.504 20.1361 16.0574 20.5927 16.74 20.5927Z" fill="#ED938A"/>
<path opacity="0.42" d="M25.596 18.5762C25.56 19.2482 25.572 19.9082 25.524 20.5682C24.996 20.4482 24.612 20.0522 24.612 19.5842C24.612 19.0802 25.032 18.6722 25.596 18.5762Z" fill="#ED938A"/>
<path d="M25.0788 28.4884C25.0788 28.4884 23.2188 26.7484 21.3828 26.3284C21.3828 26.3284 22.9308 28.8484 18.3828 28.3804C14.8548 28.0204 12.5628 25.0684 12.5628 25.0684C12.5628 25.0684 10.2468 25.7164 8.37482 27.1444C8.37482 27.1444 8.62682 30.8284 12.8388 32.6524C17.0508 34.4764 22.9188 33.5764 24.3108 32.4004C25.7028 31.2244 25.4268 28.8724 25.0788 28.4884Z" fill="#444444"/>
<path d="M7.3428 27.9482C7.3428 27.9482 3.81481 29.2322 2.54281 32.8922C1.27081 36.5522 2.50681 42.0002 2.50681 42.0002H30.5868C30.5868 42.0002 30.8148 35.6762 28.8708 32.1602C28.4148 31.3442 27.1548 30.0242 26.2548 29.6042C26.2548 29.6042 26.5908 32.7002 21.2748 32.9762C15.9588 33.2522 9.5628 31.5602 9.4068 30.5762C9.2628 29.5682 7.3428 27.9482 7.3428 27.9482Z" fill="white"/>
<path d="M27.5268 42.2164C19.9908 45.6964 7.5828 42.5524 7.5828 42.5524C7.5828 42.5524 7.3308 39.4924 8.2428 33.9844C8.2788 33.7324 8.3148 33.4804 8.3388 33.2524C8.6028 30.7564 7.9908 29.0404 7.3428 27.9604C7.3428 27.6844 7.6308 27.4924 7.9548 27.2164C8.0868 27.1084 8.2668 27.0964 8.3628 27.1684C8.5308 27.4084 8.6868 27.6484 8.8188 27.9004C10.1628 30.3844 12.8028 31.7044 15.6108 31.9804C19.4388 32.3644 21.0348 32.3044 22.9428 31.8844C24.7788 31.4764 25.6068 30.3964 25.0908 28.5964C25.0788 28.5724 25.0788 28.5364 25.0668 28.5004C25.3908 28.4764 26.1468 29.1004 26.3988 30.0244C26.6628 31.1644 26.8668 32.4484 27.0228 33.7324C27.5388 37.9204 27.5268 42.2164 27.5268 42.2164Z" fill="#444444"/>
<path fill-rule="evenodd" clip-rule="evenodd" d="M10.306 25.9572C10.2602 25.8649 10.1482 25.8272 10.0559 25.873L10.306 25.9572ZM10.1388 26.0402C9.97164 26.1231 9.97166 26.1232 9.9717 26.1233L9.97222 26.1243L9.97365 26.1272C9.97489 26.1296 9.97669 26.1332 9.97907 26.1379C9.98381 26.1473 9.99081 26.1611 10.0001 26.179C10.0185 26.2149 10.046 26.2674 10.0823 26.335C10.1548 26.4702 10.2626 26.6656 10.4045 26.9078C10.6883 27.392 11.1086 28.0641 11.6559 28.8169C12.7488 30.3205 14.3548 32.1558 16.3981 33.4573C16.8544 33.7513 17.4541 33.6323 17.7753 33.2093C17.7754 33.2092 17.7754 33.2091 17.7755 33.209L19.8604 30.4895L22.3255 32.6945C22.7334 33.0684 23.3918 32.8537 23.5202 32.3241C23.5204 32.3232 23.5206 32.3223 23.5208 32.3214C23.7555 31.2841 23.936 29.3766 23.0714 26.8439C23.0381 26.7463 22.9321 26.6943 22.8345 26.7276C22.737 26.7609 22.6849 26.8669 22.7182 26.9645C23.5572 29.4225 23.3783 31.2584 23.1571 32.2375C23.0929 32.4985 22.769 32.5954 22.5772 32.4188C22.5765 32.4182 22.5759 32.4177 22.5752 32.4171L19.9592 30.0771C19.9205 30.0425 19.8691 30.0255 19.8174 30.0304C19.7657 30.0352 19.7183 30.0614 19.6867 30.1026L17.4787 32.9826L17.4781 32.9834C17.2713 33.256 16.8875 33.3289 16.6 33.1434L16.5991 33.1428C14.6106 31.8763 13.0367 30.0817 11.9578 28.5974C11.419 27.8563 11.0053 27.1948 10.7266 26.7191C10.5872 26.4813 10.4817 26.29 10.4112 26.1586C10.3759 26.0929 10.3494 26.0421 10.3318 26.008C10.323 25.9909 10.3165 25.9781 10.3122 25.9695C10.31 25.9653 10.3084 25.9621 10.3074 25.96L10.3063 25.9578L10.306 25.9572M10.0559 25.873C9.96354 25.9188 9.92583 26.0308 9.97164 26.1231L10.0559 25.873ZM9.97164 26.1231L10.1388 26.0402L9.97164 26.1231Z" fill="white"/>
<path fill-rule="evenodd" clip-rule="evenodd" d="M19.8104 30.0436C19.9126 30.0302 20.0064 30.1021 20.0198 30.2043L19.8348 30.2286L19.6498 30.253C19.6363 30.1508 19.7083 30.0571 19.8104 30.0436ZM19.8348 30.2286C19.6498 30.253 19.6498 30.253 19.6498 30.2531L19.6523 30.2721C19.6539 30.2849 19.6564 30.3039 19.6596 30.3289C19.666 30.379 19.6753 30.4529 19.6871 30.5483C19.7107 30.7392 19.7441 31.0161 19.7833 31.3596C19.8615 32.0466 19.9625 33 20.0539 34.0651C20.2369 36.1994 20.3793 38.7681 20.2249 40.5445C20.216 40.6472 20.292 40.7376 20.3946 40.7466C20.4973 40.7555 20.5878 40.6795 20.5967 40.5768C20.7543 38.7651 20.6088 36.1678 20.4258 34.0332C20.3341 32.9638 20.2326 32.0069 20.1541 31.3173C20.1149 30.9725 20.0813 30.6945 20.0576 30.5025C20.0457 30.4065 20.0363 30.3321 20.0298 30.2816C20.0266 30.2563 20.0241 30.2371 20.0224 30.2241L20.0199 30.2044C20.0198 30.2043 20.0198 30.2043 19.8348 30.2286Z" fill="white"/>
<path d="M21.7068 34.1765C21.9454 34.1765 22.1388 33.9831 22.1388 33.7445C22.1388 33.5059 21.9454 33.3125 21.7068 33.3125C21.4682 33.3125 21.2748 33.5059 21.2748 33.7445C21.2748 33.9831 21.4682 34.1765 21.7068 34.1765Z" fill="white"/>
<path d="M21.8988 36.3367C22.1374 36.3367 22.3308 36.1432 22.3308 35.9047C22.3308 35.6661 22.1374 35.4727 21.8988 35.4727C21.6602 35.4727 21.4668 35.6661 21.4668 35.9047C21.4668 36.1432 21.6602 36.3367 21.8988 36.3367Z" fill="white"/>
<path d="M19.3548 28.164C19.3548 28.164 17.5188 27.048 16.7628 27.24C15.9948 27.432 16.2588 30.192 16.7508 30.636C17.2428 31.08 19.3428 29.664 19.4748 29.544C19.6068 29.424 19.5468 28.356 19.3548 28.164Z" fill="white"/>
<path d="M20.0508 28.1764C20.0508 28.1764 20.7708 27.0484 21.5028 26.9044C22.2228 26.7604 22.5588 29.8084 22.2348 30.0964C21.9108 30.3724 20.3988 29.7724 20.2308 29.5804C20.0508 29.4004 19.9548 28.5484 20.0508 28.1764Z" fill="white"/>
<path d="M20.8188 29.1367C20.8548 28.4767 20.3868 27.9127 19.7628 27.8527C19.1388 27.7927 18.5988 28.2727 18.5388 28.9327C18.4908 29.6047 18.9588 30.1927 19.5948 30.2527C20.2428 30.3007 20.7828 29.8087 20.8188 29.1367Z" fill="#444444"/>
<path d="M18.5388 28.9325C18.5508 29.4005 18.8028 29.8205 19.1868 30.0245C19.5588 30.2285 20.0388 30.1685 20.3508 29.8805C20.6628 29.6045 20.7828 29.1365 20.6748 28.7285C20.5668 28.3205 20.2308 27.9485 19.7628 27.8525C19.8828 27.8525 19.9908 27.8765 20.1108 27.9125C20.2188 27.9485 20.3268 28.0085 20.4228 28.0805C20.6148 28.2245 20.7708 28.4405 20.8428 28.6685C20.9268 28.9085 20.9388 29.1605 20.8788 29.4125C20.8428 29.5325 20.7948 29.6525 20.7348 29.7605C20.6748 29.8685 20.5908 29.9645 20.4948 30.0605C20.3028 30.2285 20.0628 30.3485 19.8108 30.3605C19.5588 30.3845 19.2948 30.3245 19.0908 30.1805C18.8748 30.0485 18.7188 29.8445 18.6228 29.6285C18.5268 29.4125 18.5028 29.1605 18.5388 28.9325Z" fill="white"/>
<path d="M19.3765 16.3456C19.3765 16.3576 19.3765 16.3696 19.3765 16.3696L19.3645 16.7056C19.3525 16.9936 19.1125 17.2096 18.8245 17.1976C18.5365 17.1856 18.3205 16.9336 18.3445 16.6576L18.3565 16.3216C18.3565 16.2616 18.3805 16.1896 18.4045 16.1416L19.3645 16.1896C19.3645 16.2376 19.3765 16.2856 19.3765 16.3456Z" fill="#423232"/>
<path d="M24.3924 16.6096L24.3804 16.9216C24.3684 17.1856 24.1404 17.3896 23.8764 17.3776C23.6124 17.3656 23.4084 17.1376 23.4204 16.8736L23.4324 16.5616C23.4324 16.5016 23.4444 16.4416 23.4684 16.3936L24.3684 16.4296C24.3924 16.4896 24.3924 16.5496 24.3924 16.6096Z" fill="#423232"/>
<path d="M20.5764 14.7013C20.8404 14.7373 21.0444 14.4613 20.9484 14.1973C20.9004 14.0533 20.8164 13.9213 20.6844 13.8373C20.2764 13.5853 18.7524 13.5613 17.9484 14.1373C17.2404 14.6653 19.3764 14.5333 20.5764 14.7013Z" fill="#423232"/>
<path d="M23.9004 14.8336C23.6844 14.8336 23.5524 14.5576 23.6604 14.3296C23.7204 14.2096 23.8044 14.1016 23.9244 14.0416C24.2964 13.8616 25.2924 13.9696 25.7364 14.5816C26.1324 15.1216 24.8964 14.8216 23.9004 14.8336Z" fill="#423232"/>
<path fill-rule="evenodd" clip-rule="evenodd" d="M17.9901 16.1196C17.9958 16.0167 18.0839 15.9379 18.1868 15.9437L18.4011 15.9556L19.3594 15.9915L19.3608 15.9916L20.1648 16.0276C20.2678 16.0322 20.3475 16.1194 20.3429 16.2223C20.3383 16.3253 20.2511 16.405 20.1481 16.4004L19.3448 16.3645L18.3854 16.3285C18.3843 16.3284 18.3832 16.3284 18.3821 16.3283L18.1661 16.3163C18.0632 16.3106 17.9844 16.2226 17.9901 16.1196Z" fill="#423232"/>
<path fill-rule="evenodd" clip-rule="evenodd" d="M23.2458 16.3937C23.2458 16.2906 23.3294 16.207 23.4324 16.207H23.4684C23.4709 16.207 23.4734 16.2071 23.4759 16.2072L24.3759 16.2432L24.3769 16.2432L24.9049 16.2672C25.0079 16.2719 25.0876 16.3592 25.0829 16.4621C25.0782 16.5651 24.9909 16.6448 24.888 16.6401L24.3605 16.6161L23.4647 16.5803H23.4324C23.3294 16.5803 23.2458 16.4967 23.2458 16.3937Z" fill="#423232"/>
<path fill-rule="evenodd" clip-rule="evenodd" d="M19.6804 20.9672C19.7655 20.909 19.8816 20.9308 19.9399 21.0158C20.0075 21.1147 20.069 21.1663 20.1214 21.1959C20.1738 21.2255 20.2283 21.2393 20.2929 21.2469C20.3262 21.2508 20.3602 21.2529 20.3995 21.2552C20.4012 21.2553 20.4028 21.2554 20.4045 21.2555C20.4409 21.2576 20.4826 21.26 20.5243 21.2647C20.6128 21.2748 20.7153 21.2967 20.8161 21.36C21.0129 21.4754 21.13 21.5064 21.2239 21.5054C21.3224 21.5043 21.423 21.4688 21.5969 21.3881C21.8812 21.25 22.08 21.2591 22.2444 21.2853C22.2654 21.2886 22.2845 21.2918 22.3021 21.2948C22.4163 21.3139 22.4658 21.3222 22.5474 21.2863C22.6417 21.2448 22.7519 21.2876 22.7934 21.382C22.8349 21.4763 22.7921 21.5865 22.6977 21.628C22.5072 21.7118 22.3461 21.6826 22.2308 21.6617C22.2149 21.6589 22.1999 21.6561 22.1858 21.6539C22.0768 21.6366 21.9588 21.627 21.7587 21.7245C21.7577 21.725 21.7566 21.7255 21.7556 21.7259C21.582 21.8065 21.4154 21.8766 21.228 21.8786C21.0362 21.8807 20.849 21.8124 20.6243 21.6802C20.6225 21.6791 20.6206 21.678 20.6188 21.6768C20.5837 21.6545 20.5427 21.6425 20.482 21.6356C20.4509 21.632 20.4184 21.6301 20.3787 21.6279L20.378 21.6278C20.3398 21.6256 20.2952 21.623 20.2492 21.6176C20.1552 21.6065 20.0479 21.583 19.9379 21.5209C19.8276 21.4587 19.7259 21.3641 19.6318 21.2266C19.5736 21.1415 19.5954 21.0254 19.6804 20.9672Z" fill="#423232"/>
<path d="M26.2315 12.3316C26.1955 12.1516 26.1475 11.9596 26.0875 11.7796C26.0275 11.5996 25.8835 11.4436 25.6915 11.4076C25.0675 11.2996 24.4675 10.2196 23.6035 10.0996C20.8555 9.72757 19.0195 9.95557 16.4395 10.9636C13.7755 11.9956 16.6315 15.7276 14.7235 16.9516C14.6275 16.6156 14.1595 15.2476 12.6235 15.4396C11.1715 15.6196 10.6195 18.9796 13.6195 20.1316C12.3115 22.2676 12.4075 21.4156 11.4475 20.2636C10.4875 19.1116 8.56752 16.1236 9.86352 11.7556C11.1595 7.38757 17.0275 5.10757 22.4875 7.32757C23.4235 7.71157 23.9875 8.65957 24.8035 8.81557C32.3995 10.2676 26.4115 13.1956 26.2315 12.3316Z" fill="#423232"/>
<path d="M18.8515 10.0635C18.8515 10.0635 17.8315 9.76346 17.2195 11.3595C16.6075 12.9555 14.4715 15.1515 12.6955 12.5955C10.9195 10.0515 13.5835 8.01146 16.3555 8.83946C19.1275 9.66746 18.8155 9.04346 18.8515 10.0635Z" fill="#423232"/>
<path d="M20.6155 8.89917C20.6155 8.89917 23.3155 10.6152 25.0915 9.94317C26.2075 9.52317 27.4675 7.97517 26.5915 6.82318C25.5475 5.44318 22.3195 6.48718 20.5195 5.91118C17.8195 5.04718 13.6315 4.47118 11.6635 7.71118C11.1715 8.52718 10.7275 9.35517 10.0315 10.0032C9.31152 10.6752 8.59152 11.7672 8.53152 13.4712C8.42352 16.8672 11.0875 19.8192 11.0875 19.8192C11.0875 19.8192 9.50352 14.0112 12.4915 13.1472C15.4795 12.2832 16.3075 9.29517 18.2875 9.29517C20.2675 9.29517 19.3435 7.06318 20.6155 8.89917Z" fill="#423232"/>
<path d="M23.2435 10.4235C23.2435 10.4235 25.4155 13.1355 27.0475 12.9795C28.6795 12.8235 30.5155 9.31947 26.0275 8.11947C21.5395 6.91947 23.2435 10.4235 23.2435 10.4235Z" fill="#423232"/>
<path d="M18.8515 10.0633C18.8515 10.0633 20.2795 13.5913 24.0715 14.0113C27.8755 14.4433 29.4115 7.48327 23.6035 6.82327C17.7955 6.16327 18.8515 10.0633 18.8515 10.0633Z" fill="#423232"/>
<path d="M15.8155 8.40742C15.8155 8.40742 16.7035 12.4394 18.5755 12.6194C20.4475 12.7994 19.9435 7.59142 17.4955 7.23142C15.0475 6.87142 15.8155 8.40742 15.8155 8.40742Z" fill="#423232"/>
<path d="M24.3087 18.2297C23.9847 17.8337 23.5647 17.5577 23.0607 17.5457C22.5327 17.5337 21.7047 17.6537 20.8767 18.3137C19.7967 19.1777 17.6367 19.0457 16.7847 18.9617C16.5447 18.9377 16.3167 19.0577 16.2087 19.2737C15.9687 19.7537 15.6447 20.7497 15.8007 22.3577C16.0047 24.5537 17.7927 26.5457 20.3127 26.3777C23.6247 26.1737 25.5567 23.5097 25.6767 19.9457C25.6527 18.9617 25.0647 19.1657 24.3087 18.2297Z" fill="white"/>
<path fill-rule="evenodd" clip-rule="evenodd" d="M19.7106 18.8853C19.753 18.7913 19.8636 18.7496 19.9575 18.792L19.9558 18.7957C19.9575 18.792 19.9575 18.792 19.9575 18.792L19.9608 18.7934C19.963 18.7944 19.9665 18.796 19.9712 18.7981C19.9805 18.8022 19.9944 18.8084 20.0126 18.8164C20.0491 18.8324 20.1029 18.8558 20.1717 18.8851C20.3093 18.9436 20.5066 19.0255 20.7448 19.1186C21.2219 19.3052 21.8603 19.536 22.5103 19.7151C23.164 19.8953 23.8138 20.0188 24.3189 20.0007C24.5714 19.9916 24.7724 19.9476 24.9169 19.8702C25.0551 19.7962 25.1445 19.6909 25.1841 19.539C25.2102 19.4392 25.3121 19.3795 25.4118 19.4055C25.5116 19.4315 25.5713 19.5334 25.5453 19.6332C25.477 19.8952 25.314 20.0809 25.0932 20.1992C24.8788 20.3141 24.6142 20.3636 24.3323 20.3737C23.7687 20.3939 23.0744 20.2578 22.4111 20.075C21.7441 19.8911 21.0926 19.6554 20.6089 19.4662C20.3667 19.3715 20.166 19.2882 20.0256 19.2285C19.9554 19.1987 19.9003 19.1747 19.8625 19.1581C19.8437 19.1499 19.8292 19.1434 19.8193 19.139C19.8144 19.1368 19.8106 19.1352 19.808 19.134L19.8041 19.1322C19.804 19.1322 19.804 19.1322 19.8807 18.9621L19.804 19.1322C19.71 19.0898 19.6682 18.9792 19.7106 18.8853Z" fill="#EDF3F4"/>
<path fill-rule="evenodd" clip-rule="evenodd" d="M17.9333 20.4319C17.9333 20.4319 17.9333 20.4319 17.9333 20.4319L17.934 20.4322L17.9365 20.4337C17.9388 20.435 17.9423 20.4369 17.9469 20.4396C17.9563 20.4448 17.9703 20.4527 17.9889 20.4629C18.026 20.4835 18.081 20.5135 18.152 20.5514C18.2941 20.627 18.5001 20.7336 18.7547 20.8568C19.2641 21.1032 19.9659 21.4149 20.7373 21.6772C21.5099 21.9399 22.3449 22.1506 23.1225 22.1998C23.9024 22.2491 24.6023 22.1347 25.1266 21.7724C25.2114 21.7138 25.3276 21.735 25.3862 21.8198C25.4448 21.9046 25.4236 22.0208 25.3388 22.0794C24.7171 22.509 23.9201 22.6242 23.099 22.5723C22.2757 22.5202 21.406 22.2988 20.6171 22.0306C19.827 21.7619 19.1105 21.4435 18.5921 21.1928C18.3327 21.0673 18.1224 20.9584 17.9766 20.8808C17.9037 20.842 17.8469 20.811 17.8082 20.7896C17.7889 20.7788 17.774 20.7705 17.7639 20.7648C17.7588 20.762 17.755 20.7598 17.7523 20.7583L17.7493 20.7566L17.7482 20.756C17.7481 20.7559 17.7481 20.7559 17.8407 20.5939L17.7481 20.7559C17.6586 20.7047 17.6275 20.5907 17.6787 20.5012C17.7299 20.4118 17.8439 20.3807 17.9333 20.4319Z" fill="#EDF3F4"/>
<path fill-rule="evenodd" clip-rule="evenodd" d="M17.522 22.5325C17.5909 22.4559 17.7089 22.4496 17.7855 22.5186L17.6607 22.6573C17.7855 22.5186 17.7855 22.5185 17.7854 22.5185L17.7854 22.5185C17.7854 22.5185 17.7854 22.5185 17.7855 22.5186L17.7865 22.5194C17.7874 22.5203 17.789 22.5216 17.7912 22.5236C17.7956 22.5274 17.8025 22.5334 17.8119 22.5413C17.8306 22.5572 17.8591 22.5809 17.8971 22.6111C17.9732 22.6716 18.0869 22.7578 18.2356 22.8592C18.533 23.0621 18.9691 23.3247 19.5208 23.5613C20.6239 24.0345 22.1853 24.4026 24.0277 23.9873C24.1282 23.9646 24.2281 24.0277 24.2508 24.1283C24.2734 24.2288 24.2103 24.3287 24.1098 24.3514C22.1722 24.7881 20.5295 24.4002 19.3736 23.9043C18.7959 23.6565 18.3387 23.3814 18.0253 23.1676C17.8684 23.0606 17.7474 22.9689 17.6649 22.9034C17.6237 22.8706 17.5921 22.8443 17.5704 22.826C17.5596 22.8168 17.5513 22.8096 17.5456 22.8046C17.5427 22.8021 17.5404 22.8001 17.5388 22.7987L17.5369 22.7969L17.5363 22.7964L17.5361 22.7962C17.536 22.7961 17.5359 22.7961 17.6607 22.6573L17.5359 22.7961C17.4593 22.7271 17.453 22.6091 17.522 22.5325Z" fill="#EDF3F4"/>
<path fill-rule="evenodd" clip-rule="evenodd" d="M14.2422 16.4847C14.3311 16.4325 14.4455 16.4623 14.4976 16.5512C14.9725 17.3602 15.5482 18.001 16.0063 18.4399C16.2351 18.6591 16.4337 18.8272 16.5746 18.9401C16.645 18.9966 16.7009 19.0392 16.7389 19.0674C16.7579 19.0815 16.7723 19.0921 16.7819 19.0989C16.7866 19.1023 16.7902 19.1049 16.7924 19.1064L16.7948 19.1081L16.7953 19.1084" fill="white"/>
<path fill-rule="evenodd" clip-rule="evenodd" d="M13.574 20.1987C13.6725 20.1685 13.7769 20.2238 13.8071 20.3224C14.074 21.1925 14.7385 22.6207 16.43 23.9128C16.5119 23.9754 16.5276 24.0925 16.465 24.1744C16.4025 24.2563 16.2853 24.272 16.2034 24.2094C14.4389 22.8615 13.7355 21.3617 13.4503 20.4318C13.4201 20.3333 13.4755 20.2289 13.574 20.1987Z" fill="white"/>
</g>
<defs>
<clipPath id="clip0_5025_3499">
<path d="M0 18C0 8.05887 8.05888 0 18 0C27.9411 0 36 8.05887 36 18C36 27.9411 27.9411 36 18 36C8.05888 36 0 27.9411 0 18Z" fill="white"/>
</clipPath>
</defs>
</svg>
