<svg width="140" height="112" viewBox="0 0 140 112" fill="none" xmlns="http://www.w3.org/2000/svg">
<path d="M4.1 103.8H104.53C110.31 103.8 115.01 99.1 115.01 93.32V65.96H114.49C105.74 65.96 98.62 58.84 98.62 50.09V35.09C98.62 32.83 100.46 30.99 102.72 30.99H106.95V20.06C106.95 17.8 108.78 15.96 111.05 15.96C113.32 15.96 115.15 17.79 115.15 20.06V30.99H123.35V20.06C123.35 17.8 125.18 15.96 127.45 15.96C129.72 15.96 131.55 17.79 131.55 20.06V30.99H135.78C138.04 30.99 139.88 32.83 139.88 35.09V50.09C139.88 58.84 132.76 65.96 124.01 65.96H123.22V93.32C123.22 103.62 114.84 111.99 104.55 111.99H4.1C1.84 111.99 0 110.15 0 107.89C0 105.63 1.84 103.79 4.1 103.79V103.8Z" fill="#549CFE"/>
<path d="M45.07 24.5898C56.36 24.5898 65.55 33.7798 65.55 45.0798C65.55 56.3798 56.36 65.5699 45.07 65.5699C33.77 65.5699 24.58 56.3798 24.58 45.0798C24.58 33.7798 33.77 24.5898 45.07 24.5898ZM53.27 49.1798C55.53 49.1798 57.37 47.3498 57.37 45.0798C57.37 42.8098 55.53 40.9799 53.27 40.9799C51.01 40.9799 49.17 42.8198 49.17 45.0798C49.17 47.3398 51.01 49.1798 53.27 49.1798ZM36.89 49.1798C39.15 49.1798 40.99 47.3498 40.99 45.0798C40.99 42.8098 39.15 40.9799 36.89 40.9799C34.63 40.9799 32.79 42.8198 32.79 45.0798C32.79 47.3398 34.63 49.1798 36.89 49.1798Z" fill="#5175FF"/>
<path d="M13.53 0H76.62C84.08 0 90.15 6.07 90.15 13.53V76.62C90.15 84.08 84.08 90.15 76.62 90.15H13.53C6.07 90.15 0 84.08 0 76.62V13.53C0 6.07 6.07 0 13.53 0ZM45.07 73.76C60.88 73.76 73.75 60.89 73.75 45.08C73.75 29.27 60.89 16.4 45.07 16.4C29.25 16.4 16.39 29.27 16.39 45.08C16.39 60.89 29.26 73.76 45.07 73.76Z" fill="#5175FF"/>
</svg>
