<svg width="137" height="145" viewBox="0 0 137 145" fill="none" xmlns="http://www.w3.org/2000/svg">
<path d="M72.64 29.5097C72.64 24.5097 73.74 19.7597 75.69 15.4797C67.66 8.29969 57.06 3.92969 45.44 3.92969C20.35 3.92969 0 24.2697 0 49.3697C0 77.3197 22.95 108.1 43.41 125.1C44.58 126.07 46.24 126.07 47.41 125.1C63.64 111.63 81.37 89.6697 88.08 67.1897C79.27 55.8997 72.63 42.2997 72.63 29.5097H72.64ZM45.44 72.5497C32.64 72.5497 22.26 62.1697 22.26 49.3697C22.26 36.5697 32.64 26.1897 45.44 26.1897C58.24 26.1897 68.62 36.5697 68.62 49.3697C68.62 62.1697 58.24 72.5497 45.44 72.5497Z" fill="#549CFE"/>
<path d="M45.23 144.7C58.761 144.7 69.73 141.763 69.73 138.14C69.73 134.517 58.761 131.58 45.23 131.58C31.699 131.58 20.73 134.517 20.73 138.14C20.73 141.763 31.699 144.7 45.23 144.7Z" fill="#5175FF"/>
<path fill-rule="evenodd" clip-rule="evenodd" d="M106.5 0C122.8 0 136.01 13.21 136.01 29.51C136.01 47.76 121.11 67.63 107.78 78.7C107.02 79.33 105.94 79.33 105.18 78.7C91.89 67.66 76.98 47.66 76.98 29.51C76.98 13.21 90.19 0 106.49 0H106.5ZM106.5 44.57C114.81 44.57 121.55 37.83 121.55 29.52C121.55 21.21 114.81 14.47 106.5 14.47C98.19 14.47 91.45 21.21 91.45 29.52C91.45 37.83 98.19 44.57 106.5 44.57Z" fill="#5175FF"/>
</svg>
