<svg width="124" height="124" viewBox="0 0 124 124" fill="none" xmlns="http://www.w3.org/2000/svg">
<path d="M118.162 86.5629C124.642 92.2929 124.312 100.283 120.662 105.973C119.282 108.143 117.012 110.943 113.822 114.133C108.392 119.563 98.5219 123.383 91.4119 123.253C70.1919 122.923 55.8419 117.233 30.9319 92.3229C6.02193 67.4129 0.331933 53.1029 0.00193283 31.8429C-0.0980672 24.7029 3.69193 14.8629 9.12193 9.43288C12.3119 6.24288 15.1119 3.97288 17.2819 2.59288C23.0119 -1.05712 31.0019 -1.38712 36.6919 5.09288C39.2919 8.05288 43.8319 14.1129 46.4019 17.5929C51.0419 23.8829 51.7619 32.7329 46.6019 39.4129C45.1919 41.2529 43.0119 43.8229 41.2719 45.8629C39.5319 47.9029 39.2019 50.7629 40.4119 53.1329C43.6319 59.5529 47.8819 65.3429 52.8819 70.3729C57.8819 75.4029 63.7119 79.6229 70.1219 82.8429C72.4919 84.0229 75.3919 83.7329 77.3919 81.9829C79.3919 80.2329 82.0019 78.0629 83.8419 76.6529C90.5219 71.4829 99.3419 72.2129 105.662 76.8529C109.152 79.3829 115.202 83.9229 118.162 86.5629Z" fill="#5175FF"/>
</svg>
